<svg xmlns="http://www.w3.org/2000/svg" xmlns:xlink="http://www.w3.org/1999/xlink" width="500" zoomAndPan="magnify" viewBox="0 0 375 374.999991" height="500" preserveAspectRatio="xMidYMid meet" version="1.0"><defs><clipPath id="023d7eb52c"><path d="M 56.226562 56.226562 L 318.726562 56.226562 L 318.726562 318.726562 L 56.226562 318.726562 Z M 56.226562 56.226562 " clip-rule="nonzero"/></clipPath></defs><g clip-path="url(#023d7eb52c)"><path fill="#4bc2d5" d="M 187.476562 318.726562 C 203.746094 318.726562 219.316406 315.761719 233.695312 310.347656 C 233.203125 309.859375 232.714844 309.375 232.234375 308.890625 C 231.734375 308.394531 231.242188 307.902344 230.757812 307.410156 C 230.257812 306.917969 229.761719 306.421875 229.277344 305.929688 C 228.777344 305.433594 228.28125 304.941406 227.796875 304.449219 C 227.296875 303.957031 226.804688 303.460938 226.316406 302.972656 C 225.816406 302.476562 225.320312 301.980469 224.832031 301.488281 C 224.335938 300.992188 223.84375 300.5 223.355469 300.011719 C 222.855469 299.515625 222.363281 299.023438 221.875 298.527344 C 221.375 298.035156 220.882812 297.539062 220.394531 297.050781 C 219.894531 296.554688 219.402344 296.058594 218.917969 295.570312 C 218.414062 295.074219 217.917969 294.578125 217.429688 294.085938 C 216.929688 293.589844 216.4375 293.097656 215.953125 292.609375 C 215.453125 292.113281 214.960938 291.617188 214.472656 291.125 C 213.972656 290.632812 213.480469 290.136719 212.992188 289.644531 C 212.492188 289.152344 212 288.660156 211.511719 288.167969 C 211.011719 287.671875 210.519531 287.179688 210.03125 286.6875 C 209.53125 286.191406 209.039062 285.699219 208.550781 285.207031 C 208.050781 284.710938 207.558594 284.21875 207.070312 283.726562 C 206.570312 283.230469 206.078125 282.734375 205.589844 282.246094 C 205.089844 281.75 204.597656 281.257812 204.113281 280.765625 C 203.609375 280.269531 203.117188 279.773438 202.632812 279.28125 C 202.128906 278.789062 201.636719 278.296875 201.148438 277.804688 C 200.648438 277.308594 200.15625 276.816406 199.667969 276.324219 C 199.167969 275.828125 198.671875 275.332031 198.1875 274.839844 C 197.6875 274.347656 197.195312 273.855469 196.710938 273.363281 C 196.207031 272.867188 195.714844 272.375 195.226562 271.882812 C 194.726562 271.386719 194.234375 270.894531 193.75 270.402344 C 193.25 269.90625 192.753906 269.414062 192.265625 268.921875 C 191.765625 268.425781 191.273438 267.933594 190.785156 267.441406 C 190.285156 266.945312 189.792969 266.453125 189.308594 265.960938 C 188.808594 265.46875 188.3125 264.972656 187.828125 264.480469 C 187.324219 263.984375 186.832031 263.492188 186.347656 263 C 185.84375 262.503906 185.351562 262.011719 184.863281 261.519531 C 184.363281 261.023438 183.871094 260.53125 183.382812 260.039062 C 182.882812 259.542969 182.390625 259.050781 181.90625 258.558594 C 181.40625 258.0625 180.910156 257.570312 180.425781 257.078125 C 179.925781 256.582031 179.429688 256.089844 178.945312 255.597656 C 178.445312 255.105469 177.949219 254.609375 177.464844 254.117188 C 176.964844 253.621094 176.46875 253.128906 175.984375 252.636719 C 175.484375 252.144531 174.992188 251.648438 174.503906 251.160156 C 174.003906 250.664062 173.511719 250.167969 173.023438 249.675781 C 172.523438 249.183594 172.027344 248.691406 171.542969 248.199219 C 171.042969 247.703125 170.546875 247.207031 170.0625 246.714844 C 169.558594 246.21875 169.066406 245.726562 168.582031 245.234375 C 168.082031 244.738281 167.585938 244.246094 167.101562 243.757812 C 166.601562 243.261719 166.109375 242.765625 165.621094 242.273438 C 165.121094 241.78125 164.628906 241.285156 164.140625 240.796875 C 163.640625 240.300781 163.148438 239.804688 162.660156 239.3125 C 162.160156 238.820312 161.664062 238.324219 161.179688 237.832031 C 160.679688 237.339844 160.1875 236.847656 159.703125 236.355469 C 159.199219 235.859375 158.707031 235.367188 158.21875 234.875 C 157.71875 234.378906 157.226562 233.886719 156.742188 233.394531 C 156.238281 232.898438 155.746094 232.402344 155.257812 231.910156 C 154.757812 231.417969 154.261719 230.921875 153.777344 230.429688 C 153.277344 229.9375 152.785156 229.441406 152.296875 228.953125 C 151.796875 228.457031 151.304688 227.964844 150.816406 227.472656 C 135.464844 212.289062 126.980469 198.742188 123.128906 186.609375 L 127.511719 186.609375 C 127.503906 186.5625 127.492188 186.511719 127.484375 186.464844 L 126.316406 186.464844 C 126.199219 185.96875 126.101562 185.476562 126.003906 184.984375 L 124.835938 184.984375 C 124.722656 184.488281 124.621094 183.996094 124.523438 183.503906 L 123.355469 183.503906 C 123.242188 183.007812 123.140625 182.515625 123.042969 182.023438 L 121.875 182.023438 C 121.269531 179.386719 120.878906 176.820312 120.683594 174.320312 L 120.683594 166.679688 C 122.527344 143.71875 137.65625 131.738281 150.742188 130.457031 C 152.890625 130.25 154.902344 130.144531 156.789062 130.144531 C 169.0625 130.144531 176.152344 134.449219 182.828125 141.359375 C 183.324219 141.839844 183.816406 142.332031 184.308594 142.839844 C 184.804688 143.316406 185.296875 143.8125 185.785156 144.320312 C 186.285156 144.800781 186.777344 145.292969 187.269531 145.800781 C 187.425781 145.953125 187.582031 146.105469 187.734375 146.257812 C 195.9375 136.542969 203.195312 130.144531 218.152344 130.144531 C 220.039062 130.144531 222.046875 130.25 224.207031 130.457031 C 230.753906 131.097656 237.816406 134.421875 243.46875 140.457031 C 243.96875 140.933594 244.46875 141.421875 244.949219 141.9375 C 245.453125 142.414062 245.949219 142.902344 246.429688 143.417969 C 246.933594 143.894531 247.429688 144.382812 247.910156 144.898438 C 248.414062 145.375 248.910156 145.863281 249.390625 146.378906 C 249.894531 146.855469 250.386719 147.34375 250.871094 147.859375 C 251.371094 148.335938 251.867188 148.824219 252.351562 149.339844 C 252.851562 149.816406 253.347656 150.304688 253.832031 150.820312 C 254.332031 151.296875 254.828125 151.785156 255.3125 152.300781 C 255.8125 152.777344 256.308594 153.265625 256.792969 153.78125 C 257.292969 154.257812 257.789062 154.746094 258.273438 155.261719 C 258.773438 155.738281 259.269531 156.226562 259.753906 156.742188 C 260.253906 157.21875 260.75 157.707031 261.230469 158.222656 C 261.734375 158.699219 262.230469 159.1875 262.710938 159.703125 C 263.214844 160.179688 263.710938 160.667969 264.195312 161.183594 C 264.695312 161.660156 265.191406 162.148438 265.675781 162.664062 C 266.175781 163.140625 266.671875 163.628906 267.15625 164.144531 C 267.65625 164.621094 268.152344 165.109375 268.636719 165.625 C 269.136719 166.101562 269.632812 166.589844 270.117188 167.101562 C 270.617188 167.582031 271.113281 168.070312 271.59375 168.582031 C 272.097656 169.0625 272.59375 169.550781 273.074219 170.066406 C 273.578125 170.539062 274.074219 171.03125 274.554688 171.546875 C 275.058594 172.019531 275.554688 172.511719 276.035156 173.027344 C 276.539062 173.5 277.035156 173.988281 277.515625 174.507812 C 278.019531 174.980469 278.515625 175.46875 278.996094 175.988281 C 279.5 176.464844 279.996094 176.949219 280.480469 177.46875 C 280.980469 177.945312 281.476562 178.433594 281.960938 178.945312 C 282.460938 179.421875 282.957031 179.914062 283.4375 180.425781 C 283.941406 180.902344 284.4375 181.394531 284.917969 181.90625 C 285.421875 182.382812 285.917969 182.871094 286.398438 183.386719 C 286.902344 183.863281 287.398438 184.351562 287.878906 184.871094 C 288.382812 185.34375 288.875 185.832031 289.359375 186.351562 C 289.859375 186.824219 290.355469 187.3125 290.839844 187.832031 C 291.339844 188.304688 291.839844 188.792969 292.320312 189.308594 C 292.824219 189.785156 293.320312 190.273438 293.800781 190.789062 C 294.304688 191.265625 294.800781 191.753906 295.28125 192.269531 C 295.785156 192.746094 296.277344 193.238281 296.761719 193.75 C 297.265625 194.226562 297.757812 194.714844 298.242188 195.230469 C 298.742188 195.707031 299.238281 196.195312 299.722656 196.710938 C 300.222656 197.1875 300.71875 197.675781 301.203125 198.191406 C 301.703125 198.667969 302.199219 199.15625 302.683594 199.671875 C 303.183594 200.148438 303.679688 200.636719 304.164062 201.152344 C 304.664062 201.628906 305.160156 202.117188 305.644531 202.632812 C 306.144531 203.109375 306.640625 203.597656 307.125 204.113281 C 307.625 204.589844 308.125 205.078125 308.605469 205.59375 C 309.109375 206.070312 309.601562 206.558594 310.082031 207.074219 C 310.585938 207.550781 311.082031 208.039062 311.5625 208.554688 C 312.066406 209.03125 312.5625 209.519531 313.046875 210.035156 C 313.546875 210.511719 314.042969 211 314.527344 211.515625 C 315.027344 211.992188 315.523438 212.480469 316.007812 212.996094 C 316.070312 213.058594 316.140625 213.117188 316.207031 213.183594 C 317.855469 204.867188 318.726562 196.277344 318.726562 187.476562 C 318.726562 114.992188 259.964844 56.226562 187.476562 56.226562 C 114.992188 56.226562 56.226562 114.992188 56.226562 187.476562 C 56.226562 259.964844 114.992188 318.726562 187.476562 318.726562 " fill-opacity="1" fill-rule="nonzero"/></g><path fill="#ffffff" d="M 125.492188 182.023438 L 166.144531 182.023438 C 166.191406 181.945312 166.25 181.808594 166.273438 181.617188 L 166.511719 179.765625 L 167.003906 175.992188 L 167.441406 172.621094 L 167.839844 169.539062 L 168.210938 166.6875 L 168.519531 164.308594 C 168.53125 164.21875 168.546875 164.132812 168.5625 164.046875 C 168.785156 162.738281 169.398438 161.648438 170.257812 160.917969 C 170.96875 160.3125 171.847656 159.949219 172.8125 159.914062 C 172.863281 159.910156 172.910156 159.90625 172.960938 159.90625 C 172.964844 159.90625 172.96875 159.90625 172.972656 159.90625 C 174.019531 159.90625 174.96875 160.289062 175.726562 160.949219 C 176.203125 161.371094 176.605469 161.894531 176.902344 162.511719 C 177.15625 163.039062 177.335938 163.632812 177.421875 164.273438 L 177.425781 164.300781 L 177.683594 166.21875 L 177.953125 168.195312 L 178.230469 170.230469 L 178.515625 172.324219 L 178.804688 174.480469 L 179.105469 176.699219 L 179.417969 178.984375 L 179.734375 181.34375 L 180.0625 183.773438 L 180.40625 186.28125 L 180.753906 188.875 L 181.121094 191.5625 L 181.496094 194.351562 L 181.890625 197.25 L 182.300781 200.28125 L 182.734375 203.476562 L 183.191406 206.84375 L 183.675781 210.414062 L 184.195312 214.265625 L 184.765625 218.476562 L 185.257812 222.09375 L 187.039062 212.488281 L 188.203125 206.238281 L 189.074219 201.539062 L 189.808594 197.585938 L 190.453125 194.113281 L 191.03125 190.992188 L 191.5625 188.144531 L 192.042969 185.535156 L 192.496094 183.109375 L 192.914062 180.863281 L 193.300781 178.765625 L 193.664062 176.820312 L 194 175.007812 L 194.273438 173.527344 C 194.285156 173.460938 194.304688 173.398438 194.316406 173.332031 C 194.449219 172.730469 194.664062 172.179688 194.945312 171.695312 C 195.324219 171.039062 195.828125 170.503906 196.417969 170.121094 C 197.058594 169.703125 197.800781 169.464844 198.597656 169.449219 C 199.570312 169.433594 200.472656 169.753906 201.214844 170.324219 C 201.707031 170.703125 202.128906 171.195312 202.453125 171.78125 C 202.691406 172.207031 202.878906 172.675781 203.003906 173.191406 C 203.015625 173.226562 203.023438 173.261719 203.03125 173.296875 L 203.660156 176.046875 L 203.992188 177.519531 L 204.332031 179.015625 L 204.675781 180.535156 L 205.027344 182.074219 L 205.382812 183.632812 L 205.738281 185.210938 L 206.105469 186.816406 L 206.480469 188.472656 L 206.867188 190.171875 L 207.265625 191.914062 L 207.667969 193.703125 L 207.96875 195.011719 L 208.269531 193.527344 L 208.660156 191.582031 L 209.023438 189.785156 L 209.363281 188.113281 L 209.6875 186.503906 L 210 184.941406 L 210.304688 183.441406 L 210.59375 182.003906 L 210.875 180.625 L 210.988281 180.046875 C 211.039062 179.796875 211.105469 179.558594 211.183594 179.324219 C 211.328125 178.902344 211.507812 178.507812 211.730469 178.15625 C 211.960938 177.785156 212.238281 177.460938 212.546875 177.175781 C 212.863281 176.886719 213.214844 176.644531 213.597656 176.464844 C 213.988281 176.277344 214.410156 176.15625 214.851562 176.097656 C 214.925781 176.085938 215 176.078125 215.074219 176.070312 C 215.460938 176.039062 215.84375 176.066406 216.207031 176.144531 C 217.269531 176.359375 218.207031 177.003906 218.878906 177.960938 C 219.03125 178.179688 219.167969 178.417969 219.292969 178.667969 C 219.375 178.839844 219.453125 179.015625 219.519531 179.195312 L 219.582031 179.363281 L 219.863281 180.121094 L 220.171875 180.96875 L 220.515625 181.902344 L 220.636719 182.226562 C 220.65625 182.285156 220.679688 182.332031 220.699219 182.363281 L 221.46875 182.359375 L 222.59375 182.355469 L 223.621094 182.355469 L 223.796875 182.351562 L 223.828125 182.351562 L 225.527344 182.347656 L 228.308594 182.339844 L 231.140625 182.332031 L 234.046875 182.320312 L 237.058594 182.308594 L 240.210938 182.300781 L 243.558594 182.289062 L 247.226562 182.277344 L 251.378906 182.261719 L 253.023438 182.257812 C 253.089844 181.984375 253.140625 181.714844 253.199219 181.441406 C 253.359375 180.707031 253.503906 179.976562 253.632812 179.253906 C 253.75 178.578125 253.855469 177.90625 253.949219 177.238281 C 254.035156 176.605469 254.109375 175.980469 254.167969 175.359375 C 254.203125 175.011719 254.246094 174.664062 254.273438 174.320312 L 254.273438 166.679688 C 254.246094 166.339844 254.203125 166.015625 254.171875 165.679688 C 254.121094 165.191406 254.074219 164.703125 254.011719 164.226562 C 253.953125 163.746094 253.886719 163.269531 253.8125 162.800781 C 253.742188 162.328125 253.660156 161.863281 253.574219 161.398438 C 253.488281 160.933594 253.398438 160.472656 253.304688 160.019531 C 253.207031 159.566406 253.109375 159.109375 253.003906 158.664062 C 252.894531 158.21875 252.777344 157.785156 252.65625 157.351562 C 252.539062 156.925781 252.417969 156.503906 252.292969 156.085938 C 252.167969 155.675781 252.042969 155.265625 251.910156 154.867188 C 251.777344 154.460938 251.628906 154.070312 251.488281 153.675781 C 251.34375 153.289062 251.199219 152.90625 251.046875 152.53125 C 250.898438 152.160156 250.75 151.789062 250.59375 151.429688 C 250.4375 151.0625 250.269531 150.707031 250.101562 150.351562 C 249.9375 149.996094 249.765625 149.648438 249.59375 149.300781 C 249.421875 148.960938 249.25 148.621094 249.070312 148.289062 C 248.890625 147.949219 248.703125 147.625 248.511719 147.300781 C 248.328125 146.976562 248.136719 146.660156 247.941406 146.34375 C 247.753906 146.035156 247.5625 145.722656 247.367188 145.425781 C 247.160156 145.109375 246.945312 144.804688 246.730469 144.5 C 246.527344 144.203125 246.316406 143.914062 246.105469 143.628906 C 245.898438 143.351562 245.691406 143.070312 245.480469 142.804688 C 245.253906 142.511719 245.015625 142.230469 244.777344 141.945312 C 244.542969 141.667969 244.308594 141.398438 244.070312 141.128906 C 243.871094 140.90625 243.671875 140.675781 243.46875 140.457031 C 237.816406 134.421875 230.753906 131.097656 224.207031 130.457031 C 222.046875 130.25 220.039062 130.144531 218.152344 130.144531 C 203.195312 130.144531 195.9375 136.542969 187.734375 146.257812 C 187.722656 146.273438 187.710938 146.289062 187.703125 146.300781 C 187.667969 146.339844 187.636719 146.378906 187.605469 146.414062 C 187.558594 146.46875 187.515625 146.523438 187.46875 146.574219 C 187.234375 146.296875 187.003906 146.019531 186.773438 145.75 C 186.5 145.429688 186.230469 145.113281 185.957031 144.800781 C 185.691406 144.492188 185.425781 144.1875 185.160156 143.886719 C 184.894531 143.589844 184.632812 143.296875 184.367188 143.007812 C 184.109375 142.722656 183.851562 142.441406 183.589844 142.164062 C 183.335938 141.894531 183.082031 141.625 182.828125 141.359375 C 176.152344 134.449219 169.0625 130.144531 156.789062 130.144531 C 154.902344 130.144531 152.890625 130.25 150.742188 130.457031 C 137.65625 131.738281 122.527344 143.71875 120.683594 166.679688 L 120.683594 174.320312 C 120.878906 176.820312 121.269531 179.386719 121.875 182.023438 L 125.492188 182.023438 " fill-opacity="1" fill-rule="nonzero"/><path fill="#ffffff" d="M 152.332031 228.953125 C 152.589844 229.203125 152.851562 229.457031 153.113281 229.707031 C 153.375 229.953125 153.632812 230.203125 153.898438 230.453125 C 154.160156 230.699219 154.417969 230.945312 154.683594 231.191406 C 154.949219 231.441406 155.21875 231.691406 155.488281 231.941406 C 155.757812 232.195312 156.027344 232.445312 156.300781 232.699219 C 156.570312 232.945312 156.839844 233.191406 157.113281 233.4375 C 157.390625 233.6875 157.667969 233.941406 157.949219 234.191406 C 158.226562 234.445312 158.507812 234.695312 158.792969 234.949219 C 159.066406 235.195312 159.347656 235.445312 159.628906 235.691406 C 159.914062 235.945312 160.203125 236.195312 160.492188 236.449219 C 160.78125 236.703125 161.066406 236.953125 161.359375 237.207031 C 161.644531 237.457031 161.9375 237.707031 162.230469 237.953125 C 162.523438 238.210938 162.820312 238.460938 163.121094 238.71875 C 163.414062 238.96875 163.714844 239.222656 164.011719 239.472656 C 164.308594 239.722656 164.613281 239.976562 164.914062 240.226562 C 165.21875 240.484375 165.523438 240.738281 165.832031 240.996094 C 166.136719 241.246094 166.441406 241.5 166.75 241.75 C 167.058594 242.003906 167.367188 242.257812 167.679688 242.511719 C 167.992188 242.765625 168.308594 243.023438 168.628906 243.28125 C 168.9375 243.53125 169.257812 243.785156 169.574219 244.039062 C 169.890625 244.292969 170.210938 244.550781 170.53125 244.804688 C 170.855469 245.058594 171.179688 245.316406 171.503906 245.574219 C 171.828125 245.828125 172.152344 246.082031 172.480469 246.335938 C 172.808594 246.59375 173.132812 246.851562 173.46875 247.105469 C 173.796875 247.363281 174.132812 247.617188 174.464844 247.875 C 174.800781 248.132812 175.132812 248.390625 175.472656 248.644531 C 175.808594 248.902344 176.144531 249.160156 176.484375 249.414062 C 176.824219 249.675781 177.167969 249.929688 177.511719 250.1875 C 177.855469 250.445312 178.199219 250.707031 178.546875 250.964844 C 178.890625 251.222656 179.238281 251.480469 179.585938 251.734375 C 179.9375 251.992188 180.289062 252.253906 180.640625 252.511719 C 180.992188 252.769531 181.347656 253.03125 181.703125 253.289062 C 182.058594 253.546875 182.417969 253.804688 182.773438 254.066406 C 183.132812 254.324219 183.492188 254.585938 183.855469 254.847656 C 184.214844 255.105469 184.578125 255.363281 184.945312 255.625 C 185.308594 255.882812 185.675781 256.144531 186.042969 256.40625 C 186.410156 256.664062 186.777344 256.925781 187.148438 257.1875 C 187.257812 257.261719 187.363281 257.335938 187.46875 257.410156 C 187.597656 257.320312 187.722656 257.234375 187.851562 257.144531 C 188.042969 257.007812 188.234375 256.875 188.421875 256.742188 C 188.628906 256.59375 188.839844 256.449219 189.042969 256.300781 C 189.269531 256.140625 189.492188 255.980469 189.71875 255.824219 C 189.960938 255.648438 190.203125 255.476562 190.449219 255.304688 C 190.710938 255.113281 190.972656 254.925781 191.238281 254.738281 C 191.253906 254.726562 191.269531 254.714844 191.285156 254.703125 C 191.972656 254.207031 192.652344 253.714844 193.328125 253.222656 C 193.394531 253.175781 193.457031 253.128906 193.523438 253.082031 C 193.691406 252.960938 193.855469 252.835938 194.023438 252.714844 C 194.386719 252.449219 194.75 252.183594 195.113281 251.914062 C 195.511719 251.621094 195.910156 251.328125 196.300781 251.035156 C 196.757812 250.691406 197.210938 250.355469 197.664062 250.015625 C 198.160156 249.640625 198.652344 249.269531 199.144531 248.894531 C 199.640625 248.515625 200.136719 248.140625 200.625 247.761719 C 201.175781 247.339844 201.722656 246.914062 202.265625 246.492188 C 202.898438 245.996094 203.527344 245.503906 204.152344 245.007812 C 204.867188 244.441406 205.574219 243.878906 206.269531 243.316406 C 207.097656 242.648438 207.910156 241.984375 208.714844 241.324219 C 209.714844 240.496094 210.695312 239.675781 211.65625 238.859375 C 213.054688 237.671875 214.414062 236.492188 215.730469 235.324219 C 220.621094 230.984375 224.960938 226.769531 228.800781 222.679688 C 229.921875 221.484375 231 220.296875 232.035156 219.125 C 232.761719 218.304688 233.460938 217.488281 234.148438 216.679688 C 234.679688 216.046875 235.203125 215.414062 235.714844 214.785156 C 236.171875 214.222656 236.613281 213.667969 237.050781 213.109375 C 237.457031 212.59375 237.859375 212.078125 238.25 211.5625 C 238.609375 211.09375 238.957031 210.621094 239.304688 210.152344 C 239.621094 209.722656 239.929688 209.296875 240.234375 208.871094 C 240.511719 208.484375 240.785156 208.097656 241.050781 207.714844 C 241.289062 207.371094 241.523438 207.03125 241.753906 206.6875 C 241.957031 206.386719 242.160156 206.089844 242.359375 205.789062 C 242.527344 205.53125 242.699219 205.273438 242.867188 205.019531 C 243.003906 204.804688 243.144531 204.585938 243.28125 204.375 C 243.394531 204.199219 243.503906 204.023438 243.613281 203.847656 C 243.699219 203.710938 243.785156 203.574219 243.871094 203.4375 C 243.933594 203.339844 243.996094 203.238281 244.058594 203.136719 C 244.101562 203.070312 244.140625 203.003906 244.183594 202.9375 C 244.203125 202.898438 244.226562 202.863281 244.25 202.824219 C 244.253906 202.8125 244.265625 202.800781 244.269531 202.789062 C 244.675781 202.128906 245.0625 201.472656 245.441406 200.820312 C 246.746094 198.558594 247.890625 196.339844 248.886719 194.164062 C 249.546875 192.726562 250.136719 191.3125 250.667969 189.914062 C 251.058594 188.878906 251.421875 187.855469 251.746094 186.84375 L 251.460938 186.847656 L 247.832031 186.859375 L 244.5 186.867188 L 241.363281 186.878906 L 238.363281 186.890625 L 235.464844 186.898438 L 232.632812 186.90625 L 229.859375 186.917969 L 228.394531 186.921875 L 228.210938 186.921875 L 227.863281 186.925781 L 227.238281 186.925781 L 226.167969 186.929688 L 224.261719 186.9375 L 220.492188 186.949219 C 220.488281 186.949219 220.484375 186.949219 220.480469 186.949219 C 219.179688 186.949219 217.984375 186.3125 217.144531 185.253906 C 216.828125 184.847656 216.554688 184.386719 216.359375 183.867188 C 216.351562 183.847656 216.339844 183.828125 216.335938 183.808594 L 215.867188 182.546875 L 215.410156 181.304688 L 215.183594 182.429688 L 214.929688 183.691406 L 214.664062 185.019531 L 214.378906 186.417969 L 214.082031 187.882812 L 213.773438 189.410156 L 213.457031 190.988281 L 213.128906 192.613281 L 212.78125 194.328125 L 212.410156 196.175781 L 212.359375 196.417969 C 212.21875 197.121094 211.960938 197.753906 211.621094 198.300781 C 210.8125 199.589844 209.511719 200.390625 208.023438 200.40625 C 207.65625 200.410156 207.300781 200.363281 206.960938 200.277344 C 206.1875 200.082031 205.496094 199.671875 204.9375 199.085938 C 204.492188 198.621094 204.125 198.046875 203.871094 197.386719 C 203.769531 197.121094 203.683594 196.847656 203.617188 196.558594 L 203.355469 195.414062 L 202.910156 193.449219 L 202.476562 191.523438 L 202.046875 189.652344 L 201.632812 187.816406 L 201.222656 186.027344 L 200.828125 184.277344 L 200.441406 182.574219 L 200.0625 180.910156 L 199.695312 179.300781 L 199.335938 177.722656 L 198.984375 176.160156 L 198.6875 174.863281 L 198.441406 176.195312 L 198.136719 177.824219 L 197.816406 179.554688 L 197.472656 181.402344 L 197.101562 183.40625 L 196.703125 185.546875 L 196.277344 187.855469 L 195.816406 190.335938 L 195.316406 193.03125 L 194.769531 195.964844 L 194.171875 199.1875 L 193.5 202.804688 L 192.722656 206.984375 L 191.78125 212.066406 L 190.421875 219.394531 L 189.644531 223.570312 C 189.449219 224.636719 188.988281 225.550781 188.351562 226.246094 C 187.796875 226.851562 187.109375 227.285156 186.34375 227.5 C 185.992188 227.597656 185.625 227.652344 185.25 227.652344 C 185.214844 227.652344 185.179688 227.652344 185.144531 227.648438 C 184.972656 227.644531 184.804688 227.625 184.636719 227.601562 C 184.0625 227.515625 183.527344 227.3125 183.042969 227.007812 C 182.457031 226.640625 181.953125 226.121094 181.566406 225.492188 C 181.175781 224.859375 180.90625 224.109375 180.792969 223.28125 L 180.5 221.132812 L 179.800781 215.949219 L 179.1875 211.449219 L 178.640625 207.398438 L 178.132812 203.660156 L 177.660156 200.15625 L 177.214844 196.875 L 176.792969 193.753906 L 176.386719 190.773438 L 176 187.914062 L 175.625 185.164062 L 175.265625 182.511719 L 174.921875 179.949219 L 174.585938 177.472656 L 174.257812 175.070312 L 173.945312 172.742188 L 173.636719 170.484375 L 173.339844 168.289062 L 173.050781 166.15625 L 172.976562 165.589844 L 172.890625 166.242188 L 172.566406 168.746094 L 172.214844 171.4375 L 171.839844 174.324219 L 171.433594 177.484375 L 170.980469 180.949219 L 170.820312 182.207031 C 170.507812 184.585938 168.859375 186.355469 166.808594 186.582031 C 166.664062 186.597656 166.515625 186.609375 166.363281 186.609375 L 123.128906 186.609375 C 126.980469 198.742188 135.464844 212.289062 150.816406 227.472656 C 151.070312 227.71875 151.324219 227.972656 151.582031 228.222656 C 151.828125 228.464844 152.078125 228.707031 152.332031 228.953125 " fill-opacity="1" fill-rule="nonzero"/><path fill="#308590" d="M 184.367188 143.007812 C 184.632812 143.296875 184.894531 143.589844 185.160156 143.886719 C 185.425781 144.1875 185.691406 144.492188 185.957031 144.800781 C 186.230469 145.113281 186.5 145.429688 186.773438 145.75 C 187.003906 146.019531 187.234375 146.296875 187.46875 146.574219 C 187.515625 146.523438 187.558594 146.46875 187.605469 146.414062 C 187.636719 146.378906 187.667969 146.339844 187.703125 146.300781 C 187.710938 146.289062 187.722656 146.273438 187.734375 146.257812 C 187.582031 146.105469 187.425781 145.953125 187.269531 145.800781 C 186.777344 145.292969 186.285156 144.800781 185.785156 144.320312 C 185.296875 143.8125 184.804688 143.316406 184.308594 142.839844 C 183.816406 142.332031 183.324219 141.839844 182.828125 141.359375 C 183.082031 141.625 183.335938 141.894531 183.589844 142.164062 C 183.851562 142.441406 184.109375 142.722656 184.367188 143.007812 " fill-opacity="1" fill-rule="nonzero"/><path fill="#308590" d="M 314.527344 211.515625 C 314.042969 211 313.546875 210.511719 313.046875 210.035156 C 312.5625 209.519531 312.066406 209.03125 311.5625 208.554688 C 311.082031 208.039062 310.585938 207.550781 310.082031 207.074219 C 309.601562 206.558594 309.109375 206.070312 308.605469 205.59375 C 308.125 205.078125 307.625 204.589844 307.125 204.113281 C 306.640625 203.597656 306.144531 203.109375 305.644531 202.632812 C 305.160156 202.117188 304.664062 201.628906 304.164062 201.152344 C 303.679688 200.636719 303.183594 200.148438 302.683594 199.671875 C 302.199219 199.15625 301.703125 198.667969 301.203125 198.191406 C 300.71875 197.675781 300.222656 197.1875 299.722656 196.710938 C 299.238281 196.195312 298.742188 195.707031 298.242188 195.230469 C 297.757812 194.714844 297.265625 194.226562 296.761719 193.75 C 296.277344 193.238281 295.785156 192.746094 295.28125 192.269531 C 294.800781 191.753906 294.304688 191.265625 293.800781 190.789062 C 293.320312 190.273438 292.824219 189.785156 292.320312 189.308594 C 291.839844 188.792969 291.339844 188.304688 290.839844 187.832031 C 290.355469 187.3125 289.859375 186.824219 289.359375 186.351562 C 288.875 185.832031 288.382812 185.34375 287.878906 184.871094 C 287.398438 184.351562 286.902344 183.863281 286.398438 183.386719 C 285.917969 182.871094 285.421875 182.382812 284.917969 181.90625 C 284.4375 181.394531 283.941406 180.902344 283.4375 180.425781 C 282.957031 179.914062 282.460938 179.421875 281.960938 178.945312 C 281.476562 178.433594 280.980469 177.945312 280.480469 177.46875 C 279.996094 176.949219 279.5 176.464844 278.996094 175.988281 C 278.515625 175.46875 278.019531 174.980469 277.515625 174.507812 C 277.035156 173.988281 276.539062 173.5 276.035156 173.027344 C 275.554688 172.511719 275.058594 172.019531 274.554688 171.546875 C 274.074219 171.03125 273.578125 170.539062 273.074219 170.066406 C 272.59375 169.550781 272.097656 169.0625 271.59375 168.582031 C 271.113281 168.070312 270.617188 167.582031 270.117188 167.101562 C 269.632812 166.589844 269.136719 166.101562 268.636719 165.625 C 268.152344 165.109375 267.65625 164.621094 267.15625 164.144531 C 266.671875 163.628906 266.175781 163.140625 265.675781 162.664062 C 265.191406 162.148438 264.695312 161.660156 264.195312 161.183594 C 263.710938 160.667969 263.214844 160.179688 262.710938 159.703125 C 262.230469 159.1875 261.734375 158.699219 261.230469 158.222656 C 260.75 157.707031 260.253906 157.21875 259.753906 156.742188 C 259.269531 156.226562 258.773438 155.738281 258.273438 155.261719 C 257.789062 154.746094 257.292969 154.257812 256.792969 153.78125 C 256.308594 153.265625 255.8125 152.777344 255.3125 152.300781 C 254.828125 151.785156 254.332031 151.296875 253.832031 150.820312 C 253.347656 150.304688 252.851562 149.816406 252.351562 149.339844 C 251.867188 148.824219 251.371094 148.335938 250.871094 147.859375 C 250.386719 147.34375 249.894531 146.855469 249.390625 146.378906 C 248.910156 145.863281 248.414062 145.375 247.910156 144.898438 C 247.429688 144.382812 246.933594 143.894531 246.429688 143.417969 C 245.949219 142.902344 245.453125 142.414062 244.949219 141.9375 C 244.46875 141.421875 243.96875 140.933594 243.46875 140.457031 C 243.671875 140.675781 243.871094 140.90625 244.070312 141.128906 C 244.308594 141.398438 244.542969 141.667969 244.777344 141.945312 C 245.015625 142.230469 245.253906 142.511719 245.480469 142.804688 C 245.691406 143.070312 245.898438 143.351562 246.105469 143.628906 C 246.316406 143.914062 246.527344 144.203125 246.730469 144.5 C 246.945312 144.804688 247.160156 145.109375 247.367188 145.425781 C 247.5625 145.722656 247.753906 146.035156 247.941406 146.34375 C 248.136719 146.660156 248.328125 146.976562 248.511719 147.300781 C 248.703125 147.625 248.890625 147.949219 249.070312 148.289062 C 249.25 148.621094 249.421875 148.960938 249.59375 149.300781 C 249.765625 149.648438 249.9375 149.996094 250.101562 150.351562 C 250.269531 150.707031 250.4375 151.0625 250.59375 151.429688 C 250.75 151.789062 250.898438 152.160156 251.046875 152.53125 C 251.199219 152.90625 251.34375 153.289062 251.488281 153.675781 C 251.628906 154.070312 251.777344 154.460938 251.910156 154.867188 C 252.042969 155.265625 252.167969 155.675781 252.292969 156.085938 C 252.417969 156.503906 252.539062 156.925781 252.65625 157.351562 C 252.777344 157.785156 252.894531 158.21875 253.003906 158.664062 C 253.109375 159.109375 253.207031 159.566406 253.304688 160.019531 C 253.398438 160.472656 253.488281 160.933594 253.574219 161.398438 C 253.660156 161.863281 253.742188 162.328125 253.8125 162.800781 C 253.886719 163.269531 253.953125 163.746094 254.011719 164.226562 C 254.074219 164.703125 254.121094 165.191406 254.171875 165.679688 C 254.203125 166.015625 254.246094 166.339844 254.273438 166.679688 L 254.273438 174.320312 C 254.246094 174.664062 254.203125 175.011719 254.167969 175.359375 C 254.109375 175.980469 254.035156 176.605469 253.949219 177.238281 C 253.855469 177.90625 253.75 178.578125 253.632812 179.253906 C 253.503906 179.976562 253.359375 180.707031 253.199219 181.441406 C 253.140625 181.714844 253.089844 181.984375 253.023438 182.257812 L 251.378906 182.261719 L 247.226562 182.277344 L 243.558594 182.289062 L 240.210938 182.300781 L 237.058594 182.308594 L 234.046875 182.320312 L 231.140625 182.332031 L 228.308594 182.339844 L 225.527344 182.347656 L 223.828125 182.351562 L 223.796875 182.351562 L 223.621094 182.355469 L 222.59375 182.355469 L 221.46875 182.359375 L 220.699219 182.363281 C 220.679688 182.332031 220.65625 182.285156 220.636719 182.226562 L 220.515625 181.902344 L 220.171875 180.96875 L 219.863281 180.121094 L 219.582031 179.363281 L 219.519531 179.195312 C 219.453125 179.015625 219.375 178.839844 219.292969 178.667969 C 219.167969 178.417969 219.03125 178.179688 218.878906 177.960938 C 218.207031 177.003906 217.269531 176.359375 216.207031 176.144531 C 215.84375 176.066406 215.460938 176.039062 215.074219 176.070312 C 215 176.078125 214.925781 176.085938 214.851562 176.097656 C 214.410156 176.15625 213.988281 176.277344 213.597656 176.464844 C 213.214844 176.644531 212.863281 176.886719 212.546875 177.175781 C 212.238281 177.460938 211.960938 177.785156 211.730469 178.15625 C 211.507812 178.507812 211.328125 178.902344 211.183594 179.324219 C 211.105469 179.558594 211.039062 179.796875 210.988281 180.046875 L 210.875 180.625 L 210.59375 182.003906 L 210.304688 183.441406 L 210 184.941406 L 209.6875 186.503906 L 209.363281 188.113281 L 209.023438 189.785156 L 208.660156 191.582031 L 208.269531 193.527344 L 207.96875 195.011719 L 207.667969 193.703125 L 207.265625 191.914062 L 206.867188 190.171875 L 206.480469 188.472656 L 206.105469 186.816406 L 205.738281 185.210938 L 205.382812 183.632812 L 205.027344 182.074219 L 204.675781 180.535156 L 204.332031 179.015625 L 203.992188 177.519531 L 203.660156 176.046875 L 203.03125 173.296875 C 203.023438 173.261719 203.015625 173.226562 203.003906 173.191406 C 202.878906 172.675781 202.691406 172.207031 202.453125 171.78125 C 202.128906 171.195312 201.707031 170.703125 201.214844 170.324219 C 200.472656 169.753906 199.570312 169.433594 198.597656 169.449219 C 197.800781 169.464844 197.058594 169.703125 196.417969 170.121094 C 195.828125 170.503906 195.324219 171.039062 194.945312 171.695312 C 194.664062 172.179688 194.449219 172.730469 194.316406 173.332031 C 194.304688 173.398438 194.285156 173.460938 194.273438 173.527344 L 194 175.007812 L 193.664062 176.820312 L 193.300781 178.765625 L 192.914062 180.863281 L 192.496094 183.109375 L 192.042969 185.535156 L 191.5625 188.144531 L 191.03125 190.992188 L 190.453125 194.113281 L 189.808594 197.585938 L 189.074219 201.539062 L 188.203125 206.238281 L 187.039062 212.488281 L 185.257812 222.09375 L 184.765625 218.476562 L 184.195312 214.265625 L 183.675781 210.414062 L 183.191406 206.84375 L 182.734375 203.476562 L 182.300781 200.28125 L 181.890625 197.25 L 181.496094 194.351562 L 181.121094 191.5625 L 180.753906 188.875 L 180.40625 186.28125 L 180.0625 183.773438 L 179.734375 181.34375 L 179.417969 178.984375 L 179.105469 176.699219 L 178.804688 174.480469 L 178.515625 172.324219 L 178.230469 170.230469 L 177.953125 168.195312 L 177.683594 166.21875 L 177.425781 164.300781 L 177.421875 164.273438 C 177.335938 163.632812 177.15625 163.039062 176.902344 162.511719 C 176.605469 161.894531 176.203125 161.371094 175.726562 160.949219 C 174.96875 160.289062 174.019531 159.90625 172.972656 159.90625 C 172.96875 159.90625 172.964844 159.90625 172.960938 159.90625 C 172.910156 159.90625 172.863281 159.910156 172.8125 159.914062 C 171.847656 159.949219 170.96875 160.3125 170.257812 160.917969 C 169.398438 161.648438 168.785156 162.738281 168.5625 164.046875 C 168.546875 164.132812 168.53125 164.21875 168.519531 164.308594 L 168.210938 166.6875 L 167.839844 169.539062 L 167.441406 172.621094 L 167.003906 175.992188 L 166.511719 179.765625 L 166.273438 181.617188 C 166.25 181.808594 166.191406 181.945312 166.144531 182.023438 L 123.042969 182.023438 C 123.140625 182.515625 123.242188 183.007812 123.355469 183.503906 L 124.523438 183.503906 C 124.621094 183.996094 124.722656 184.488281 124.835938 184.984375 L 126.003906 184.984375 C 126.101562 185.476562 126.199219 185.96875 126.316406 186.464844 L 127.484375 186.464844 C 127.492188 186.511719 127.503906 186.5625 127.511719 186.609375 L 166.363281 186.609375 C 166.515625 186.609375 166.664062 186.597656 166.808594 186.582031 C 168.859375 186.355469 170.507812 184.585938 170.820312 182.207031 L 170.980469 180.949219 L 171.433594 177.484375 L 171.839844 174.324219 L 172.214844 171.4375 L 172.566406 168.746094 L 172.890625 166.242188 L 172.976562 165.589844 L 173.050781 166.15625 L 173.339844 168.289062 L 173.636719 170.484375 L 173.945312 172.742188 L 174.257812 175.070312 L 174.585938 177.472656 L 174.921875 179.949219 L 175.265625 182.511719 L 175.625 185.164062 L 176 187.914062 L 176.386719 190.773438 L 176.792969 193.753906 L 177.214844 196.875 L 177.660156 200.15625 L 178.132812 203.660156 L 178.640625 207.398438 L 179.1875 211.449219 L 179.800781 215.949219 L 180.5 221.132812 L 180.792969 223.28125 C 180.90625 224.109375 181.175781 224.859375 181.566406 225.492188 C 181.953125 226.121094 182.457031 226.640625 183.042969 227.007812 C 183.527344 227.3125 184.0625 227.515625 184.636719 227.601562 C 184.804688 227.625 184.972656 227.644531 185.144531 227.648438 C 185.179688 227.652344 185.214844 227.652344 185.25 227.652344 C 185.625 227.652344 185.992188 227.597656 186.34375 227.5 C 187.109375 227.285156 187.796875 226.851562 188.351562 226.246094 C 188.988281 225.550781 189.449219 224.636719 189.644531 223.570312 L 190.421875 219.394531 L 191.78125 212.066406 L 192.722656 206.984375 L 193.5 202.804688 L 194.171875 199.1875 L 194.769531 195.964844 L 195.316406 193.03125 L 195.816406 190.335938 L 196.277344 187.855469 L 196.703125 185.546875 L 197.101562 183.40625 L 197.472656 181.402344 L 197.816406 179.554688 L 198.136719 177.824219 L 198.441406 176.195312 L 198.6875 174.863281 L 198.984375 176.160156 L 199.335938 177.722656 L 199.695312 179.300781 L 200.0625 180.910156 L 200.441406 182.574219 L 200.828125 184.277344 L 201.222656 186.027344 L 201.632812 187.816406 L 202.046875 189.652344 L 202.476562 191.523438 L 202.910156 193.449219 L 203.355469 195.414062 L 203.617188 196.558594 C 203.683594 196.847656 203.769531 197.121094 203.871094 197.386719 C 204.125 198.046875 204.492188 198.621094 204.9375 199.085938 C 205.496094 199.671875 206.1875 200.082031 206.960938 200.277344 C 207.300781 200.363281 207.65625 200.410156 208.023438 200.40625 C 209.511719 200.390625 210.8125 199.589844 211.621094 198.300781 C 211.960938 197.753906 212.21875 197.121094 212.359375 196.417969 L 212.410156 196.175781 L 212.78125 194.328125 L 213.128906 192.613281 L 213.457031 190.988281 L 213.773438 189.410156 L 214.082031 187.882812 L 214.378906 186.417969 L 214.664062 185.019531 L 214.929688 183.691406 L 215.183594 182.429688 L 215.410156 181.304688 L 215.867188 182.546875 L 216.335938 183.808594 C 216.339844 183.828125 216.351562 183.847656 216.359375 183.867188 C 216.554688 184.386719 216.828125 184.847656 217.144531 185.253906 C 217.984375 186.3125 219.179688 186.949219 220.480469 186.949219 C 220.484375 186.949219 220.488281 186.949219 220.492188 186.949219 L 224.261719 186.9375 L 226.167969 186.929688 L 227.238281 186.925781 L 227.863281 186.925781 L 228.210938 186.921875 L 228.394531 186.921875 L 229.859375 186.917969 L 232.632812 186.90625 L 235.464844 186.898438 L 238.363281 186.890625 L 241.363281 186.878906 L 244.5 186.867188 L 247.832031 186.859375 L 251.460938 186.847656 L 251.746094 186.84375 C 251.421875 187.855469 251.058594 188.878906 250.667969 189.914062 C 250.136719 191.3125 249.546875 192.726562 248.886719 194.164062 C 247.890625 196.339844 246.746094 198.558594 245.441406 200.820312 C 245.0625 201.472656 244.675781 202.128906 244.269531 202.789062 C 244.265625 202.800781 244.253906 202.8125 244.25 202.824219 C 244.226562 202.863281 244.203125 202.898438 244.183594 202.9375 C 244.140625 203.003906 244.101562 203.070312 244.058594 203.136719 C 243.996094 203.238281 243.933594 203.339844 243.871094 203.4375 C 243.785156 203.574219 243.699219 203.710938 243.613281 203.847656 C 243.503906 204.023438 243.394531 204.199219 243.28125 204.375 C 243.144531 204.585938 243.003906 204.804688 242.867188 205.019531 C 242.699219 205.273438 242.527344 205.53125 242.359375 205.789062 C 242.160156 206.089844 241.957031 206.386719 241.753906 206.6875 C 241.523438 207.03125 241.289062 207.371094 241.050781 207.714844 C 240.785156 208.097656 240.511719 208.484375 240.234375 208.871094 C 239.929688 209.296875 239.621094 209.722656 239.304688 210.152344 C 238.957031 210.621094 238.609375 211.09375 238.25 211.5625 C 237.859375 212.078125 237.457031 212.59375 237.050781 213.109375 C 236.613281 213.667969 236.171875 214.222656 235.714844 214.785156 C 235.203125 215.414062 234.679688 216.046875 234.148438 216.679688 C 233.460938 217.488281 232.761719 218.304688 232.035156 219.125 C 231 220.296875 229.921875 221.484375 228.800781 222.679688 C 224.960938 226.769531 220.621094 230.984375 215.730469 235.324219 C 214.414062 236.492188 213.054688 237.671875 211.65625 238.859375 C 210.695312 239.675781 209.714844 240.496094 208.714844 241.324219 C 207.910156 241.984375 207.097656 242.648438 206.269531 243.316406 C 205.574219 243.878906 204.867188 244.441406 204.152344 245.007812 C 203.527344 245.503906 202.898438 245.996094 202.265625 246.492188 C 201.722656 246.914062 201.175781 247.339844 200.625 247.761719 C 200.136719 248.140625 199.640625 248.515625 199.144531 248.894531 C 198.652344 249.269531 198.160156 249.640625 197.664062 250.015625 C 197.210938 250.355469 196.757812 250.691406 196.300781 251.035156 C 195.910156 251.328125 195.511719 251.621094 195.113281 251.914062 C 194.75 252.183594 194.386719 252.449219 194.023438 252.714844 C 193.855469 252.835938 193.691406 252.960938 193.523438 253.082031 C 193.457031 253.128906 193.394531 253.175781 193.328125 253.222656 C 192.652344 253.714844 191.972656 254.207031 191.285156 254.703125 C 191.269531 254.714844 191.253906 254.726562 191.238281 254.738281 C 190.972656 254.925781 190.710938 255.113281 190.449219 255.304688 C 190.203125 255.476562 189.960938 255.648438 189.71875 255.824219 C 189.492188 255.980469 189.269531 256.140625 189.042969 256.300781 C 188.839844 256.449219 188.628906 256.59375 188.421875 256.742188 C 188.234375 256.875 188.042969 257.007812 187.851562 257.144531 C 187.722656 257.234375 187.597656 257.320312 187.46875 257.410156 C 187.363281 257.335938 187.257812 257.261719 187.148438 257.1875 C 186.777344 256.925781 186.410156 256.664062 186.042969 256.40625 C 185.675781 256.144531 185.308594 255.882812 184.945312 255.625 C 184.578125 255.363281 184.214844 255.105469 183.855469 254.847656 C 183.492188 254.585938 183.132812 254.324219 182.773438 254.066406 C 182.417969 253.804688 182.058594 253.546875 181.703125 253.289062 C 181.347656 253.03125 180.992188 252.769531 180.640625 252.511719 C 180.289062 252.253906 179.9375 251.992188 179.585938 251.734375 C 179.238281 251.480469 178.890625 251.222656 178.546875 250.964844 C 178.199219 250.707031 177.855469 250.445312 177.511719 250.1875 C 177.167969 249.929688 176.824219 249.675781 176.484375 249.414062 C 176.144531 249.160156 175.808594 248.902344 175.472656 248.644531 C 175.132812 248.390625 174.800781 248.132812 174.464844 247.875 C 174.132812 247.617188 173.796875 247.363281 173.46875 247.105469 C 173.132812 246.851562 172.808594 246.59375 172.480469 246.335938 C 172.152344 246.082031 171.828125 245.828125 171.503906 245.574219 C 171.179688 245.316406 170.855469 245.058594 170.53125 244.804688 C 170.210938 244.550781 169.890625 244.292969 169.574219 244.039062 C 169.257812 243.785156 168.9375 243.53125 168.628906 243.28125 C 168.308594 243.023438 167.992188 242.765625 167.679688 242.511719 C 167.367188 242.257812 167.058594 242.003906 166.75 241.75 C 166.441406 241.5 166.136719 241.246094 165.832031 240.996094 C 165.523438 240.738281 165.21875 240.484375 164.914062 240.226562 C 164.613281 239.976562 164.308594 239.722656 164.011719 239.472656 C 163.714844 239.222656 163.414062 238.96875 163.121094 238.71875 C 162.820312 238.460938 162.523438 238.210938 162.230469 237.953125 C 161.9375 237.707031 161.644531 237.457031 161.359375 237.207031 C 161.066406 236.953125 160.78125 236.703125 160.492188 236.449219 C 160.203125 236.195312 159.914062 235.945312 159.628906 235.691406 C 159.347656 235.445312 159.066406 235.195312 158.792969 234.949219 C 158.507812 234.695312 158.226562 234.445312 157.949219 234.191406 C 157.667969 233.941406 157.390625 233.6875 157.113281 233.4375 C 156.839844 233.191406 156.570312 232.945312 156.300781 232.699219 C 156.027344 232.445312 155.757812 232.195312 155.488281 231.941406 C 155.21875 231.691406 154.949219 231.441406 154.683594 231.191406 C 154.417969 230.945312 154.160156 230.699219 153.898438 230.453125 C 153.632812 230.203125 153.375 229.953125 153.113281 229.707031 C 152.851562 229.457031 152.589844 229.203125 152.332031 228.953125 C 152.078125 228.707031 151.828125 228.464844 151.582031 228.222656 C 151.324219 227.972656 151.070312 227.71875 150.816406 227.472656 C 151.304688 227.964844 151.796875 228.457031 152.296875 228.953125 C 152.785156 229.441406 153.277344 229.9375 153.777344 230.429688 C 154.261719 230.921875 154.757812 231.417969 155.257812 231.910156 C 155.746094 232.402344 156.238281 232.898438 156.742188 233.394531 C 157.226562 233.886719 157.71875 234.378906 158.21875 234.875 C 158.707031 235.367188 159.199219 235.859375 159.703125 236.355469 C 160.1875 236.847656 160.679688 237.339844 161.179688 237.832031 C 161.664062 238.324219 162.160156 238.820312 162.660156 239.3125 C 163.148438 239.804688 163.640625 240.300781 164.140625 240.796875 C 164.628906 241.285156 165.121094 241.78125 165.621094 242.273438 C 166.109375 242.765625 166.601562 243.261719 167.101562 243.757812 C 167.585938 244.246094 168.082031 244.738281 168.582031 245.234375 C 169.066406 245.726562 169.558594 246.21875 170.0625 246.714844 C 170.546875 247.207031 171.042969 247.703125 171.542969 248.199219 C 172.027344 248.691406 172.523438 249.183594 173.023438 249.675781 C 173.511719 250.167969 174.003906 250.664062 174.503906 251.160156 C 174.992188 251.648438 175.484375 252.144531 175.984375 252.636719 C 176.46875 253.128906 176.964844 253.621094 177.464844 254.117188 C 177.949219 254.609375 178.445312 255.105469 178.945312 255.597656 C 179.429688 256.089844 179.925781 256.582031 180.425781 257.078125 C 180.910156 257.570312 181.40625 258.0625 181.90625 258.558594 C 182.390625 259.050781 182.882812 259.542969 183.382812 260.039062 C 183.871094 260.53125 184.363281 261.023438 184.863281 261.519531 C 185.351562 262.011719 185.84375 262.503906 186.347656 263 C 186.832031 263.492188 187.324219 263.984375 187.828125 264.480469 C 188.3125 264.972656 188.808594 265.46875 189.308594 265.960938 C 189.792969 266.453125 190.285156 266.945312 190.785156 267.441406 C 191.273438 267.933594 191.765625 268.425781 192.265625 268.921875 C 192.753906 269.414062 193.25 269.90625 193.75 270.402344 C 194.234375 270.894531 194.726562 271.386719 195.226562 271.882812 C 195.714844 272.375 196.207031 272.867188 196.710938 273.363281 C 197.195312 273.855469 197.6875 274.347656 198.1875 274.839844 C 198.671875 275.332031 199.167969 275.828125 199.667969 276.324219 C 200.15625 276.816406 200.648438 277.308594 201.148438 277.804688 C 201.636719 278.296875 202.128906 278.789062 202.632812 279.28125 C 203.117188 279.773438 203.609375 280.269531 204.113281 280.765625 C 204.597656 281.257812 205.089844 281.75 205.589844 282.246094 C 206.078125 282.734375 206.570312 283.230469 207.070312 283.726562 C 207.558594 284.21875 208.050781 284.710938 208.550781 285.207031 C 209.039062 285.699219 209.53125 286.191406 210.03125 286.6875 C 210.519531 287.179688 211.011719 287.671875 211.511719 288.167969 C 212 288.660156 212.492188 289.152344 212.992188 289.644531 C 213.480469 290.136719 213.972656 290.632812 214.472656 291.125 C 214.960938 291.617188 215.453125 292.113281 215.953125 292.609375 C 216.4375 293.097656 216.929688 293.589844 217.429688 294.085938 C 217.917969 294.578125 218.414062 295.074219 218.917969 295.570312 C 219.402344 296.058594 219.894531 296.554688 220.394531 297.050781 C 220.882812 297.539062 221.375 298.035156 221.875 298.527344 C 222.363281 299.023438 222.855469 299.515625 223.355469 300.011719 C 223.84375 300.5 224.335938 300.992188 224.832031 301.488281 C 225.320312 301.980469 225.816406 302.476562 226.316406 302.972656 C 226.804688 303.460938 227.296875 303.957031 227.796875 304.449219 C 228.28125 304.941406 228.777344 305.433594 229.277344 305.929688 C 229.761719 306.421875 230.257812 306.917969 230.757812 307.410156 C 231.242188 307.902344 231.734375 308.394531 232.234375 308.890625 C 232.714844 309.375 233.203125 309.859375 233.695312 310.347656 C 233.703125 310.347656 233.710938 310.34375 233.71875 310.339844 C 233.734375 310.332031 233.753906 310.328125 233.769531 310.320312 C 233.792969 310.3125 233.820312 310.300781 233.847656 310.292969 C 233.878906 310.277344 233.914062 310.265625 233.945312 310.253906 C 233.988281 310.238281 234.035156 310.222656 234.078125 310.203125 C 234.132812 310.183594 234.183594 310.164062 234.234375 310.144531 C 234.296875 310.121094 234.359375 310.097656 234.421875 310.074219 C 234.492188 310.046875 234.566406 310.019531 234.636719 309.992188 C 234.71875 309.957031 234.800781 309.929688 234.886719 309.898438 C 234.976562 309.859375 235.074219 309.828125 235.164062 309.789062 C 235.265625 309.75 235.371094 309.710938 235.476562 309.671875 C 235.589844 309.625 235.703125 309.582031 235.820312 309.535156 C 235.945312 309.488281 236.070312 309.433594 236.195312 309.382812 C 236.332031 309.328125 236.46875 309.269531 236.605469 309.214844 C 236.753906 309.15625 236.902344 309.09375 237.054688 309.03125 C 237.21875 308.964844 237.378906 308.898438 237.542969 308.832031 C 237.71875 308.757812 237.894531 308.6875 238.070312 308.617188 C 238.261719 308.539062 238.453125 308.460938 238.640625 308.378906 C 238.847656 308.292969 239.046875 308.199219 239.25 308.113281 C 239.46875 308.019531 239.683594 307.925781 239.902344 307.828125 C 240.136719 307.726562 240.371094 307.625 240.605469 307.523438 C 240.855469 307.410156 241.109375 307.304688 241.355469 307.191406 C 241.625 307.070312 241.890625 306.945312 242.15625 306.824219 C 243.410156 306.25 244.652344 305.648438 245.886719 305.035156 C 245.90625 305.027344 245.921875 305.019531 245.9375 305.011719 C 246.304688 304.828125 246.675781 304.648438 247.042969 304.460938 C 247.4375 304.257812 247.828125 304.050781 248.222656 303.84375 C 248.640625 303.625 249.066406 303.40625 249.484375 303.179688 C 249.976562 302.917969 250.464844 302.644531 250.957031 302.375 C 251.449219 302.101562 251.945312 301.828125 252.4375 301.546875 C 252.933594 301.261719 253.425781 300.972656 253.917969 300.683594 C 254.464844 300.359375 255.019531 300.039062 255.5625 299.707031 C 256.179688 299.332031 256.789062 298.949219 257.398438 298.566406 C 258.074219 298.136719 258.75 297.699219 259.417969 297.261719 C 260.167969 296.769531 260.914062 296.273438 261.652344 295.765625 C 262.515625 295.171875 263.375 294.566406 264.226562 293.949219 C 265.289062 293.183594 266.339844 292.398438 267.378906 291.601562 C 268.914062 290.421875 270.417969 289.210938 271.898438 287.96875 C 275.574219 284.878906 279.078125 281.59375 282.394531 278.125 C 283.621094 276.839844 284.816406 275.527344 285.992188 274.191406 C 286.742188 273.34375 287.484375 272.480469 288.210938 271.609375 C 288.765625 270.949219 289.304688 270.285156 289.84375 269.617188 C 290.296875 269.054688 290.746094 268.488281 291.1875 267.917969 C 291.59375 267.398438 291.996094 266.875 292.394531 266.34375 C 292.753906 265.867188 293.105469 265.382812 293.460938 264.902344 C 293.78125 264.460938 294.105469 264.023438 294.421875 263.582031 C 294.703125 263.1875 294.976562 262.789062 295.253906 262.390625 C 295.5 262.039062 295.746094 261.683594 295.988281 261.332031 C 296.199219 261.019531 296.40625 260.710938 296.617188 260.398438 C 296.792969 260.136719 296.96875 259.867188 297.144531 259.597656 C 297.289062 259.375 297.441406 259.152344 297.589844 258.925781 C 297.707031 258.742188 297.832031 258.558594 297.949219 258.375 C 298.042969 258.230469 298.132812 258.085938 298.226562 257.941406 C 298.292969 257.832031 298.359375 257.722656 298.429688 257.613281 C 298.476562 257.539062 298.519531 257.464844 298.570312 257.390625 C 298.59375 257.347656 298.621094 257.304688 298.652344 257.257812 C 298.660156 257.242188 298.671875 257.226562 298.683594 257.207031 C 300.300781 254.628906 301.835938 251.992188 303.277344 249.296875 C 304.132812 247.699219 304.960938 246.085938 305.75 244.449219 C 306.3125 243.285156 306.855469 242.105469 307.382812 240.921875 C 307.808594 239.96875 308.222656 239.015625 308.625 238.050781 C 308.964844 237.234375 309.304688 236.414062 309.628906 235.589844 C 309.910156 234.875 310.183594 234.148438 310.449219 233.425781 C 310.695312 232.777344 310.933594 232.121094 311.167969 231.464844 C 311.378906 230.863281 311.597656 230.261719 311.800781 229.660156 C 311.992188 229.101562 312.167969 228.539062 312.351562 227.980469 C 312.519531 227.449219 312.695312 226.925781 312.859375 226.390625 C 313.015625 225.894531 313.160156 225.394531 313.308594 224.890625 C 313.449219 224.417969 313.597656 223.941406 313.734375 223.460938 C 313.863281 223.003906 313.980469 222.542969 314.105469 222.082031 C 314.226562 221.640625 314.351562 221.199219 314.46875 220.753906 C 314.574219 220.34375 314.675781 219.929688 314.78125 219.519531 C 314.875 219.144531 314.964844 218.769531 315.058594 218.394531 C 315.136719 218.054688 315.222656 217.71875 315.304688 217.382812 C 315.371094 217.082031 315.4375 216.78125 315.507812 216.480469 C 315.566406 216.214844 315.621094 215.941406 315.683594 215.675781 C 315.730469 215.445312 315.78125 215.210938 315.832031 214.980469 C 315.875 214.785156 315.917969 214.589844 315.960938 214.394531 C 315.992188 214.234375 316.03125 214.074219 316.0625 213.914062 C 316.089844 213.789062 316.109375 213.667969 316.136719 213.542969 C 316.152344 213.464844 316.167969 213.382812 316.183594 213.300781 C 316.1875 213.261719 316.195312 213.222656 316.207031 213.183594 C 316.140625 213.117188 316.070312 213.058594 316.007812 212.996094 C 315.523438 212.480469 315.027344 211.992188 314.527344 211.515625 " fill-opacity="1" fill-rule="nonzero"/></svg>