<svg xmlns="http://www.w3.org/2000/svg" xmlns:xlink="http://www.w3.org/1999/xlink" width="500" zoomAndPan="magnify" viewBox="0 0 375 374.999991" height="500" preserveAspectRatio="xMidYMid meet" version="1.0"><defs><clipPath id="3ca55d5c24"><path d="M 56.226562 56.226562 L 318.726562 56.226562 L 318.726562 318.726562 L 56.226562 318.726562 Z M 56.226562 56.226562 " clip-rule="nonzero"/></clipPath></defs><g clip-path="url(#3ca55d5c24)"><path fill="#1877f2" d="M 318.761719 187.496094 C 318.761719 189.644531 318.710938 191.789062 318.605469 193.9375 C 318.5 196.082031 318.339844 198.222656 318.128906 200.363281 C 317.921875 202.5 317.65625 204.632812 317.34375 206.757812 C 317.027344 208.882812 316.660156 210.996094 316.242188 213.105469 C 315.820312 215.210938 315.351562 217.308594 314.828125 219.390625 C 314.308594 221.476562 313.734375 223.542969 313.109375 225.601562 C 312.488281 227.65625 311.8125 229.695312 311.089844 231.71875 C 310.367188 233.742188 309.59375 235.746094 308.769531 237.730469 C 307.949219 239.714844 307.078125 241.675781 306.160156 243.621094 C 305.242188 245.5625 304.277344 247.480469 303.261719 249.375 C 302.25 251.269531 301.191406 253.136719 300.085938 254.980469 C 298.984375 256.824219 297.832031 258.636719 296.640625 260.421875 C 295.445312 262.210938 294.210938 263.964844 292.929688 265.691406 C 291.652344 267.417969 290.328125 269.109375 288.964844 270.769531 C 287.605469 272.429688 286.199219 274.058594 284.757812 275.648438 C 283.316406 277.242188 281.835938 278.796875 280.316406 280.316406 C 278.796875 281.835938 277.242188 283.316406 275.648438 284.757812 C 274.058594 286.199219 272.429688 287.605469 270.769531 288.964844 C 269.109375 290.328125 267.417969 291.652344 265.691406 292.929688 C 263.964844 294.210938 262.210938 295.445312 260.421875 296.640625 C 258.636719 297.832031 256.824219 298.984375 254.980469 300.085938 C 253.136719 301.191406 251.269531 302.25 249.375 303.261719 C 247.480469 304.277344 245.5625 305.242188 243.621094 306.160156 C 241.675781 307.078125 239.714844 307.949219 237.730469 308.769531 C 235.746094 309.59375 233.742188 310.367188 231.71875 311.089844 C 229.695312 311.8125 227.65625 312.488281 225.601562 313.109375 C 223.542969 313.734375 221.476562 314.308594 219.390625 314.828125 C 217.308594 315.351562 215.210938 315.820312 213.105469 316.242188 C 210.996094 316.660156 208.882812 317.027344 206.757812 317.34375 C 204.632812 317.65625 202.5 317.921875 200.363281 318.128906 C 198.222656 318.339844 196.082031 318.5 193.9375 318.605469 C 191.789062 318.710938 189.644531 318.761719 187.496094 318.761719 C 185.347656 318.761719 183.199219 318.710938 181.054688 318.605469 C 178.910156 318.5 176.765625 318.339844 174.628906 318.128906 C 172.492188 317.921875 170.359375 317.65625 168.234375 317.34375 C 166.109375 317.027344 163.992188 316.660156 161.886719 316.242188 C 159.78125 315.820312 157.683594 315.351562 155.601562 314.828125 C 153.515625 314.308594 151.445312 313.734375 149.390625 313.109375 C 147.335938 312.488281 145.296875 311.8125 143.273438 311.089844 C 141.25 310.367188 139.246094 309.59375 137.261719 308.769531 C 135.277344 307.949219 133.3125 307.078125 131.371094 306.160156 C 129.429688 305.242188 127.511719 304.277344 125.617188 303.261719 C 123.722656 302.25 121.851562 301.191406 120.011719 300.085938 C 118.167969 298.984375 116.351562 297.832031 114.566406 296.640625 C 112.78125 295.445312 111.023438 294.210938 109.300781 292.929688 C 107.574219 291.652344 105.878906 290.328125 104.21875 288.964844 C 102.558594 287.605469 100.933594 286.199219 99.339844 284.757812 C 97.75 283.316406 96.195312 281.835938 94.675781 280.316406 C 93.15625 278.796875 91.675781 277.242188 90.234375 275.648438 C 88.789062 274.058594 87.386719 272.429688 86.023438 270.769531 C 84.660156 269.109375 83.339844 267.417969 82.058594 265.691406 C 80.78125 263.964844 79.542969 262.210938 78.351562 260.421875 C 77.15625 258.636719 76.007812 256.824219 74.902344 254.980469 C 73.800781 253.136719 72.742188 251.269531 71.726562 249.375 C 70.714844 247.480469 69.75 245.5625 68.832031 243.621094 C 67.914062 241.675781 67.042969 239.714844 66.21875 237.730469 C 65.398438 235.746094 64.625 233.742188 63.902344 231.71875 C 63.175781 229.695312 62.503906 227.65625 61.878906 225.601562 C 61.257812 223.542969 60.683594 221.476562 60.160156 219.390625 C 59.640625 217.308594 59.167969 215.210938 58.75 213.105469 C 58.332031 210.996094 57.964844 208.882812 57.648438 206.757812 C 57.332031 204.632812 57.070312 202.5 56.859375 200.363281 C 56.648438 198.222656 56.492188 196.082031 56.386719 193.9375 C 56.28125 191.789062 56.226562 189.644531 56.226562 187.496094 C 56.226562 185.347656 56.28125 183.199219 56.386719 181.054688 C 56.492188 178.910156 56.648438 176.765625 56.859375 174.628906 C 57.070312 172.492188 57.332031 170.359375 57.648438 168.234375 C 57.964844 166.109375 58.332031 163.992188 58.75 161.886719 C 59.167969 159.78125 59.640625 157.683594 60.160156 155.601562 C 60.683594 153.515625 61.257812 151.445312 61.878906 149.390625 C 62.503906 147.335938 63.175781 145.296875 63.902344 143.273438 C 64.625 141.25 65.398438 139.246094 66.21875 137.261719 C 67.042969 135.277344 67.914062 133.3125 68.832031 131.371094 C 69.75 129.429688 70.714844 127.511719 71.726562 125.617188 C 72.742188 123.722656 73.800781 121.851562 74.902344 120.011719 C 76.007812 118.167969 77.15625 116.351562 78.351562 114.566406 C 79.542969 112.78125 80.78125 111.023438 82.058594 109.300781 C 83.339844 107.574219 84.660156 105.878906 86.023438 104.21875 C 87.386719 102.558594 88.789062 100.933594 90.234375 99.339844 C 91.675781 97.75 93.15625 96.195312 94.675781 94.675781 C 96.195312 93.15625 97.75 91.675781 99.339844 90.234375 C 100.933594 88.789062 102.558594 87.386719 104.21875 86.023438 C 105.878906 84.660156 107.574219 83.339844 109.300781 82.058594 C 111.023438 80.78125 112.78125 79.542969 114.566406 78.351562 C 116.351562 77.15625 118.167969 76.007812 120.011719 74.902344 C 121.851562 73.800781 123.722656 72.742188 125.617188 71.726562 C 127.511719 70.714844 129.429688 69.75 131.371094 68.832031 C 133.3125 67.914062 135.277344 67.042969 137.261719 66.21875 C 139.246094 65.398438 141.25 64.625 143.273438 63.902344 C 145.296875 63.175781 147.335938 62.503906 149.390625 61.878906 C 151.445312 61.257812 153.515625 60.683594 155.601562 60.160156 C 157.683594 59.640625 159.78125 59.167969 161.886719 58.75 C 163.992188 58.332031 166.109375 57.964844 168.234375 57.648438 C 170.359375 57.332031 172.492188 57.070312 174.628906 56.859375 C 176.765625 56.648438 178.910156 56.492188 181.054688 56.386719 C 183.199219 56.28125 185.347656 56.226562 187.496094 56.226562 C 189.644531 56.226562 191.789062 56.28125 193.9375 56.386719 C 196.082031 56.492188 198.222656 56.648438 200.363281 56.859375 C 202.5 57.070312 204.632812 57.332031 206.757812 57.648438 C 208.882812 57.964844 210.996094 58.332031 213.105469 58.75 C 215.210938 59.167969 217.308594 59.640625 219.390625 60.160156 C 221.476562 60.683594 223.542969 61.257812 225.601562 61.878906 C 227.65625 62.503906 229.695312 63.175781 231.71875 63.902344 C 233.742188 64.625 235.746094 65.398438 237.730469 66.21875 C 239.714844 67.042969 241.675781 67.914062 243.621094 68.832031 C 245.5625 69.75 247.480469 70.714844 249.375 71.726562 C 251.269531 72.742188 253.136719 73.800781 254.980469 74.902344 C 256.824219 76.007812 258.636719 77.15625 260.421875 78.351562 C 262.210938 79.542969 263.964844 80.78125 265.691406 82.058594 C 267.417969 83.339844 269.109375 84.660156 270.769531 86.023438 C 272.429688 87.386719 274.058594 88.789062 275.648438 90.234375 C 277.242188 91.675781 278.796875 93.15625 280.316406 94.675781 C 281.835938 96.195312 283.316406 97.75 284.757812 99.339844 C 286.199219 100.933594 287.605469 102.558594 288.964844 104.21875 C 290.328125 105.878906 291.652344 107.574219 292.929688 109.300781 C 294.210938 111.023438 295.445312 112.78125 296.640625 114.566406 C 297.832031 116.351562 298.984375 118.167969 300.085938 120.011719 C 301.191406 121.851562 302.25 123.722656 303.261719 125.617188 C 304.277344 127.511719 305.242188 129.429688 306.160156 131.371094 C 307.078125 133.3125 307.949219 135.277344 308.769531 137.261719 C 309.59375 139.246094 310.367188 141.25 311.089844 143.273438 C 311.8125 145.296875 312.488281 147.335938 313.109375 149.390625 C 313.734375 151.445312 314.308594 153.515625 314.828125 155.601562 C 315.351562 157.683594 315.820312 159.78125 316.242188 161.886719 C 316.660156 163.992188 317.027344 166.109375 317.34375 168.234375 C 317.65625 170.359375 317.921875 172.492188 318.128906 174.628906 C 318.339844 176.765625 318.5 178.910156 318.605469 181.054688 C 318.710938 183.199219 318.761719 185.347656 318.761719 187.496094 Z M 318.761719 187.496094 " fill-opacity="1" fill-rule="nonzero"/></g><path fill="#ffffff" d="M 218.4375 265.402344 L 156.460938 265.402344 C 147.847656 265.402344 140.15625 260.214844 137.839844 252.710938 C 137.65625 252.15625 137.75 251.507812 138.121094 251.042969 C 138.488281 250.582031 138.953125 250.304688 139.601562 250.304688 C 154.054688 250.027344 165.816406 237.984375 165.816406 223.4375 C 165.816406 208.710938 153.773438 196.667969 138.953125 196.667969 C 137.933594 196.667969 137.101562 195.832031 137.101562 194.8125 L 137.101562 173.042969 C 137.101562 172.023438 137.933594 171.191406 138.953125 171.191406 C 153.773438 171.191406 165.816406 159.148438 165.816406 144.328125 C 165.816406 131.265625 156.460938 120.148438 143.679688 117.925781 C 142.9375 117.738281 142.378906 117.277344 142.195312 116.535156 C 142.011719 115.886719 142.195312 115.144531 142.75 114.683594 C 146.363281 111.347656 151.273438 109.496094 156.460938 109.496094 L 218.4375 109.496094 C 223.625 109.496094 228.535156 111.347656 232.238281 114.683594 C 232.703125 115.144531 232.886719 115.886719 232.703125 116.535156 C 232.515625 117.277344 231.960938 117.738281 231.3125 117.925781 C 218.4375 120.148438 209.078125 131.265625 209.078125 144.328125 C 209.078125 159.148438 221.121094 171.191406 235.945312 171.191406 C 236.964844 171.191406 237.796875 172.023438 237.796875 173.042969 L 237.796875 194.8125 C 237.796875 195.277344 237.613281 195.738281 237.242188 196.109375 C 236.871094 196.386719 236.40625 196.667969 235.945312 196.667969 C 221.121094 196.667969 209.078125 208.710938 209.078125 223.4375 C 209.078125 223.714844 209.078125 223.902344 209.078125 224.179688 C 209.078125 224.363281 209.078125 224.644531 209.171875 224.828125 C 209.171875 225.105469 209.171875 225.292969 209.171875 225.476562 L 209.171875 225.847656 C 209.171875 225.941406 209.265625 226.125 209.265625 226.21875 L 209.359375 226.867188 C 209.359375 226.960938 209.359375 227.050781 209.359375 227.238281 L 209.359375 227.515625 C 209.449219 227.609375 209.449219 227.699219 209.449219 227.886719 L 209.542969 228.164062 C 209.542969 228.257812 209.542969 228.347656 209.542969 228.535156 L 209.636719 228.8125 C 209.636719 228.90625 209.636719 228.996094 209.726562 229.089844 L 209.820312 229.460938 C 209.820312 229.554688 209.820312 229.644531 209.820312 229.738281 L 209.914062 230.109375 C 210.007812 230.203125 210.007812 230.386719 210.007812 230.480469 L 210.097656 230.757812 C 210.097656 230.851562 210.191406 230.941406 210.191406 231.035156 L 210.191406 231.128906 C 210.285156 231.21875 210.285156 231.3125 210.285156 231.40625 L 210.375 231.777344 C 210.46875 231.867188 210.46875 231.960938 210.46875 232.054688 C 210.5625 232.054688 210.5625 232.148438 210.5625 232.238281 L 210.65625 232.425781 C 210.65625 232.425781 210.65625 232.515625 210.746094 232.609375 C 210.746094 232.703125 210.839844 232.886719 210.839844 232.980469 L 210.933594 233.257812 C 210.933594 233.351562 211.023438 233.445312 211.023438 233.535156 L 211.210938 233.8125 C 211.210938 233.90625 211.304688 234.09375 211.304688 234.183594 L 211.488281 234.460938 C 211.488281 234.554688 211.488281 234.648438 211.582031 234.742188 L 211.582031 234.832031 C 211.671875 234.832031 211.671875 234.925781 211.671875 235.019531 C 211.765625 235.109375 211.765625 235.203125 211.859375 235.203125 L 211.859375 235.390625 C 211.953125 235.480469 211.953125 235.480469 211.953125 235.574219 L 212.320312 236.222656 C 212.320312 236.316406 212.414062 236.40625 212.507812 236.5 L 212.601562 236.777344 C 212.691406 236.871094 212.691406 236.964844 212.785156 237.054688 L 212.972656 237.335938 C 212.972656 237.425781 213.0625 237.519531 213.15625 237.613281 L 213.25 237.890625 C 213.339844 237.890625 213.339844 237.984375 213.433594 238.074219 L 213.621094 238.351562 C 213.710938 238.445312 213.710938 238.539062 213.804688 238.632812 L 213.988281 238.910156 C 214.082031 239 214.082031 239.09375 214.175781 239.1875 L 214.359375 239.464844 C 214.453125 239.464844 214.453125 239.558594 214.546875 239.648438 L 215.195312 240.390625 C 215.195312 240.484375 215.285156 240.578125 215.378906 240.761719 L 215.566406 240.949219 C 215.65625 241.039062 215.75 241.132812 215.84375 241.226562 L 215.933594 241.410156 C 216.027344 241.503906 216.121094 241.597656 216.214844 241.6875 L 216.398438 241.875 C 216.492188 241.964844 216.582031 242.058594 216.675781 242.152344 L 216.863281 242.335938 C 216.953125 242.429688 217.046875 242.523438 217.140625 242.613281 L 217.324219 242.800781 C 217.417969 242.894531 217.511719 242.984375 217.601562 243.078125 L 217.789062 243.171875 C 217.878906 243.261719 217.972656 243.355469 218.066406 243.449219 L 218.25 243.632812 C 218.34375 243.726562 218.4375 243.820312 218.527344 243.910156 L 218.714844 244.003906 C 218.808594 244.097656 218.898438 244.191406 218.992188 244.28125 L 219.175781 244.46875 C 219.363281 244.558594 219.457031 244.652344 219.546875 244.746094 L 219.734375 244.839844 C 219.824219 244.929688 219.917969 245.023438 220.011719 245.117188 L 220.195312 245.207031 C 220.382812 245.300781 220.472656 245.394531 220.566406 245.488281 L 220.753906 245.578125 C 220.84375 245.671875 220.9375 245.765625 221.121094 245.855469 L 221.308594 245.949219 C 221.402344 246.042969 221.492188 246.136719 221.679688 246.136719 L 221.769531 246.320312 C 221.957031 246.320312 222.050781 246.414062 222.234375 246.503906 L 222.328125 246.597656 C 222.511719 246.691406 222.605469 246.785156 222.789062 246.875 L 222.882812 246.96875 C 223.066406 246.96875 223.160156 247.0625 223.347656 247.152344 L 223.4375 247.246094 C 223.625 247.339844 223.714844 247.339844 223.902344 247.433594 L 223.996094 247.523438 C 224.179688 247.617188 224.363281 247.617188 224.457031 247.710938 L 224.644531 247.800781 C 224.734375 247.894531 224.921875 247.894531 225.105469 247.988281 L 225.199219 248.082031 C 225.382812 248.082031 225.476562 248.171875 225.660156 248.265625 L 225.753906 248.265625 C 225.941406 248.359375 226.125 248.449219 226.308594 248.542969 L 226.402344 248.542969 C 226.496094 248.636719 226.679688 248.636719 226.867188 248.730469 L 226.960938 248.730469 C 227.144531 248.820312 227.328125 248.914062 227.515625 248.914062 L 227.609375 249.007812 C 227.792969 249.007812 227.976562 249.097656 228.164062 249.097656 L 228.164062 249.191406 C 228.347656 249.191406 228.535156 249.285156 228.71875 249.285156 L 228.8125 249.378906 C 228.996094 249.378906 229.183594 249.46875 229.367188 249.46875 L 229.460938 249.46875 C 229.644531 249.5625 229.832031 249.5625 230.015625 249.65625 L 230.109375 249.65625 C 230.292969 249.746094 230.480469 249.746094 230.664062 249.746094 C 230.941406 249.839844 231.128906 249.839844 231.3125 249.933594 C 231.589844 249.933594 231.777344 249.933594 231.960938 250.027344 L 232.054688 250.027344 C 232.515625 250.117188 232.886719 250.117188 233.351562 250.210938 C 233.535156 250.210938 233.722656 250.210938 234 250.210938 C 234.460938 250.304688 234.925781 250.304688 235.390625 250.304688 C 235.945312 250.304688 236.5 250.582031 236.777344 251.042969 C 237.148438 251.507812 237.242188 252.15625 237.054688 252.710938 C 234.742188 260.214844 227.050781 265.402344 218.4375 265.402344 Z M 142.289062 253.824219 C 144.882812 258.546875 150.347656 261.699219 156.460938 261.699219 L 218.4375 261.699219 C 224.550781 261.699219 230.109375 258.546875 232.609375 253.824219 C 232.238281 253.824219 231.867188 253.730469 231.5 253.636719 L 231.40625 253.636719 C 231.21875 253.636719 230.941406 253.636719 230.757812 253.546875 C 230.480469 253.546875 230.203125 253.453125 230.015625 253.453125 C 229.738281 253.359375 229.554688 253.359375 229.273438 253.269531 L 229.183594 253.269531 C 228.996094 253.175781 228.8125 253.175781 228.535156 253.082031 C 228.257812 252.988281 228.070312 252.988281 227.886719 252.898438 L 227.792969 252.898438 C 227.515625 252.804688 227.328125 252.804688 227.144531 252.710938 L 227.050781 252.710938 C 226.867188 252.621094 226.679688 252.527344 226.496094 252.527344 L 226.308594 252.433594 C 226.125 252.433594 225.941406 252.339844 225.753906 252.25 L 225.660156 252.25 C 225.382812 252.15625 225.199219 252.0625 225.011719 251.972656 L 224.921875 251.972656 C 224.734375 251.878906 224.550781 251.785156 224.363281 251.691406 L 224.273438 251.691406 C 224.085938 251.601562 223.902344 251.507812 223.714844 251.414062 L 223.625 251.414062 C 223.4375 251.324219 223.253906 251.230469 223.066406 251.136719 L 222.882812 251.042969 C 222.699219 251.042969 222.511719 250.953125 222.417969 250.859375 L 222.234375 250.765625 C 222.050781 250.675781 221.957031 250.582031 221.769531 250.488281 L 221.585938 250.394531 C 221.402344 250.304688 221.214844 250.210938 221.121094 250.117188 L 220.9375 250.027344 C 220.753906 249.933594 220.660156 249.933594 220.472656 249.839844 L 220.289062 249.65625 C 220.195312 249.5625 220.011719 249.5625 219.824219 249.46875 L 219.640625 249.285156 C 219.546875 249.191406 219.363281 249.097656 219.269531 249.007812 L 219.085938 248.914062 C 218.898438 248.820312 218.808594 248.730469 218.621094 248.636719 L 218.4375 248.542969 C 218.34375 248.449219 218.160156 248.265625 218.066406 248.171875 L 217.878906 248.082031 C 217.695312 247.988281 217.601562 247.894531 217.511719 247.800781 L 217.324219 247.617188 C 217.140625 247.523438 217.046875 247.433594 216.863281 247.339844 L 216.675781 247.152344 C 216.582031 247.0625 216.492188 246.96875 216.304688 246.875 L 216.121094 246.691406 C 216.027344 246.597656 215.933594 246.503906 215.75 246.414062 L 215.566406 246.226562 C 215.472656 246.136719 215.378906 246.042969 215.285156 245.949219 L 215.007812 245.765625 C 214.917969 245.671875 214.824219 245.488281 214.730469 245.394531 L 214.546875 245.300781 C 214.453125 245.117188 214.269531 245.023438 214.175781 244.929688 L 213.988281 244.746094 C 213.898438 244.652344 213.804688 244.46875 213.710938 244.375 L 213.527344 244.191406 C 213.433594 244.097656 213.339844 244.003906 213.25 243.820312 L 213.0625 243.632812 C 212.972656 243.542969 212.785156 243.449219 212.691406 243.355469 L 212.601562 243.078125 C 212.414062 242.984375 212.320312 242.894531 212.230469 242.800781 L 211.671875 241.964844 C 211.671875 241.964844 211.582031 241.964844 211.582031 241.964844 C 211.488281 241.78125 211.488281 241.6875 211.394531 241.597656 L 211.210938 241.410156 C 211.117188 241.226562 211.023438 241.132812 210.933594 241.039062 L 210.746094 240.667969 C 210.65625 240.578125 210.5625 240.484375 210.5625 240.390625 L 210.375 240.113281 C 210.285156 240.019531 210.191406 239.929688 210.097656 239.835938 L 210.007812 239.558594 C 209.914062 239.464844 209.820312 239.28125 209.726562 239.1875 L 209.636719 238.910156 C 209.542969 238.816406 209.449219 238.722656 209.359375 238.539062 L 209.265625 238.261719 C 209.171875 238.167969 209.078125 238.074219 208.988281 237.890625 L 208.710938 237.335938 C 208.617188 237.148438 208.617188 237.054688 208.523438 236.964844 L 208.523438 236.871094 C 208.429688 236.777344 208.429688 236.6875 208.339844 236.59375 C 208.339844 236.5 208.246094 236.40625 208.246094 236.316406 C 208.152344 236.128906 208.152344 236.039062 208.0625 235.945312 L 207.96875 235.667969 C 207.875 235.480469 207.78125 235.390625 207.78125 235.296875 L 207.597656 234.925781 C 207.597656 234.832031 207.503906 234.648438 207.503906 234.554688 L 207.414062 234.277344 C 207.320312 234.183594 207.226562 234 207.226562 233.90625 C 207.226562 233.8125 207.132812 233.722656 207.132812 233.628906 L 207.042969 233.445312 C 207.042969 233.351562 207.042969 233.257812 206.949219 233.164062 C 206.949219 233.074219 206.949219 232.980469 206.855469 232.886719 L 206.765625 232.515625 C 206.765625 232.425781 206.671875 232.332031 206.671875 232.238281 L 206.671875 232.148438 C 206.578125 231.960938 206.578125 231.867188 206.578125 231.777344 C 206.484375 231.683594 206.484375 231.589844 206.484375 231.5 L 206.484375 231.40625 C 206.394531 231.3125 206.394531 231.128906 206.300781 231.035156 L 206.207031 230.664062 C 206.207031 230.570312 206.207031 230.386719 206.207031 230.292969 L 206.117188 229.921875 C 206.023438 229.832031 206.023438 229.644531 206.023438 229.554688 C 206.023438 229.460938 206.023438 229.460938 205.929688 229.367188 L 205.929688 229.183594 C 205.929688 229.089844 205.929688 228.90625 205.835938 228.8125 L 205.835938 228.441406 C 205.746094 228.347656 205.746094 228.164062 205.746094 228.070312 C 205.746094 227.976562 205.746094 227.976562 205.746094 227.886719 L 205.746094 227.792969 C 205.652344 227.609375 205.652344 227.421875 205.652344 227.328125 C 205.652344 227.238281 205.652344 227.144531 205.558594 227.050781 L 205.558594 226.867188 C 205.558594 226.773438 205.558594 226.679688 205.558594 226.589844 C 205.558594 226.402344 205.558594 226.308594 205.558594 226.125 L 205.46875 225.847656 C 205.46875 225.847656 205.46875 225.753906 205.46875 225.753906 C 205.46875 225.570312 205.46875 225.292969 205.46875 225.011719 C 205.46875 224.734375 205.375 224.457031 205.375 224.273438 C 205.375 223.996094 205.375 223.714844 205.375 223.4375 C 205.375 207.226562 218.066406 193.980469 234.09375 192.960938 L 234.09375 174.804688 C 218.066406 173.878906 205.375 160.539062 205.375 144.328125 C 205.375 130.894531 214.082031 119.222656 226.589844 115.238281 C 224.179688 113.941406 221.402344 113.199219 218.4375 113.199219 L 156.460938 113.199219 C 153.589844 113.199219 150.8125 113.941406 148.308594 115.238281 C 160.816406 119.222656 169.523438 130.894531 169.523438 144.328125 C 169.523438 160.539062 156.832031 173.878906 140.804688 174.804688 L 140.804688 192.960938 C 156.832031 193.980469 169.523438 207.226562 169.523438 223.4375 C 169.523438 231.5 166.464844 239.09375 160.816406 244.839844 C 155.8125 249.933594 149.328125 253.082031 142.289062 253.824219 Z M 142.289062 253.824219 " fill-opacity="1" fill-rule="evenodd"/><path fill="#ffffff" d="M 218.4375 265.402344 L 156.460938 265.402344 C 147.847656 265.402344 140.15625 260.214844 137.839844 252.710938 C 137.65625 252.15625 137.75 251.507812 138.121094 251.042969 C 138.488281 250.582031 138.953125 250.304688 139.601562 250.304688 C 146.734375 250.117188 153.40625 247.246094 158.40625 242.058594 C 158.683594 241.6875 159.148438 241.503906 159.703125 241.503906 L 215.195312 241.503906 C 215.75 241.503906 216.214844 241.6875 216.582031 242.058594 C 221.492188 247.246094 228.164062 250.117188 235.390625 250.304688 C 235.945312 250.304688 236.5 250.582031 236.777344 251.042969 C 237.148438 251.507812 237.242188 252.15625 237.054688 252.710938 C 234.742188 260.214844 227.050781 265.402344 218.4375 265.402344 Z M 142.289062 253.824219 C 144.882812 258.546875 150.347656 261.699219 156.460938 261.699219 L 218.4375 261.699219 C 224.550781 261.699219 230.109375 258.546875 232.609375 253.824219 C 225.753906 253.082031 219.363281 250.027344 214.453125 245.207031 L 160.445312 245.207031 C 155.535156 250.027344 149.144531 253.082031 142.289062 253.824219 Z M 142.289062 253.824219 " fill-opacity="1" fill-rule="evenodd"/><path fill="#ffffff" d="M 207.691406 125.984375 L 167.300781 125.984375 C 163.316406 125.984375 160.167969 123.019531 160.167969 119.5 L 160.167969 111.347656 C 160.167969 110.328125 161 109.496094 162.019531 109.496094 L 212.878906 109.496094 C 213.433594 109.496094 213.898438 109.679688 214.175781 110.050781 C 214.546875 110.421875 214.730469 110.882812 214.730469 111.347656 L 214.730469 119.5 C 214.730469 123.019531 211.582031 125.984375 207.691406 125.984375 Z M 163.871094 113.199219 L 163.871094 119.5 C 163.871094 120.980469 165.449219 122.277344 167.300781 122.277344 L 207.691406 122.277344 C 209.542969 122.277344 211.023438 120.980469 211.023438 119.5 L 211.023438 113.199219 Z M 163.871094 113.199219 " fill-opacity="1" fill-rule="evenodd"/><path fill="#ffffff" d="M 200.09375 119.59375 L 174.804688 119.59375 C 173.785156 119.59375 172.953125 118.757812 172.953125 117.738281 C 172.953125 116.71875 173.785156 115.886719 174.804688 115.886719 L 200.09375 115.886719 C 201.113281 115.886719 201.945312 116.71875 201.945312 117.738281 C 201.945312 118.757812 201.113281 119.59375 200.09375 119.59375 Z M 200.09375 119.59375 " fill-opacity="1" fill-rule="evenodd"/><path fill="#ffffff" d="M 196.757812 255.304688 L 178.230469 255.304688 C 177.121094 255.304688 176.378906 254.472656 176.378906 253.453125 C 176.378906 252.433594 177.121094 251.601562 178.230469 251.601562 L 196.757812 251.601562 C 197.777344 251.601562 198.613281 252.433594 198.613281 253.453125 C 198.613281 254.472656 197.777344 255.304688 196.757812 255.304688 Z M 196.757812 255.304688 " fill-opacity="1" fill-rule="evenodd"/><path fill="#ffffff" d="M 190.921875 199.910156 C 188.421875 199.910156 186.105469 198.613281 184.902344 196.480469 C 184.34375 195.554688 184.625 194.441406 185.550781 193.980469 C 186.382812 193.425781 187.496094 193.703125 188.050781 194.628906 C 188.605469 195.648438 189.71875 196.203125 190.921875 196.203125 C 192.683594 196.203125 194.164062 194.722656 194.164062 192.960938 C 194.164062 191.109375 192.589844 189.71875 191.199219 189.71875 C 187.679688 189.71875 184.625 186.476562 184.625 182.679688 C 184.625 178.878906 187.773438 175.730469 191.570312 175.730469 C 194.074219 175.730469 196.386719 177.027344 197.59375 179.15625 C 198.148438 180.085938 197.871094 181.195312 196.945312 181.660156 C 196.109375 182.214844 194.90625 181.9375 194.441406 181.011719 C 193.792969 179.992188 192.777344 179.4375 191.570312 179.4375 C 189.8125 179.4375 188.328125 180.917969 188.328125 182.679688 C 188.328125 184.53125 189.8125 186.011719 191.199219 186.011719 C 194.8125 186.011719 197.871094 189.164062 197.871094 192.960938 C 197.871094 196.851562 194.722656 199.910156 190.921875 199.910156 Z M 190.921875 199.910156 " fill-opacity="1" fill-rule="evenodd"/><path fill="#ffffff" d="M 191.199219 203.800781 C 190.183594 203.800781 189.347656 202.964844 189.347656 201.945312 L 189.347656 198.054688 C 189.347656 197.035156 190.183594 196.203125 191.199219 196.203125 C 192.21875 196.203125 193.054688 197.035156 193.054688 198.054688 L 193.054688 201.945312 C 193.054688 202.964844 192.21875 203.800781 191.199219 203.800781 Z M 191.199219 203.800781 " fill-opacity="1" fill-rule="evenodd"/><path fill="#ffffff" d="M 191.199219 179.4375 C 190.183594 179.4375 189.347656 178.601562 189.347656 177.582031 L 189.347656 173.785156 C 189.347656 172.765625 190.183594 171.933594 191.199219 171.933594 C 192.21875 171.933594 193.054688 172.765625 193.054688 173.785156 L 193.054688 177.582031 C 193.054688 178.601562 192.21875 179.4375 191.199219 179.4375 Z M 191.199219 179.4375 " fill-opacity="1" fill-rule="evenodd"/><path fill="#ffffff" d="M 190.273438 212.136719 C 188.605469 212.136719 186.847656 211.953125 185.179688 211.582031 C 184.992188 211.582031 184.808594 211.488281 184.625 211.488281 C 183.605469 211.210938 183.046875 210.191406 183.234375 209.265625 C 183.511719 208.246094 184.53125 207.597656 185.457031 207.875 C 185.644531 207.875 185.828125 207.96875 186.011719 207.96875 C 191.292969 209.078125 196.757812 208.0625 201.296875 205.097656 C 205.835938 202.132812 208.988281 197.59375 210.097656 192.3125 C 212.414062 181.289062 205.46875 170.449219 194.441406 168.132812 C 189.164062 167.023438 183.695312 168.042969 179.15625 171.003906 C 174.527344 173.96875 171.375 178.507812 170.265625 183.789062 C 170.265625 184.066406 170.171875 184.253906 170.171875 184.53125 C 169.988281 185.550781 168.96875 186.199219 168.042969 186.011719 C 167.023438 185.828125 166.375 184.902344 166.464844 183.882812 C 166.558594 183.605469 166.652344 183.328125 166.652344 183.046875 C 169.429688 170.078125 182.214844 161.742188 195.183594 164.519531 C 208.152344 167.300781 216.492188 180.085938 213.710938 193.054688 C 212.414062 199.351562 208.710938 204.726562 203.335938 208.246094 C 199.351562 210.839844 194.8125 212.136719 190.273438 212.136719 Z M 190.273438 212.136719 " fill-opacity="1" fill-rule="evenodd"/><path fill="#ffffff" d="M 168.320312 186.011719 C 168.132812 186.011719 167.949219 186.011719 167.855469 186.011719 C 167.300781 185.828125 166.835938 185.457031 166.652344 184.992188 L 162.667969 176.472656 C 162.296875 175.546875 162.667969 174.433594 163.59375 174.0625 C 164.519531 173.601562 165.632812 173.96875 166.097656 174.898438 L 169.152344 181.472656 L 175.175781 177.582031 C 176.101562 177.027344 177.210938 177.304688 177.769531 178.140625 C 178.324219 179.066406 178.046875 180.175781 177.210938 180.734375 L 169.339844 185.734375 C 169.058594 185.921875 168.691406 186.011719 168.320312 186.011719 Z M 168.320312 186.011719 " fill-opacity="1" fill-rule="evenodd"/><path fill="#ffffff" d="M 224.828125 159.703125 C 224.457031 159.703125 224.179688 159.613281 223.902344 159.425781 C 223.347656 159.148438 222.976562 158.5 222.976562 157.851562 L 222.976562 130.800781 C 222.976562 130.152344 223.347656 129.503906 223.902344 129.226562 C 224.457031 128.855469 225.199219 128.855469 225.753906 129.226562 L 247.988281 142.75 C 248.542969 143.027344 248.914062 143.679688 248.914062 144.328125 C 248.914062 144.976562 248.542969 145.53125 247.988281 145.902344 L 225.753906 159.425781 C 225.476562 159.613281 225.105469 159.703125 224.828125 159.703125 Z M 226.679688 134.136719 L 226.679688 154.515625 L 243.449219 144.328125 Z M 226.679688 134.136719 " fill-opacity="1" fill-rule="evenodd"/><path fill="#ffffff" d="M 235.945312 174.898438 C 219.085938 174.898438 205.375 161.1875 205.375 144.328125 C 205.375 127.464844 219.085938 113.753906 235.945312 113.753906 C 252.804688 113.753906 266.515625 127.464844 266.515625 144.328125 C 266.515625 161.1875 252.804688 174.898438 235.945312 174.898438 Z M 235.945312 117.460938 C 221.121094 117.460938 209.078125 129.503906 209.078125 144.328125 C 209.078125 159.148438 221.121094 171.191406 235.945312 171.191406 C 250.765625 171.191406 262.808594 159.148438 262.808594 144.328125 C 262.808594 129.503906 250.765625 117.460938 235.945312 117.460938 Z M 235.945312 117.460938 " fill-opacity="1" fill-rule="evenodd"/><path fill="#ffffff" d="M 119.683594 160.628906 C 119.3125 160.628906 119.035156 160.539062 118.664062 160.351562 C 118.203125 159.980469 117.832031 159.425781 117.832031 158.777344 L 117.832031 131.820312 C 117.832031 131.078125 118.296875 130.429688 118.945312 130.152344 C 119.128906 130.058594 123.761719 128.023438 129.78125 128.023438 C 133.117188 128.023438 136.175781 128.578125 138.953125 129.78125 C 141.824219 128.578125 144.882812 128.023438 148.125 128.023438 C 154.238281 128.023438 158.871094 130.058594 159.054688 130.152344 C 159.703125 130.429688 160.167969 131.078125 160.167969 131.820312 L 160.167969 158.777344 C 160.167969 159.425781 159.796875 159.980469 159.242188 160.351562 C 158.777344 160.628906 158.128906 160.722656 157.480469 160.445312 C 157.480469 160.445312 153.40625 158.683594 148.125 158.683594 C 145.160156 158.683594 142.289062 159.242188 139.785156 160.445312 C 139.324219 160.722656 138.675781 160.722656 138.210938 160.445312 C 135.710938 159.242188 132.839844 158.683594 129.78125 158.683594 C 124.59375 158.683594 120.519531 160.445312 120.425781 160.445312 C 120.242188 160.539062 119.960938 160.628906 119.683594 160.628906 Z M 129.78125 154.980469 C 133.117188 154.980469 136.175781 155.535156 138.953125 156.738281 C 141.824219 155.535156 144.882812 154.980469 148.125 154.980469 C 151.550781 154.980469 154.421875 155.535156 156.460938 156.183594 L 156.460938 133.117188 C 154.886719 132.5625 151.828125 131.726562 148.125 131.726562 C 145.160156 131.726562 142.289062 132.285156 139.785156 133.488281 C 139.324219 133.765625 138.675781 133.765625 138.210938 133.488281 C 135.710938 132.285156 132.839844 131.726562 129.78125 131.726562 C 126.167969 131.726562 123.113281 132.5625 121.539062 133.117188 L 121.539062 156.183594 C 123.484375 155.535156 126.445312 154.980469 129.78125 154.980469 Z M 129.78125 154.980469 " fill-opacity="1" fill-rule="evenodd"/><path fill="#ffffff" d="M 138.953125 160.628906 C 137.933594 160.628906 137.101562 159.796875 137.101562 158.777344 L 137.101562 131.820312 C 137.101562 130.800781 137.933594 129.96875 138.953125 129.96875 C 139.972656 129.96875 140.804688 130.800781 140.804688 131.820312 L 140.804688 158.777344 C 140.804688 159.796875 139.972656 160.628906 138.953125 160.628906 Z M 138.953125 160.628906 " fill-opacity="1" fill-rule="evenodd"/><path fill="#ffffff" d="M 132.003906 139.417969 L 126.632812 139.417969 C 125.613281 139.417969 124.78125 138.582031 124.78125 137.5625 C 124.78125 136.542969 125.613281 135.710938 126.632812 135.710938 L 132.003906 135.710938 C 133.023438 135.710938 133.859375 136.542969 133.859375 137.5625 C 133.859375 138.582031 133.023438 139.417969 132.003906 139.417969 Z M 132.003906 139.417969 " fill-opacity="1" fill-rule="evenodd"/><path fill="#ffffff" d="M 134.230469 145.53125 L 124.5 145.53125 C 123.484375 145.53125 122.648438 144.695312 122.648438 143.679688 C 122.648438 142.660156 123.484375 141.824219 124.5 141.824219 L 134.230469 141.824219 C 135.246094 141.824219 136.082031 142.660156 136.082031 143.679688 C 136.082031 144.695312 135.246094 145.53125 134.230469 145.53125 Z M 134.230469 145.53125 " fill-opacity="1" fill-rule="evenodd"/><path fill="#ffffff" d="M 132.003906 151.644531 L 126.632812 151.644531 C 125.613281 151.644531 124.78125 150.8125 124.78125 149.792969 C 124.78125 148.773438 125.613281 147.9375 126.632812 147.9375 L 132.003906 147.9375 C 133.023438 147.9375 133.859375 148.773438 133.859375 149.792969 C 133.859375 150.8125 133.023438 151.644531 132.003906 151.644531 Z M 132.003906 151.644531 " fill-opacity="1" fill-rule="evenodd"/><path fill="#ffffff" d="M 151.367188 139.417969 L 145.992188 139.417969 C 144.976562 139.417969 144.140625 138.582031 144.140625 137.5625 C 144.140625 136.542969 144.976562 135.710938 145.992188 135.710938 L 151.367188 135.710938 C 152.386719 135.710938 153.21875 136.542969 153.21875 137.5625 C 153.21875 138.582031 152.386719 139.417969 151.367188 139.417969 Z M 151.367188 139.417969 " fill-opacity="1" fill-rule="evenodd"/><path fill="#ffffff" d="M 153.589844 145.53125 L 143.769531 145.53125 C 142.75 145.53125 141.917969 144.695312 141.917969 143.679688 C 141.917969 142.660156 142.75 141.824219 143.769531 141.824219 L 153.589844 141.824219 C 154.609375 141.824219 155.441406 142.660156 155.441406 143.679688 C 155.441406 144.695312 154.609375 145.53125 153.589844 145.53125 Z M 153.589844 145.53125 " fill-opacity="1" fill-rule="evenodd"/><path fill="#ffffff" d="M 151.367188 151.644531 L 145.992188 151.644531 C 144.976562 151.644531 144.140625 150.8125 144.140625 149.792969 C 144.140625 148.773438 144.976562 147.9375 145.992188 147.9375 L 151.367188 147.9375 C 152.386719 147.9375 153.21875 148.773438 153.21875 149.792969 C 153.21875 150.8125 152.386719 151.644531 151.367188 151.644531 Z M 151.367188 151.644531 " fill-opacity="1" fill-rule="evenodd"/><path fill="#ffffff" d="M 138.953125 174.898438 C 122.1875 174.898438 108.476562 161.1875 108.476562 144.328125 C 108.476562 127.464844 122.1875 113.753906 138.953125 113.753906 C 155.8125 113.753906 169.523438 127.464844 169.523438 144.328125 C 169.523438 161.1875 155.8125 174.898438 138.953125 174.898438 Z M 138.953125 117.460938 C 124.222656 117.460938 112.179688 129.503906 112.179688 144.328125 C 112.179688 159.148438 124.222656 171.191406 138.953125 171.191406 C 153.773438 171.191406 165.816406 159.148438 165.816406 144.328125 C 165.816406 129.503906 153.773438 117.460938 138.953125 117.460938 Z M 138.953125 117.460938 " fill-opacity="1" fill-rule="evenodd"/><path fill="#ffffff" d="M 138.769531 231.3125 C 137.101562 231.3125 135.433594 230.386719 134.597656 228.90625 C 134.042969 228.070312 134.320312 226.960938 135.246094 226.402344 C 136.082031 225.941406 137.285156 226.21875 137.75 227.050781 C 138.027344 227.421875 138.398438 227.609375 138.769531 227.609375 C 139.417969 227.609375 139.972656 227.144531 139.972656 226.496094 C 139.972656 225.847656 139.417969 225.292969 138.953125 225.292969 C 136.453125 225.292969 134.320312 223.066406 134.320312 220.472656 C 134.320312 217.789062 136.542969 215.566406 139.230469 215.566406 C 140.898438 215.566406 142.566406 216.492188 143.398438 217.972656 C 143.957031 218.898438 143.585938 220.011719 142.75 220.472656 C 141.824219 221.03125 140.714844 220.753906 140.25 219.824219 C 139.972656 219.457031 139.601562 219.269531 139.230469 219.269531 C 138.582031 219.269531 138.027344 219.824219 138.027344 220.472656 C 138.027344 221.121094 138.582031 221.585938 138.953125 221.585938 C 141.546875 221.585938 143.679688 223.808594 143.679688 226.496094 C 143.679688 229.183594 141.453125 231.3125 138.769531 231.3125 Z M 138.769531 231.3125 " fill-opacity="1" fill-rule="evenodd"/><path fill="#ffffff" d="M 138.953125 233.628906 C 137.933594 233.628906 137.101562 232.796875 137.101562 231.777344 L 137.101562 229.460938 C 137.101562 228.441406 137.933594 227.609375 138.953125 227.609375 C 139.972656 227.609375 140.804688 228.441406 140.804688 229.460938 L 140.804688 231.777344 C 140.804688 232.796875 139.972656 233.628906 138.953125 233.628906 Z M 138.953125 233.628906 " fill-opacity="1" fill-rule="evenodd"/><path fill="#ffffff" d="M 138.953125 219.269531 C 137.933594 219.269531 137.101562 218.4375 137.101562 217.417969 L 137.101562 215.195312 C 137.101562 214.175781 137.933594 213.339844 138.953125 213.339844 C 139.972656 213.339844 140.804688 214.175781 140.804688 215.195312 L 140.804688 217.417969 C 140.804688 218.4375 139.972656 219.269531 138.953125 219.269531 Z M 138.953125 219.269531 " fill-opacity="1" fill-rule="evenodd"/><path fill="#ffffff" d="M 141.453125 248.171875 L 136.542969 248.171875 C 135.617188 248.171875 134.878906 247.617188 134.691406 246.785156 L 133.859375 242.800781 C 132.097656 242.335938 130.523438 241.6875 129.039062 240.761719 L 125.519531 242.984375 C 124.78125 243.449219 123.851562 243.355469 123.203125 242.707031 L 119.777344 239.1875 C 119.128906 238.632812 119.035156 237.613281 119.5 236.964844 L 121.628906 233.445312 C 120.796875 231.960938 120.148438 230.292969 119.683594 228.625 L 115.699219 227.699219 C 114.867188 227.515625 114.21875 226.773438 114.21875 225.941406 L 114.21875 221.03125 C 114.21875 220.105469 114.867188 219.363281 115.699219 219.175781 L 119.683594 218.25 C 120.148438 216.582031 120.796875 215.007812 121.628906 213.433594 L 119.5 210.007812 C 119.035156 209.265625 119.128906 208.339844 119.777344 207.691406 L 123.203125 204.171875 C 123.851562 203.613281 124.78125 203.523438 125.519531 203.984375 L 129.039062 206.117188 C 130.523438 205.28125 132.097656 204.632812 133.859375 204.171875 L 134.691406 200.1875 C 134.878906 199.261719 135.617188 198.703125 136.542969 198.703125 L 141.453125 198.703125 C 142.289062 198.703125 143.121094 199.261719 143.308594 200.1875 L 144.140625 204.171875 C 145.902344 204.632812 147.476562 205.28125 148.957031 206.117188 L 152.476562 203.984375 C 153.21875 203.523438 154.144531 203.613281 154.792969 204.171875 L 158.222656 207.691406 C 158.871094 208.339844 158.964844 209.265625 158.5 210.007812 L 156.277344 213.433594 C 157.203125 215.007812 157.851562 216.582031 158.316406 218.25 L 162.296875 219.175781 C 163.132812 219.363281 163.78125 220.105469 163.78125 221.03125 L 163.78125 225.941406 C 163.78125 226.773438 163.132812 227.515625 162.296875 227.699219 L 158.316406 228.625 C 157.851562 230.292969 157.203125 231.960938 156.277344 233.445312 L 158.5 236.964844 C 158.964844 237.613281 158.871094 238.632812 158.222656 239.1875 L 154.792969 242.707031 C 154.144531 243.355469 153.21875 243.449219 152.476562 242.984375 L 148.957031 240.761719 C 147.476562 241.6875 145.902344 242.335938 144.140625 242.800781 L 143.308594 246.785156 C 143.121094 247.617188 142.289062 248.171875 141.453125 248.171875 Z M 138.027344 244.46875 L 139.972656 244.46875 L 140.804688 240.855469 C 140.992188 240.113281 141.546875 239.558594 142.289062 239.464844 C 144.328125 239 146.273438 238.261719 147.9375 237.054688 C 148.585938 236.6875 149.328125 236.6875 149.976562 237.054688 L 153.21875 239.09375 L 154.609375 237.613281 L 152.570312 234.460938 C 152.199219 233.8125 152.199219 233.074219 152.570312 232.425781 C 153.773438 230.664062 154.515625 228.8125 154.980469 226.679688 C 155.070312 226.03125 155.628906 225.476562 156.367188 225.292969 L 160.074219 224.457031 L 160.074219 222.511719 L 156.367188 221.679688 C 155.628906 221.492188 155.070312 220.9375 154.980469 220.195312 C 154.515625 218.160156 153.773438 216.214844 152.570312 214.453125 C 152.199219 213.898438 152.199219 213.0625 152.570312 212.507812 L 154.609375 209.265625 L 153.21875 207.875 L 149.976562 209.914062 C 149.328125 210.285156 148.585938 210.285156 147.9375 209.820312 C 146.273438 208.710938 144.328125 207.875 142.289062 207.503906 C 141.546875 207.320312 140.992188 206.765625 140.804688 206.117188 L 139.972656 202.410156 L 138.027344 202.410156 L 137.191406 206.117188 C 137.007812 206.765625 136.453125 207.320312 135.710938 207.503906 C 133.671875 207.875 131.726562 208.710938 129.96875 209.820312 C 129.410156 210.285156 128.578125 210.285156 128.023438 209.914062 L 124.78125 207.875 L 123.390625 209.265625 L 125.429688 212.507812 C 125.796875 213.0625 125.796875 213.898438 125.429688 214.453125 C 124.222656 216.214844 123.484375 218.160156 123.019531 220.195312 C 122.925781 220.9375 122.371094 221.492188 121.628906 221.679688 L 117.925781 222.511719 L 117.925781 224.457031 L 121.628906 225.292969 C 122.371094 225.476562 122.925781 226.03125 123.019531 226.679688 C 123.484375 228.8125 124.222656 230.664062 125.429688 232.425781 C 125.796875 233.074219 125.796875 233.8125 125.429688 234.460938 L 123.390625 237.613281 L 124.78125 239.09375 L 128.023438 237.054688 C 128.578125 236.6875 129.410156 236.6875 129.96875 237.054688 C 131.726562 238.261719 133.671875 239 135.710938 239.464844 C 136.453125 239.558594 137.007812 240.113281 137.191406 240.855469 Z M 138.027344 244.46875 " fill-opacity="1" fill-rule="evenodd"/><path fill="#ffffff" d="M 138.953125 237.984375 C 130.988281 237.984375 124.5 231.40625 124.5 223.4375 C 124.5 215.472656 130.988281 208.988281 138.953125 208.988281 C 147.011719 208.988281 153.496094 215.472656 153.496094 223.4375 C 153.496094 231.40625 147.011719 237.984375 138.953125 237.984375 Z M 138.953125 212.691406 C 133.023438 212.691406 128.207031 217.511719 128.207031 223.4375 C 128.207031 229.367188 133.023438 234.277344 138.953125 234.277344 C 144.976562 234.277344 149.792969 229.367188 149.792969 223.4375 C 149.792969 217.511719 144.976562 212.691406 138.953125 212.691406 Z M 138.953125 212.691406 " fill-opacity="1" fill-rule="evenodd"/><path fill="#ffffff" d="M 138.953125 254.007812 C 122.1875 254.007812 108.476562 240.296875 108.476562 223.4375 C 108.476562 206.578125 122.1875 192.960938 138.953125 192.960938 C 155.8125 192.960938 169.523438 206.578125 169.523438 223.4375 C 169.523438 240.296875 155.8125 254.007812 138.953125 254.007812 Z M 138.953125 196.667969 C 124.222656 196.667969 112.179688 208.710938 112.179688 223.4375 C 112.179688 238.261719 124.222656 250.304688 138.953125 250.304688 C 153.773438 250.304688 165.816406 238.261719 165.816406 223.4375 C 165.816406 208.710938 153.773438 196.667969 138.953125 196.667969 Z M 138.953125 196.667969 " fill-opacity="1" fill-rule="evenodd"/><path fill="#ffffff" d="M 235.945312 254.007812 C 219.085938 254.007812 205.375 240.296875 205.375 223.4375 C 205.375 206.578125 219.085938 192.960938 235.945312 192.960938 C 252.804688 192.960938 266.515625 206.578125 266.515625 223.4375 C 266.515625 240.296875 252.804688 254.007812 235.945312 254.007812 Z M 235.945312 196.667969 C 221.121094 196.667969 209.078125 208.710938 209.078125 223.4375 C 209.078125 238.261719 221.121094 250.304688 235.945312 250.304688 C 250.765625 250.304688 262.808594 238.261719 262.808594 223.4375 C 262.808594 208.710938 250.765625 196.667969 235.945312 196.667969 Z M 235.945312 196.667969 " fill-opacity="1" fill-rule="evenodd"/><path fill="#ffffff" d="M 225.570312 243.542969 C 221.214844 243.542969 217.695312 240.019531 217.695312 235.667969 C 217.695312 231.3125 221.214844 227.792969 225.570312 227.792969 C 229.921875 227.792969 233.445312 231.3125 233.445312 235.667969 C 233.445312 240.019531 229.921875 243.542969 225.570312 243.542969 Z M 225.570312 231.5 C 223.253906 231.5 221.402344 233.351562 221.402344 235.667969 C 221.402344 237.890625 223.253906 239.835938 225.570312 239.835938 C 227.886719 239.835938 229.738281 237.890625 229.738281 235.667969 C 229.738281 233.351562 227.886719 231.5 225.570312 231.5 Z M 225.570312 231.5 " fill-opacity="1" fill-rule="evenodd"/><path fill="#ffffff" d="M 246.320312 236.128906 C 241.964844 236.128906 238.445312 232.609375 238.445312 228.257812 C 238.445312 223.902344 241.964844 220.382812 246.320312 220.382812 C 250.675781 220.382812 254.195312 223.902344 254.195312 228.257812 C 254.195312 232.609375 250.675781 236.128906 246.320312 236.128906 Z M 246.320312 224.085938 C 244.003906 224.085938 242.152344 226.03125 242.152344 228.257812 C 242.152344 230.570312 244.003906 232.425781 246.320312 232.425781 C 248.636719 232.425781 250.488281 230.570312 250.488281 228.257812 C 250.488281 226.03125 248.636719 224.085938 246.320312 224.085938 Z M 246.320312 224.085938 " fill-opacity="1" fill-rule="evenodd"/><path fill="#ffffff" d="M 231.589844 237.335938 C 230.570312 237.335938 229.738281 236.5 229.738281 235.480469 L 229.738281 211.394531 C 229.738281 210.65625 230.292969 209.914062 231.035156 209.636719 L 251.785156 203.523438 C 252.339844 203.335938 252.988281 203.429688 253.453125 203.800781 C 253.917969 204.171875 254.195312 204.632812 254.195312 205.28125 L 254.195312 228.257812 C 254.195312 229.273438 253.359375 230.109375 252.339844 230.109375 C 251.324219 230.109375 250.488281 229.273438 250.488281 228.257812 L 250.488281 207.78125 L 233.445312 212.785156 L 233.445312 235.480469 C 233.445312 236.5 232.609375 237.335938 231.589844 237.335938 Z M 231.589844 237.335938 " fill-opacity="1" fill-rule="evenodd"/><path fill="#ffffff" d="M 231.589844 219.734375 C 230.757812 219.734375 230.015625 219.175781 229.832031 218.34375 C 229.554688 217.324219 230.109375 216.304688 231.128906 216.027344 L 251.878906 210.5625 C 252.804688 210.285156 253.824219 210.933594 254.101562 211.859375 C 254.378906 212.878906 253.824219 213.898438 252.804688 214.175781 L 232.054688 219.640625 C 231.867188 219.734375 231.777344 219.734375 231.589844 219.734375 Z M 231.589844 219.734375 " fill-opacity="1" fill-rule="evenodd"/></svg>