<svg xmlns="http://www.w3.org/2000/svg" xmlns:xlink="http://www.w3.org/1999/xlink" width="500" zoomAndPan="magnify" viewBox="0 0 375 374.999991" height="500" preserveAspectRatio="xMidYMid meet" version="1.0"><defs><clipPath id="af63ff6a23"><path d="M 56.226562 56.226562 L 318.726562 56.226562 L 318.726562 318.726562 L 56.226562 318.726562 Z M 56.226562 56.226562 " clip-rule="nonzero"/></clipPath></defs><g clip-path="url(#af63ff6a23)"><path fill="#3b4049" d="M 187.496094 56.226562 C 114.792969 56.226562 56.226562 114.792969 56.226562 187.496094 C 56.226562 260.199219 114.792969 318.761719 187.496094 318.761719 C 260.199219 318.761719 318.761719 260.199219 318.761719 187.496094 C 318.761719 114.792969 260.199219 56.226562 187.496094 56.226562 Z M 187.496094 56.226562 " fill-opacity="1" fill-rule="nonzero"/></g><path fill="#ffffff" d="M 258.179688 186.992188 L 187.496094 124.890625 L 117.316406 186.992188 L 117.316406 275.847656 C 117.316406 278.371094 119.335938 279.886719 121.355469 279.886719 L 165.28125 279.886719 L 165.28125 241.011719 C 165.28125 238.488281 167.300781 236.972656 169.320312 236.972656 L 205.671875 236.972656 C 208.195312 236.972656 209.710938 238.992188 209.710938 241.011719 L 209.710938 279.886719 L 253.632812 279.886719 C 256.160156 279.886719 257.671875 277.867188 257.671875 275.847656 Z M 258.179688 186.992188 " fill-opacity="1" fill-rule="nonzero"/><path fill="#ffffff" d="M 258.179688 152.660156 L 258.179688 116.8125 L 232.429688 116.8125 L 232.933594 130.445312 L 188 90.558594 L 187.496094 91.0625 L 186.992188 90.558594 L 87.53125 179.417969 L 97.628906 191.03125 L 187.496094 111.765625 L 277.363281 191.03125 L 287.964844 179.417969 Z M 258.179688 152.660156 " fill-opacity="1" fill-rule="nonzero"/></svg>