<svg xmlns="http://www.w3.org/2000/svg" xmlns:xlink="http://www.w3.org/1999/xlink" width="500" zoomAndPan="magnify" viewBox="0 0 375 374.999991" height="500" preserveAspectRatio="xMidYMid meet" version="1.0"><defs><clipPath id="6cdeb83d5f"><path d="M 56.226562 56.226562 L 318.726562 56.226562 L 318.726562 318.726562 L 56.226562 318.726562 Z M 56.226562 56.226562 " clip-rule="nonzero"/></clipPath></defs><path fill="#f2f6f8" d="M 316.140625 187.464844 C 316.140625 116.394531 258.53125 58.785156 187.464844 58.785156 C 116.394531 58.785156 58.785156 116.394531 58.785156 187.464844 C 58.785156 258.53125 116.394531 316.140625 187.464844 316.140625 C 258.53125 316.140625 316.140625 258.53125 316.140625 187.464844 " fill-opacity="1" fill-rule="nonzero"/><g clip-path="url(#6cdeb83d5f)"><path fill="#2a3b95" d="M 187.464844 61.34375 C 117.921875 61.34375 61.34375 117.921875 61.34375 187.464844 C 61.34375 257.003906 117.921875 313.582031 187.464844 313.582031 C 257.003906 313.582031 313.582031 257.003906 313.582031 187.464844 C 313.582031 117.921875 257.003906 61.34375 187.464844 61.34375 Z M 187.464844 318.699219 C 152.410156 318.699219 119.453125 305.046875 94.667969 280.261719 C 69.878906 255.472656 56.226562 222.519531 56.226562 187.464844 C 56.226562 152.410156 69.878906 119.453125 94.667969 94.667969 C 119.453125 69.878906 152.410156 56.226562 187.464844 56.226562 C 222.519531 56.226562 255.472656 69.878906 280.261719 94.667969 C 305.046875 119.453125 318.699219 152.410156 318.699219 187.464844 C 318.699219 222.519531 305.046875 255.472656 280.261719 280.261719 C 255.472656 305.046875 222.519531 318.699219 187.464844 318.699219 " fill-opacity="1" fill-rule="nonzero"/></g><path fill="#fafcfd" d="M 305.320312 187.464844 C 305.320312 122.375 252.554688 69.605469 187.464844 69.605469 C 122.375 69.605469 69.605469 122.375 69.605469 187.464844 C 69.605469 252.554688 122.375 305.320312 187.464844 305.320312 C 252.554688 305.320312 305.320312 252.554688 305.320312 187.464844 " fill-opacity="1" fill-rule="nonzero"/><path fill="#ffffff" d="M 296.839844 187.464844 C 296.839844 127.058594 247.871094 78.089844 187.464844 78.089844 C 127.058594 78.089844 78.089844 127.058594 78.089844 187.464844 C 78.089844 247.871094 127.058594 296.839844 187.464844 296.839844 C 247.871094 296.839844 296.839844 247.871094 296.839844 187.464844 " fill-opacity="1" fill-rule="nonzero"/><path fill="#f7941d" d="M 206.941406 171.109375 C 202.445312 162.613281 203.375 152.953125 209.253906 147.074219 L 238.722656 117.605469 C 239.722656 116.605469 239.722656 114.988281 238.722656 113.988281 C 237.722656 112.988281 236.101562 112.988281 235.101562 113.988281 L 205.632812 143.457031 C 198.417969 150.675781 196.964844 162.179688 201.871094 172.414062 L 193.148438 180.667969 C 192.121094 181.636719 192.074219 183.253906 193.046875 184.28125 C 193.550781 184.816406 194.226562 185.082031 194.90625 185.082031 C 195.539062 185.082031 196.167969 184.851562 196.664062 184.382812 L 206.257812 175.308594 C 207.402344 174.230469 207.679688 172.503906 206.941406 171.109375 " fill-opacity="1" fill-rule="nonzero"/><path fill="#f7941d" d="M 177.921875 221.054688 L 142.734375 258.265625 C 141.171875 259.8125 139.09375 260.664062 136.875 260.664062 C 134.648438 260.664062 132.558594 259.804688 130.996094 258.242188 C 127.761719 255.007812 127.753906 249.753906 130.972656 246.507812 L 157.617188 221.308594 C 158.644531 220.335938 158.691406 218.71875 157.71875 217.691406 C 156.75 216.664062 155.128906 216.617188 154.101562 217.589844 L 127.425781 242.816406 C 127.410156 242.832031 127.394531 242.847656 127.375 242.867188 C 124.847656 245.394531 123.457031 248.765625 123.457031 252.363281 C 123.457031 255.960938 124.847656 259.335938 127.375 261.859375 C 129.90625 264.390625 133.277344 265.78125 136.875 265.78125 C 140.472656 265.78125 143.84375 264.390625 146.375 261.859375 C 146.390625 261.84375 146.410156 261.828125 146.425781 261.8125 L 181.640625 224.574219 C 182.609375 223.546875 182.566406 221.929688 181.539062 220.957031 C 180.511719 219.984375 178.894531 220.03125 177.921875 221.054688 " fill-opacity="1" fill-rule="nonzero"/><path fill="#f7941d" d="M 275.25 150.515625 C 274.253906 149.519531 272.632812 149.519531 271.632812 150.515625 L 242.160156 179.988281 C 236.289062 185.863281 226.628906 186.792969 218.128906 182.296875 C 216.738281 181.558594 215.011719 181.839844 213.933594 182.976562 L 205.109375 192.308594 C 204.136719 193.335938 204.183594 194.953125 205.210938 195.925781 C 205.703125 196.390625 206.335938 196.625 206.96875 196.625 C 207.648438 196.625 208.324219 196.355469 208.828125 195.824219 L 216.824219 187.371094 C 227.058594 192.277344 238.5625 190.824219 245.785156 183.605469 L 275.25 154.136719 C 276.25 153.136719 276.25 151.515625 275.25 150.515625 " fill-opacity="1" fill-rule="nonzero"/><path fill="#f7941d" d="M 223.816406 153.34375 C 224.316406 153.84375 224.96875 154.09375 225.625 154.09375 C 226.28125 154.09375 226.933594 153.84375 227.433594 153.34375 L 250.945312 129.832031 C 251.945312 128.832031 251.945312 127.210938 250.945312 126.214844 C 249.949219 125.214844 248.328125 125.214844 247.328125 126.214844 L 223.816406 149.726562 C 222.816406 150.722656 222.816406 152.347656 223.816406 153.34375 " fill-opacity="1" fill-rule="nonzero"/><path fill="#f7941d" d="M 235.894531 165.421875 C 236.390625 165.921875 237.046875 166.167969 237.703125 166.167969 C 238.355469 166.167969 239.011719 165.921875 239.507812 165.421875 L 263.023438 141.90625 C 264.023438 140.910156 264.023438 139.289062 263.023438 138.289062 C 262.023438 137.289062 260.402344 137.289062 259.40625 138.289062 L 235.894531 161.800781 C 234.890625 162.800781 234.890625 164.421875 235.894531 165.421875 " fill-opacity="1" fill-rule="nonzero"/><path fill="#2a3b95" d="M 236.882812 254.335938 C 235.273438 255.949219 233.121094 256.835938 230.824219 256.835938 C 228.554688 256.835938 226.425781 255.972656 224.824219 254.398438 L 178.804688 201.0625 C 178.339844 200.523438 177.671875 200.203125 176.960938 200.175781 C 176.253906 200.148438 175.558594 200.421875 175.058594 200.925781 L 166.574219 209.40625 C 166.25 209.734375 165.820312 209.90625 165.363281 209.898438 C 164.902344 209.890625 164.472656 209.699219 164.15625 209.359375 C 145.71875 189.566406 123.738281 153.800781 114.777344 132.816406 C 112.996094 128.648438 112.03125 124.695312 112.265625 122.503906 C 112.335938 121.820312 112.625 121.015625 113.230469 120.804688 C 113.996094 120.53125 115.6875 121.015625 117.933594 123.257812 L 236.882812 242.210938 C 240.226562 245.554688 240.226562 250.992188 236.882812 254.335938 Z M 240.503906 238.59375 L 121.550781 119.640625 C 116.917969 115.007812 113.277344 115.359375 111.519531 115.980469 C 109.101562 116.835938 107.480469 119.074219 107.175781 121.964844 C 106.726562 126.210938 108.796875 131.847656 110.070312 134.828125 C 119.164062 156.121094 140.996094 192.003906 160.410156 212.847656 C 161.683594 214.210938 163.410156 214.984375 165.273438 215.015625 C 167.140625 215.050781 168.878906 214.339844 170.195312 213.023438 L 176.726562 206.492188 L 221.015625 257.816406 C 221.054688 257.863281 221.097656 257.910156 221.140625 257.953125 C 223.71875 260.535156 227.15625 261.953125 230.824219 261.953125 C 234.488281 261.953125 237.925781 260.535156 240.503906 257.953125 C 243.082031 255.378906 244.5 251.9375 244.5 248.273438 C 244.5 244.609375 243.082031 241.171875 240.503906 238.59375 " fill-opacity="1" fill-rule="nonzero"/></svg>