<svg xmlns="http://www.w3.org/2000/svg" xmlns:xlink="http://www.w3.org/1999/xlink" width="500" zoomAndPan="magnify" viewBox="0 0 375 374.999991" height="500" preserveAspectRatio="xMidYMid meet" version="1.0"><defs><clipPath id="ddb6209f9c"><path d="M 56.25 56.25 L 318.75 56.25 L 318.75 318.75 L 56.25 318.75 Z M 56.25 56.25 " clip-rule="nonzero"/></clipPath></defs><g clip-path="url(#ddb6209f9c)"><path fill="#ffa726" d="M 318.75 187.5 C 318.75 189.648438 318.699219 191.792969 318.59375 193.941406 C 318.488281 196.085938 318.328125 198.226562 318.117188 200.363281 C 317.90625 202.503906 317.644531 204.632812 317.328125 206.757812 C 317.015625 208.882812 316.648438 211 316.226562 213.105469 C 315.808594 215.210938 315.339844 217.308594 314.816406 219.390625 C 314.292969 221.476562 313.722656 223.542969 313.097656 225.601562 C 312.476562 227.65625 311.800781 229.695312 311.078125 231.714844 C 310.355469 233.738281 309.582031 235.742188 308.757812 237.726562 C 307.9375 239.710938 307.066406 241.675781 306.148438 243.617188 C 305.230469 245.558594 304.265625 247.476562 303.253906 249.371094 C 302.238281 251.265625 301.179688 253.132812 300.078125 254.976562 C 298.972656 256.816406 297.824219 258.632812 296.628906 260.417969 C 295.4375 262.203125 294.199219 263.960938 292.921875 265.683594 C 291.640625 267.410156 290.320312 269.105469 288.957031 270.765625 C 287.59375 272.425781 286.191406 274.050781 284.75 275.640625 C 283.308594 277.234375 281.828125 278.789062 280.308594 280.308594 C 278.789062 281.828125 277.234375 283.308594 275.640625 284.75 C 274.050781 286.191406 272.425781 287.59375 270.765625 288.957031 C 269.105469 290.320312 267.410156 291.640625 265.683594 292.921875 C 263.960938 294.199219 262.203125 295.4375 260.417969 296.628906 C 258.632812 297.824219 256.820312 298.972656 254.976562 300.078125 C 253.132812 301.179688 251.265625 302.238281 249.371094 303.253906 C 247.476562 304.265625 245.558594 305.230469 243.617188 306.148438 C 241.675781 307.066406 239.710938 307.9375 237.726562 308.757812 C 235.742188 309.582031 233.738281 310.355469 231.714844 311.078125 C 229.695312 311.800781 227.65625 312.476562 225.601562 313.097656 C 223.542969 313.722656 221.476562 314.292969 219.390625 314.816406 C 217.308594 315.339844 215.210938 315.808594 213.105469 316.226562 C 211 316.648438 208.882812 317.015625 206.757812 317.328125 C 204.632812 317.644531 202.503906 317.90625 200.363281 318.117188 C 198.226562 318.328125 196.085938 318.488281 193.941406 318.59375 C 191.792969 318.695312 189.648438 318.75 187.5 318.75 C 185.351562 318.75 183.207031 318.695312 181.058594 318.59375 C 178.914062 318.488281 176.773438 318.328125 174.636719 318.117188 C 172.496094 317.90625 170.367188 317.644531 168.242188 317.328125 C 166.117188 317.015625 164 316.648438 161.894531 316.226562 C 159.789062 315.808594 157.691406 315.339844 155.609375 314.816406 C 153.523438 314.292969 151.457031 313.722656 149.398438 313.097656 C 147.34375 312.476562 145.304688 311.800781 143.285156 311.078125 C 141.261719 310.355469 139.257812 309.582031 137.273438 308.757812 C 135.289062 307.9375 133.324219 307.066406 131.382812 306.148438 C 129.441406 305.230469 127.523438 304.265625 125.628906 303.253906 C 123.734375 302.238281 121.867188 301.179688 120.023438 300.078125 C 118.179688 298.972656 116.367188 297.824219 114.582031 296.628906 C 112.796875 295.4375 111.039062 294.199219 109.316406 292.921875 C 107.589844 291.640625 105.894531 290.320312 104.234375 288.957031 C 102.574219 287.59375 100.949219 286.191406 99.359375 284.75 C 97.765625 283.308594 96.210938 281.828125 94.691406 280.308594 C 93.171875 278.789062 91.691406 277.234375 90.25 275.640625 C 88.808594 274.050781 87.40625 272.425781 86.042969 270.765625 C 84.679688 269.105469 83.359375 267.410156 82.078125 265.683594 C 80.800781 263.960938 79.5625 262.203125 78.371094 260.417969 C 77.175781 258.632812 76.027344 256.816406 74.921875 254.976562 C 73.820312 253.132812 72.761719 251.265625 71.746094 249.371094 C 70.734375 247.476562 69.769531 245.558594 68.851562 243.617188 C 67.933594 241.675781 67.0625 239.710938 66.242188 237.726562 C 65.417969 235.742188 64.644531 233.738281 63.921875 231.714844 C 63.199219 229.695312 62.523438 227.65625 61.902344 225.601562 C 61.277344 223.542969 60.707031 221.476562 60.183594 219.390625 C 59.660156 217.308594 59.191406 215.210938 58.773438 213.105469 C 58.351562 211 57.984375 208.882812 57.671875 206.757812 C 57.355469 204.632812 57.09375 202.503906 56.882812 200.363281 C 56.671875 198.226562 56.511719 196.085938 56.40625 193.941406 C 56.300781 191.792969 56.25 189.648438 56.25 187.5 C 56.25 185.351562 56.300781 183.207031 56.40625 181.058594 C 56.511719 178.914062 56.671875 176.773438 56.882812 174.636719 C 57.09375 172.496094 57.355469 170.367188 57.671875 168.242188 C 57.984375 166.117188 58.351562 164 58.773438 161.894531 C 59.191406 159.789062 59.660156 157.691406 60.183594 155.609375 C 60.707031 153.523438 61.277344 151.457031 61.902344 149.398438 C 62.523438 147.34375 63.199219 145.304688 63.921875 143.28125 C 64.644531 141.261719 65.417969 139.257812 66.242188 137.273438 C 67.0625 135.289062 67.933594 133.324219 68.851562 131.382812 C 69.769531 129.441406 70.734375 127.523438 71.746094 125.628906 C 72.761719 123.734375 73.820312 121.867188 74.921875 120.023438 C 76.027344 118.179688 77.175781 116.367188 78.371094 114.582031 C 79.5625 112.796875 80.800781 111.039062 82.078125 109.3125 C 83.359375 107.589844 84.679688 105.894531 86.042969 104.234375 C 87.40625 102.574219 88.808594 100.949219 90.25 99.359375 C 91.691406 97.765625 93.171875 96.210938 94.691406 94.691406 C 96.210938 93.171875 97.765625 91.691406 99.359375 90.25 C 100.949219 88.808594 102.574219 87.40625 104.234375 86.042969 C 105.894531 84.679688 107.589844 83.359375 109.316406 82.078125 C 111.039062 80.800781 112.796875 79.5625 114.582031 78.371094 C 116.367188 77.175781 118.179688 76.027344 120.023438 74.921875 C 121.867188 73.820312 123.734375 72.761719 125.628906 71.746094 C 127.523438 70.734375 129.441406 69.769531 131.382812 68.851562 C 133.324219 67.933594 135.289062 67.0625 137.273438 66.242188 C 139.257812 65.417969 141.261719 64.644531 143.285156 63.921875 C 145.304688 63.199219 147.34375 62.523438 149.398438 61.902344 C 151.457031 61.277344 153.523438 60.707031 155.609375 60.183594 C 157.691406 59.660156 159.789062 59.191406 161.894531 58.773438 C 164 58.351562 166.117188 57.984375 168.242188 57.671875 C 170.367188 57.355469 172.496094 57.09375 174.636719 56.882812 C 176.773438 56.671875 178.914062 56.511719 181.058594 56.40625 C 183.207031 56.300781 185.351562 56.25 187.5 56.25 C 189.648438 56.25 191.792969 56.300781 193.941406 56.40625 C 196.085938 56.511719 198.226562 56.671875 200.363281 56.882812 C 202.503906 57.09375 204.632812 57.355469 206.757812 57.671875 C 208.882812 57.984375 211 58.351562 213.105469 58.773438 C 215.210938 59.191406 217.308594 59.660156 219.390625 60.183594 C 221.476562 60.707031 223.542969 61.277344 225.601562 61.902344 C 227.65625 62.523438 229.695312 63.199219 231.714844 63.921875 C 233.738281 64.644531 235.742188 65.417969 237.726562 66.242188 C 239.710938 67.0625 241.675781 67.933594 243.617188 68.851562 C 245.558594 69.769531 247.476562 70.734375 249.371094 71.746094 C 251.265625 72.761719 253.132812 73.820312 254.976562 74.921875 C 256.816406 76.027344 258.632812 77.175781 260.417969 78.371094 C 262.203125 79.5625 263.960938 80.800781 265.683594 82.078125 C 267.410156 83.359375 269.105469 84.679688 270.765625 86.042969 C 272.425781 87.40625 274.050781 88.808594 275.640625 90.25 C 277.234375 91.691406 278.789062 93.171875 280.308594 94.691406 C 281.828125 96.210938 283.308594 97.765625 284.75 99.359375 C 286.191406 100.949219 287.59375 102.574219 288.957031 104.234375 C 290.320312 105.894531 291.640625 107.589844 292.921875 109.3125 C 294.199219 111.039062 295.4375 112.796875 296.628906 114.582031 C 297.824219 116.367188 298.972656 118.179688 300.078125 120.023438 C 301.179688 121.867188 302.238281 123.734375 303.253906 125.628906 C 304.265625 127.523438 305.230469 129.441406 306.148438 131.382812 C 307.066406 133.324219 307.9375 135.289062 308.757812 137.273438 C 309.582031 139.257812 310.355469 141.261719 311.078125 143.28125 C 311.800781 145.304688 312.476562 147.34375 313.097656 149.398438 C 313.722656 151.457031 314.292969 153.523438 314.816406 155.609375 C 315.339844 157.691406 315.808594 159.789062 316.226562 161.894531 C 316.648438 164 317.015625 166.117188 317.328125 168.242188 C 317.644531 170.367188 317.90625 172.496094 318.117188 174.636719 C 318.328125 176.773438 318.488281 178.914062 318.59375 181.058594 C 318.699219 183.207031 318.75 185.351562 318.75 187.5 Z M 318.75 187.5 " fill-opacity="1" fill-rule="nonzero"/></g><path fill="#ffffff" d="M 264.097656 154.125 L 244.304688 154.125 C 242.921875 154.125 241.84375 152.996094 241.84375 151.664062 C 241.84375 150.328125 242.972656 149.203125 244.304688 149.203125 L 261.585938 149.203125 L 261.585938 124.488281 L 113.363281 124.488281 L 113.363281 149.203125 L 130.640625 149.203125 C 132.027344 149.203125 133.101562 150.328125 133.101562 151.664062 C 133.101562 152.996094 131.976562 154.125 130.640625 154.125 L 110.851562 154.125 C 109.46875 154.125 108.390625 152.996094 108.390625 151.664062 L 108.390625 122.027344 C 108.390625 120.644531 109.519531 119.566406 110.851562 119.566406 L 264.046875 119.566406 C 265.429688 119.566406 266.507812 120.695312 266.507812 122.027344 L 266.507812 151.664062 C 266.558594 153.046875 265.429688 154.125 264.097656 154.125 Z M 264.097656 154.125 " fill-opacity="1" fill-rule="nonzero"/><path fill="#ffffff" d="M 254.203125 139.304688 L 120.796875 139.304688 C 119.414062 139.304688 118.335938 138.179688 118.335938 136.84375 C 118.335938 135.511719 119.464844 134.382812 120.796875 134.382812 L 254.203125 134.382812 C 255.585938 134.382812 256.664062 135.511719 256.664062 136.84375 C 256.664062 138.179688 255.585938 139.304688 254.203125 139.304688 Z M 254.203125 139.304688 " fill-opacity="1" fill-rule="nonzero"/><path fill="#ffffff" d="M 244.304688 255.433594 C 243.640625 255.433594 243.023438 255.175781 242.5625 254.714844 L 234.257812 246.410156 L 224.261719 254.765625 C 223.285156 255.585938 221.902344 255.535156 220.980469 254.664062 L 212.109375 246.355469 L 202.058594 254.765625 C 201.136719 255.535156 199.753906 255.535156 198.832031 254.714844 L 189.292969 246.304688 L 179.195312 254.714844 C 178.269531 255.484375 176.988281 255.484375 176.066406 254.765625 L 165.300781 246.253906 L 155.097656 254.765625 C 154.125 255.585938 152.738281 255.535156 151.816406 254.664062 L 142.894531 246.355469 L 132.691406 254.867188 C 132.230469 255.226562 131.667969 255.433594 131.101562 255.433594 L 130.589844 255.433594 C 129.207031 255.433594 128.128906 254.304688 128.128906 252.972656 L 128.128906 136.84375 C 128.128906 135.460938 129.257812 134.382812 130.589844 134.382812 L 244.253906 134.382812 C 245.640625 134.382812 246.714844 135.511719 246.714844 136.84375 L 246.714844 252.972656 C 246.714844 253.945312 246.101562 254.867188 245.179688 255.277344 C 244.972656 255.378906 244.664062 255.433594 244.304688 255.433594 Z M 165.25 240.613281 C 165.8125 240.613281 166.324219 240.769531 166.789062 241.128906 L 177.554688 249.636719 L 187.757812 241.128906 C 188.679688 240.359375 190.0625 240.359375 190.984375 241.179688 L 200.523438 249.585938 L 210.621094 241.179688 C 211.597656 240.359375 212.980469 240.410156 213.902344 241.28125 L 222.824219 249.585938 L 232.875 241.179688 C 233.847656 240.359375 235.28125 240.410156 236.207031 241.332031 L 241.84375 246.972656 L 241.84375 139.304688 L 133.152344 139.304688 L 133.152344 248.101562 L 141.460938 241.179688 C 142.433594 240.359375 143.816406 240.410156 144.742188 241.28125 L 153.660156 249.585938 L 163.710938 241.179688 C 164.121094 240.820312 164.683594 240.613281 165.25 240.613281 Z M 165.25 240.613281 " fill-opacity="1" fill-rule="nonzero"/><path fill="#ffffff" d="M 234.460938 230.71875 L 140.535156 230.71875 C 139.152344 230.71875 138.074219 229.59375 138.074219 228.257812 L 138.074219 213.441406 C 138.074219 212.058594 139.203125 210.980469 140.535156 210.980469 L 234.410156 210.980469 C 235.796875 210.980469 236.871094 212.109375 236.871094 213.441406 L 236.871094 228.257812 C 236.921875 229.644531 235.796875 230.71875 234.460938 230.71875 Z M 143.050781 225.796875 L 232 225.796875 L 232 215.902344 L 143.050781 215.902344 Z M 143.050781 225.796875 " fill-opacity="1" fill-rule="nonzero"/><path fill="#ffffff" d="M 160.328125 178.835938 L 152.894531 178.835938 C 151.507812 178.835938 150.433594 177.707031 150.433594 176.375 C 150.433594 175.042969 151.558594 173.914062 152.894531 173.914062 L 160.328125 173.914062 C 161.710938 173.914062 162.789062 172.785156 162.789062 171.453125 C 162.789062 170.121094 161.660156 168.992188 160.328125 168.992188 L 157.867188 168.992188 C 153.765625 168.992188 150.433594 165.660156 150.433594 161.558594 C 150.433594 157.457031 153.765625 154.125 157.867188 154.125 L 165.300781 154.125 C 166.683594 154.125 167.761719 155.25 167.761719 156.585938 C 167.761719 157.917969 166.632812 159.046875 165.300781 159.046875 L 157.867188 159.046875 C 156.480469 159.046875 155.40625 160.171875 155.40625 161.507812 C 155.40625 162.839844 156.53125 163.96875 157.867188 163.96875 L 160.328125 163.96875 C 164.429688 163.96875 167.761719 167.300781 167.761719 171.402344 C 167.710938 175.503906 164.429688 178.835938 160.328125 178.835938 Z M 160.328125 178.835938 " fill-opacity="1" fill-rule="nonzero"/><path fill="#ffffff" d="M 157.867188 183.808594 C 156.480469 183.808594 155.40625 182.679688 155.40625 181.347656 L 155.40625 176.425781 C 155.40625 175.042969 156.53125 173.964844 157.867188 173.964844 C 159.199219 173.964844 160.328125 175.09375 160.328125 176.425781 L 160.328125 181.347656 C 160.328125 182.679688 159.199219 183.808594 157.867188 183.808594 Z M 157.867188 183.808594 " fill-opacity="1" fill-rule="nonzero"/><path fill="#ffffff" d="M 160.328125 159.097656 C 158.941406 159.097656 157.867188 157.96875 157.867188 156.636719 L 157.867188 151.714844 C 157.867188 150.328125 158.992188 149.253906 160.328125 149.253906 C 161.660156 149.253906 162.789062 150.378906 162.789062 151.714844 L 162.789062 156.636719 C 162.789062 157.96875 161.710938 159.097656 160.328125 159.097656 Z M 160.328125 159.097656 " fill-opacity="1" fill-rule="nonzero"/><path fill="#ffffff" d="M 231.949219 154.125 L 182.527344 154.125 C 181.140625 154.125 180.066406 152.996094 180.066406 151.664062 C 180.066406 150.328125 181.195312 149.203125 182.527344 149.203125 L 231.949219 149.203125 C 233.335938 149.203125 234.410156 150.328125 234.410156 151.664062 C 234.410156 152.996094 233.335938 154.125 231.949219 154.125 Z M 231.949219 154.125 " fill-opacity="1" fill-rule="nonzero"/><path fill="#ffffff" d="M 231.949219 166.480469 L 182.527344 166.480469 C 181.140625 166.480469 180.066406 165.351562 180.066406 164.019531 C 180.066406 162.683594 181.195312 161.558594 182.527344 161.558594 L 231.949219 161.558594 C 233.335938 161.558594 234.410156 162.683594 234.410156 164.019531 C 234.410156 165.351562 233.335938 166.480469 231.949219 166.480469 Z M 231.949219 166.480469 " fill-opacity="1" fill-rule="nonzero"/><path fill="#ffffff" d="M 231.949219 178.835938 L 182.527344 178.835938 C 181.140625 178.835938 180.066406 177.707031 180.066406 176.375 C 180.066406 175.042969 181.195312 173.914062 182.527344 173.914062 L 231.949219 173.914062 C 233.335938 173.914062 234.410156 175.042969 234.410156 176.375 C 234.410156 177.707031 233.335938 178.835938 231.949219 178.835938 Z M 231.949219 178.835938 " fill-opacity="1" fill-rule="nonzero"/><path fill="#ffffff" d="M 231.949219 191.191406 L 182.527344 191.191406 C 181.140625 191.191406 180.066406 190.0625 180.066406 188.730469 C 180.066406 187.398438 181.195312 186.269531 182.527344 186.269531 L 231.949219 186.269531 C 233.335938 186.269531 234.410156 187.398438 234.410156 188.730469 C 234.410156 190.0625 233.335938 191.191406 231.949219 191.191406 Z M 231.949219 191.191406 " fill-opacity="1" fill-rule="nonzero"/><path fill="#ffffff" d="M 231.949219 203.546875 L 143.050781 203.546875 C 141.664062 203.546875 140.589844 202.417969 140.589844 201.085938 C 140.589844 199.753906 141.714844 198.625 143.050781 198.625 L 232 198.625 C 233.386719 198.625 234.460938 199.753906 234.460938 201.085938 C 234.460938 202.417969 233.335938 203.546875 231.949219 203.546875 Z M 231.949219 203.546875 " fill-opacity="1" fill-rule="nonzero"/></svg>