<svg xmlns="http://www.w3.org/2000/svg" xmlns:xlink="http://www.w3.org/1999/xlink" width="500" zoomAndPan="magnify" viewBox="0 0 375 374.999991" height="500" preserveAspectRatio="xMidYMid meet" version="1.0"><defs><clipPath id="66dca3b6c5"><path d="M 56.226562 56.226562 L 318.726562 56.226562 L 318.726562 318.726562 L 56.226562 318.726562 Z M 56.226562 56.226562 " clip-rule="nonzero"/></clipPath></defs><g clip-path="url(#66dca3b6c5)"><path fill="#ef5350" d="M 318.726562 187.476562 C 318.726562 189.625 318.675781 191.773438 318.570312 193.917969 C 318.464844 196.0625 318.304688 198.203125 318.097656 200.34375 C 317.886719 202.480469 317.621094 204.613281 317.308594 206.734375 C 316.992188 208.859375 316.625 210.976562 316.207031 213.082031 C 315.785156 215.191406 315.316406 217.285156 314.792969 219.367188 C 314.273438 221.453125 313.699219 223.523438 313.074219 225.578125 C 312.453125 227.632812 311.777344 229.671875 311.054688 231.695312 C 310.332031 233.71875 309.558594 235.71875 308.738281 237.703125 C 307.914062 239.6875 307.042969 241.652344 306.125 243.59375 C 305.207031 245.535156 304.242188 247.453125 303.230469 249.347656 C 302.21875 251.242188 301.160156 253.109375 300.054688 254.953125 C 298.949219 256.796875 297.800781 258.609375 296.609375 260.394531 C 295.414062 262.183594 294.179688 263.9375 292.898438 265.664062 C 291.621094 267.386719 290.296875 269.082031 288.933594 270.742188 C 287.574219 272.402344 286.171875 274.027344 284.726562 275.621094 C 283.285156 277.210938 281.804688 278.765625 280.285156 280.285156 C 278.765625 281.804688 277.210938 283.285156 275.621094 284.726562 C 274.027344 286.171875 272.402344 287.574219 270.742188 288.933594 C 269.082031 290.296875 267.386719 291.621094 265.664062 292.898438 C 263.9375 294.179688 262.183594 295.414062 260.394531 296.609375 C 258.609375 297.800781 256.796875 298.949219 254.953125 300.054688 C 253.113281 301.160156 251.242188 302.21875 249.347656 303.230469 C 247.453125 304.242188 245.535156 305.207031 243.59375 306.125 C 241.652344 307.042969 239.6875 307.914062 237.703125 308.738281 C 235.71875 309.558594 233.71875 310.332031 231.695312 311.054688 C 229.671875 311.777344 227.632812 312.453125 225.578125 313.074219 C 223.523438 313.699219 221.453125 314.273438 219.367188 314.792969 C 217.285156 315.316406 215.191406 315.785156 213.082031 316.207031 C 210.976562 316.625 208.859375 316.992188 206.734375 317.308594 C 204.613281 317.621094 202.480469 317.886719 200.34375 318.097656 C 198.203125 318.304688 196.0625 318.464844 193.917969 318.570312 C 191.773438 318.675781 189.625 318.726562 187.476562 318.726562 C 185.328125 318.726562 183.183594 318.675781 181.039062 318.570312 C 178.890625 318.464844 176.75 318.304688 174.613281 318.097656 C 172.476562 317.886719 170.34375 317.621094 168.21875 317.308594 C 166.09375 316.992188 163.980469 316.625 161.871094 316.207031 C 159.765625 315.785156 157.671875 315.316406 155.585938 314.792969 C 153.503906 314.273438 151.433594 313.699219 149.378906 313.074219 C 147.324219 312.453125 145.285156 311.777344 143.261719 311.054688 C 141.238281 310.332031 139.234375 309.558594 137.25 308.738281 C 135.265625 307.914062 133.304688 307.042969 131.359375 306.125 C 129.417969 305.207031 127.5 304.242188 125.605469 303.230469 C 123.710938 302.21875 121.84375 301.160156 120 300.054688 C 118.160156 298.949219 116.34375 297.800781 114.558594 296.609375 C 112.773438 295.414062 111.015625 294.179688 109.292969 292.898438 C 107.566406 291.621094 105.875 290.296875 104.214844 288.933594 C 102.554688 287.574219 100.925781 286.171875 99.335938 284.726562 C 97.742188 283.285156 96.1875 281.804688 94.671875 280.285156 C 93.152344 278.765625 91.671875 277.210938 90.226562 275.621094 C 88.785156 274.027344 87.382812 272.402344 86.019531 270.742188 C 84.65625 269.082031 83.335938 267.386719 82.058594 265.664062 C 80.777344 263.9375 79.539062 262.183594 78.347656 260.394531 C 77.152344 258.609375 76.003906 256.796875 74.902344 254.953125 C 73.796875 253.113281 72.738281 251.242188 71.726562 249.347656 C 70.714844 247.453125 69.746094 245.535156 68.828125 243.59375 C 67.910156 241.652344 67.039062 239.6875 66.21875 237.703125 C 65.398438 235.71875 64.625 233.71875 63.898438 231.695312 C 63.175781 229.671875 62.503906 227.632812 61.878906 225.578125 C 61.253906 223.523438 60.683594 221.453125 60.160156 219.367188 C 59.640625 217.285156 59.167969 215.191406 58.75 213.082031 C 58.332031 210.976562 57.964844 208.859375 57.648438 206.734375 C 57.332031 204.613281 57.070312 202.480469 56.859375 200.34375 C 56.648438 198.203125 56.492188 196.0625 56.386719 193.917969 C 56.28125 191.773438 56.226562 189.625 56.226562 187.476562 C 56.226562 185.328125 56.28125 183.183594 56.386719 181.039062 C 56.492188 178.890625 56.648438 176.75 56.859375 174.613281 C 57.070312 172.476562 57.332031 170.34375 57.648438 168.21875 C 57.964844 166.09375 58.332031 163.980469 58.75 161.871094 C 59.167969 159.765625 59.640625 157.671875 60.160156 155.585938 C 60.683594 153.503906 61.253906 151.433594 61.878906 149.378906 C 62.503906 147.324219 63.175781 145.285156 63.898438 143.261719 C 64.625 141.238281 65.398438 139.234375 66.21875 137.25 C 67.039062 135.265625 67.910156 133.304688 68.828125 131.359375 C 69.746094 129.417969 70.714844 127.5 71.726562 125.605469 C 72.738281 123.710938 73.796875 121.84375 74.902344 120 C 76.003906 118.160156 77.152344 116.34375 78.347656 114.558594 C 79.539062 112.773438 80.777344 111.015625 82.058594 109.292969 C 83.335938 107.566406 84.65625 105.875 86.019531 104.214844 C 87.382812 102.554688 88.785156 100.925781 90.226562 99.335938 C 91.671875 97.742188 93.152344 96.1875 94.671875 94.671875 C 96.1875 93.152344 97.742188 91.671875 99.335938 90.226562 C 100.925781 88.785156 102.554688 87.382812 104.214844 86.019531 C 105.875 84.65625 107.566406 83.335938 109.292969 82.058594 C 111.015625 80.777344 112.773438 79.539062 114.558594 78.347656 C 116.34375 77.152344 118.160156 76.003906 120 74.902344 C 121.84375 73.796875 123.710938 72.738281 125.605469 71.726562 C 127.5 70.714844 129.417969 69.746094 131.359375 68.828125 C 133.304688 67.910156 135.265625 67.039062 137.25 66.21875 C 139.234375 65.398438 141.238281 64.625 143.261719 63.898438 C 145.285156 63.175781 147.324219 62.503906 149.378906 61.878906 C 151.433594 61.253906 153.503906 60.683594 155.585938 60.160156 C 157.671875 59.640625 159.765625 59.167969 161.871094 58.75 C 163.980469 58.332031 166.09375 57.964844 168.21875 57.648438 C 170.34375 57.332031 172.476562 57.070312 174.613281 56.859375 C 176.75 56.648438 178.890625 56.492188 181.039062 56.386719 C 183.183594 56.28125 185.328125 56.226562 187.476562 56.226562 C 189.625 56.226562 191.773438 56.28125 193.917969 56.386719 C 196.0625 56.492188 198.203125 56.648438 200.34375 56.859375 C 202.480469 57.070312 204.613281 57.332031 206.734375 57.648438 C 208.859375 57.964844 210.976562 58.332031 213.082031 58.75 C 215.191406 59.167969 217.285156 59.640625 219.367188 60.160156 C 221.453125 60.683594 223.523438 61.253906 225.578125 61.878906 C 227.632812 62.503906 229.671875 63.175781 231.695312 63.898438 C 233.71875 64.625 235.71875 65.398438 237.703125 66.21875 C 239.6875 67.039062 241.652344 67.910156 243.59375 68.828125 C 245.535156 69.746094 247.453125 70.714844 249.347656 71.726562 C 251.242188 72.738281 253.109375 73.796875 254.953125 74.902344 C 256.796875 76.003906 258.609375 77.152344 260.394531 78.347656 C 262.183594 79.539062 263.9375 80.777344 265.664062 82.058594 C 267.386719 83.335938 269.082031 84.65625 270.742188 86.019531 C 272.402344 87.382812 274.027344 88.785156 275.621094 90.226562 C 277.210938 91.671875 278.765625 93.152344 280.285156 94.671875 C 281.804688 96.1875 283.285156 97.742188 284.726562 99.335938 C 286.171875 100.925781 287.574219 102.554688 288.933594 104.214844 C 290.296875 105.875 291.621094 107.566406 292.898438 109.292969 C 294.179688 111.015625 295.414062 112.773438 296.609375 114.558594 C 297.800781 116.34375 298.949219 118.160156 300.054688 120 C 301.160156 121.84375 302.21875 123.710938 303.230469 125.605469 C 304.242188 127.5 305.207031 129.417969 306.125 131.359375 C 307.042969 133.304688 307.914062 135.265625 308.738281 137.25 C 309.558594 139.234375 310.332031 141.238281 311.054688 143.261719 C 311.777344 145.285156 312.453125 147.324219 313.074219 149.378906 C 313.699219 151.433594 314.273438 153.503906 314.792969 155.585938 C 315.316406 157.671875 315.785156 159.765625 316.207031 161.871094 C 316.625 163.980469 316.992188 166.09375 317.308594 168.21875 C 317.621094 170.34375 317.886719 172.476562 318.097656 174.613281 C 318.304688 176.75 318.464844 178.890625 318.570312 181.039062 C 318.675781 183.183594 318.726562 185.328125 318.726562 187.476562 Z M 318.726562 187.476562 " fill-opacity="1" fill-rule="nonzero"/></g><path fill="#ffffff" d="M 235.765625 162.046875 C 249.765625 162.046875 261.195312 150.671875 261.195312 136.617188 C 261.195312 122.5625 249.820312 111.1875 235.765625 111.1875 C 221.765625 111.1875 210.335938 122.5625 210.335938 136.617188 C 210.335938 150.671875 221.710938 162.046875 235.765625 162.046875 Z M 237.023438 139.1875 L 234.507812 139.1875 C 229.585938 139.1875 225.59375 135.195312 225.59375 130.273438 C 225.59375 125.789062 228.929688 122.070312 233.195312 121.46875 L 233.195312 118.84375 C 233.195312 117.421875 234.34375 116.328125 235.710938 116.328125 C 237.132812 116.328125 238.226562 117.476562 238.226562 118.84375 L 238.226562 121.359375 L 243.3125 121.359375 C 244.734375 121.359375 245.828125 122.507812 245.828125 123.875 C 245.828125 125.296875 244.679688 126.390625 243.3125 126.390625 L 234.398438 126.390625 C 232.320312 126.390625 230.570312 128.085938 230.570312 130.21875 C 230.570312 132.296875 232.265625 134.046875 234.398438 134.046875 L 236.914062 134.046875 C 241.835938 134.046875 245.828125 138.039062 245.828125 142.960938 C 245.828125 147.445312 242.492188 151.164062 238.226562 151.765625 L 238.226562 154.390625 C 238.226562 155.8125 237.078125 156.90625 235.710938 156.90625 C 234.289062 156.90625 233.195312 155.757812 233.195312 154.390625 L 233.195312 151.929688 L 228.109375 151.929688 C 226.6875 151.929688 225.59375 150.78125 225.59375 149.414062 C 225.59375 147.992188 226.742188 146.898438 228.109375 146.898438 L 237.023438 146.898438 C 239.101562 146.898438 240.851562 145.203125 240.851562 143.070312 C 240.851562 140.9375 239.101562 139.1875 237.023438 139.1875 Z M 237.023438 139.1875 " fill-opacity="1" fill-rule="nonzero"/><path fill="#ffffff" d="M 113.8125 256.054688 L 113.8125 111.242188 L 108.726562 111.242188 L 108.726562 263.65625 L 261.140625 263.65625 L 261.140625 258.570312 L 116.328125 258.570312 C 114.960938 258.625 113.8125 257.476562 113.8125 256.054688 Z M 113.8125 256.054688 " fill-opacity="1" fill-rule="nonzero"/><path fill="#ffffff" d="M 131.585938 155.484375 L 131.585938 253.539062 L 136.671875 253.539062 L 136.671875 160.570312 Z M 131.585938 155.484375 " fill-opacity="1" fill-rule="nonzero"/><path fill="#ffffff" d="M 157.015625 180.914062 L 157.015625 253.539062 L 162.046875 253.539062 L 162.046875 186 Z M 157.015625 180.914062 " fill-opacity="1" fill-rule="nonzero"/><path fill="#ffffff" d="M 182.390625 183.429688 L 182.390625 253.539062 L 187.476562 253.539062 L 187.476562 188.515625 Z M 182.390625 183.429688 " fill-opacity="1" fill-rule="nonzero"/><path fill="#ffffff" d="M 207.820312 206.289062 L 207.820312 253.539062 L 212.90625 253.539062 L 212.90625 211.375 Z M 207.820312 206.289062 " fill-opacity="1" fill-rule="nonzero"/><path fill="#ffffff" d="M 233.195312 213.945312 L 233.195312 253.539062 L 238.28125 253.539062 L 238.28125 219.03125 Z M 233.195312 213.945312 " fill-opacity="1" fill-rule="nonzero"/><path fill="#ffffff" d="M 266.226562 205.085938 C 266.226562 205.03125 266.226562 204.976562 266.226562 204.921875 C 266.226562 204.867188 266.226562 204.8125 266.171875 204.757812 L 263.65625 192.070312 C 263.382812 190.703125 262.070312 189.828125 260.648438 190.101562 C 259.28125 190.375 258.40625 191.6875 258.679688 193.109375 L 260.101562 200.21875 L 127.8125 121.796875 C 126.609375 121.085938 125.023438 121.46875 124.3125 122.671875 C 123.601562 123.875 123.984375 125.460938 125.1875 126.171875 L 256.65625 204.101562 L 250.421875 205.359375 C 249.054688 205.632812 248.179688 206.945312 248.453125 208.367188 C 248.671875 209.570312 249.765625 210.390625 250.914062 210.390625 C 251.078125 210.390625 251.242188 210.390625 251.40625 210.335938 L 264.09375 207.820312 C 264.148438 207.820312 264.203125 207.820312 264.257812 207.765625 C 264.257812 207.765625 264.3125 207.765625 264.3125 207.765625 C 264.367188 207.765625 264.421875 207.710938 264.476562 207.710938 C 264.75 207.601562 265.023438 207.4375 265.296875 207.21875 C 265.351562 207.164062 265.40625 207.109375 265.460938 207.054688 C 265.515625 207 265.570312 206.945312 265.625 206.890625 C 265.679688 206.835938 265.679688 206.78125 265.734375 206.726562 C 265.789062 206.671875 265.84375 206.5625 265.84375 206.507812 C 265.898438 206.453125 265.898438 206.398438 265.898438 206.34375 C 265.953125 206.289062 265.953125 206.234375 265.953125 206.125 C 266.007812 206.070312 266.007812 205.960938 266.007812 205.90625 C 266.007812 205.851562 266.0625 205.796875 266.0625 205.742188 C 266.0625 205.6875 266.0625 205.632812 266.0625 205.578125 C 266.0625 205.523438 266.0625 205.523438 266.0625 205.46875 C 266.0625 205.414062 266.0625 205.359375 266.0625 205.304688 C 266.226562 205.195312 266.226562 205.140625 266.226562 205.085938 Z M 266.226562 205.085938 " fill-opacity="1" fill-rule="nonzero"/></svg>