<svg xmlns="http://www.w3.org/2000/svg" xmlns:xlink="http://www.w3.org/1999/xlink" width="500" zoomAndPan="magnify" viewBox="0 0 375 374.999991" height="500" preserveAspectRatio="xMidYMid meet" version="1.0"><defs><clipPath id="a9219abd0e"><path d="M 56.226562 56.226562 L 318.726562 56.226562 L 318.726562 318.726562 L 56.226562 318.726562 Z M 56.226562 56.226562 " clip-rule="nonzero"/></clipPath><clipPath id="98350ac766"><path d="M 318.726562 187.476562 C 318.726562 189.625 318.675781 191.773438 318.570312 193.917969 C 318.464844 196.0625 318.304688 198.203125 318.097656 200.34375 C 317.886719 202.480469 317.621094 204.613281 317.308594 206.734375 C 316.992188 208.859375 316.625 210.976562 316.207031 213.082031 C 315.785156 215.191406 315.316406 217.285156 314.792969 219.367188 C 314.273438 221.453125 313.699219 223.523438 313.078125 225.578125 C 312.453125 227.632812 311.777344 229.671875 311.054688 231.695312 C 310.332031 233.71875 309.558594 235.71875 308.738281 237.703125 C 307.914062 239.6875 307.042969 241.652344 306.125 243.59375 C 305.207031 245.535156 304.242188 247.453125 303.230469 249.347656 C 302.21875 251.242188 301.160156 253.109375 300.054688 254.953125 C 298.949219 256.796875 297.800781 258.609375 296.609375 260.394531 C 295.414062 262.183594 294.179688 263.9375 292.898438 265.664062 C 291.621094 267.386719 290.296875 269.082031 288.933594 270.742188 C 287.574219 272.402344 286.171875 274.027344 284.726562 275.621094 C 283.285156 277.210938 281.804688 278.765625 280.285156 280.285156 C 278.765625 281.804688 277.210938 283.285156 275.621094 284.726562 C 274.027344 286.171875 272.402344 287.574219 270.742188 288.933594 C 269.082031 290.296875 267.386719 291.621094 265.664062 292.898438 C 263.9375 294.179688 262.183594 295.414062 260.394531 296.609375 C 258.609375 297.800781 256.796875 298.949219 254.953125 300.054688 C 253.113281 301.160156 251.242188 302.21875 249.347656 303.230469 C 247.453125 304.242188 245.535156 305.207031 243.59375 306.125 C 241.652344 307.042969 239.6875 307.914062 237.703125 308.738281 C 235.71875 309.558594 233.71875 310.332031 231.695312 311.054688 C 229.671875 311.777344 227.632812 312.453125 225.578125 313.078125 C 223.523438 313.699219 221.453125 314.273438 219.367188 314.792969 C 217.285156 315.316406 215.191406 315.785156 213.082031 316.207031 C 210.976562 316.625 208.859375 316.992188 206.734375 317.308594 C 204.613281 317.621094 202.480469 317.886719 200.34375 318.097656 C 198.203125 318.304688 196.0625 318.464844 193.917969 318.570312 C 191.773438 318.675781 189.625 318.726562 187.476562 318.726562 C 185.328125 318.726562 183.183594 318.675781 181.039062 318.570312 C 178.890625 318.464844 176.75 318.304688 174.613281 318.097656 C 172.476562 317.886719 170.34375 317.621094 168.21875 317.308594 C 166.09375 316.992188 163.980469 316.625 161.871094 316.207031 C 159.765625 315.785156 157.671875 315.316406 155.585938 314.792969 C 153.503906 314.273438 151.433594 313.699219 149.378906 313.078125 C 147.324219 312.453125 145.285156 311.777344 143.261719 311.054688 C 141.238281 310.332031 139.234375 309.558594 137.25 308.738281 C 135.265625 307.914062 133.304688 307.042969 131.359375 306.125 C 129.417969 305.207031 127.5 304.242188 125.605469 303.230469 C 123.710938 302.21875 121.84375 301.160156 120 300.054688 C 118.160156 298.949219 116.34375 297.800781 114.558594 296.609375 C 112.773438 295.414062 111.015625 294.179688 109.292969 292.898438 C 107.566406 291.621094 105.875 290.296875 104.214844 288.933594 C 102.554688 287.574219 100.925781 286.171875 99.335938 284.726562 C 97.742188 283.285156 96.1875 281.804688 94.671875 280.285156 C 93.152344 278.765625 91.671875 277.210938 90.226562 275.621094 C 88.785156 274.027344 87.382812 272.402344 86.019531 270.742188 C 84.65625 269.082031 83.335938 267.386719 82.058594 265.664062 C 80.777344 263.9375 79.539062 262.183594 78.347656 260.394531 C 77.152344 258.609375 76.003906 256.796875 74.902344 254.953125 C 73.796875 253.113281 72.738281 251.242188 71.726562 249.347656 C 70.714844 247.453125 69.746094 245.535156 68.828125 243.59375 C 67.910156 241.652344 67.039062 239.6875 66.21875 237.703125 C 65.398438 235.71875 64.625 233.71875 63.898438 231.695312 C 63.175781 229.671875 62.503906 227.632812 61.878906 225.578125 C 61.253906 223.523438 60.683594 221.453125 60.160156 219.367188 C 59.640625 217.285156 59.167969 215.191406 58.75 213.082031 C 58.332031 210.976562 57.964844 208.859375 57.648438 206.734375 C 57.332031 204.613281 57.070312 202.480469 56.859375 200.34375 C 56.648438 198.203125 56.492188 196.0625 56.386719 193.917969 C 56.28125 191.773438 56.226562 189.625 56.226562 187.476562 C 56.226562 185.328125 56.28125 183.183594 56.386719 181.039062 C 56.492188 178.890625 56.648438 176.75 56.859375 174.613281 C 57.070312 172.476562 57.332031 170.34375 57.648438 168.21875 C 57.964844 166.09375 58.332031 163.980469 58.75 161.871094 C 59.167969 159.765625 59.640625 157.671875 60.160156 155.585938 C 60.683594 153.503906 61.253906 151.433594 61.878906 149.378906 C 62.503906 147.324219 63.175781 145.285156 63.898438 143.261719 C 64.625 141.238281 65.398438 139.234375 66.21875 137.25 C 67.039062 135.265625 67.910156 133.304688 68.828125 131.359375 C 69.746094 129.417969 70.714844 127.5 71.726562 125.605469 C 72.738281 123.710938 73.796875 121.84375 74.902344 120 C 76.003906 118.160156 77.152344 116.34375 78.347656 114.558594 C 79.539062 112.773438 80.777344 111.015625 82.058594 109.292969 C 83.335938 107.566406 84.65625 105.875 86.019531 104.214844 C 87.382812 102.554688 88.785156 100.925781 90.226562 99.335938 C 91.671875 97.742188 93.152344 96.1875 94.671875 94.671875 C 96.1875 93.152344 97.742188 91.671875 99.335938 90.226562 C 100.925781 88.785156 102.554688 87.382812 104.214844 86.019531 C 105.875 84.65625 107.566406 83.335938 109.292969 82.058594 C 111.015625 80.777344 112.773438 79.539062 114.558594 78.347656 C 116.34375 77.152344 118.160156 76.003906 120 74.902344 C 121.84375 73.796875 123.710938 72.738281 125.605469 71.726562 C 127.5 70.714844 129.417969 69.746094 131.359375 68.828125 C 133.304688 67.910156 135.265625 67.039062 137.25 66.21875 C 139.234375 65.398438 141.238281 64.625 143.261719 63.898438 C 145.285156 63.175781 147.324219 62.503906 149.378906 61.878906 C 151.433594 61.253906 153.503906 60.683594 155.585938 60.160156 C 157.671875 59.640625 159.765625 59.167969 161.871094 58.75 C 163.980469 58.332031 166.09375 57.964844 168.21875 57.648438 C 170.34375 57.332031 172.476562 57.070312 174.613281 56.859375 C 176.75 56.648438 178.890625 56.492188 181.039062 56.386719 C 183.183594 56.28125 185.328125 56.226562 187.476562 56.226562 C 189.625 56.226562 191.773438 56.28125 193.917969 56.386719 C 196.0625 56.492188 198.203125 56.648438 200.34375 56.859375 C 202.480469 57.070312 204.613281 57.332031 206.734375 57.648438 C 208.859375 57.964844 210.976562 58.332031 213.082031 58.75 C 215.191406 59.167969 217.285156 59.640625 219.367188 60.160156 C 221.453125 60.683594 223.523438 61.253906 225.578125 61.878906 C 227.632812 62.503906 229.671875 63.175781 231.695312 63.898438 C 233.71875 64.625 235.71875 65.398438 237.703125 66.21875 C 239.691406 67.039062 241.652344 67.910156 243.59375 68.828125 C 245.535156 69.746094 247.453125 70.714844 249.347656 71.726562 C 251.242188 72.738281 253.109375 73.796875 254.953125 74.902344 C 256.796875 76.003906 258.609375 77.152344 260.394531 78.347656 C 262.183594 79.539062 263.9375 80.777344 265.664062 82.058594 C 267.386719 83.335938 269.082031 84.65625 270.742188 86.019531 C 272.402344 87.382812 274.027344 88.785156 275.621094 90.226562 C 277.210938 91.671875 278.765625 93.152344 280.285156 94.671875 C 281.804688 96.1875 283.285156 97.742188 284.726562 99.335938 C 286.171875 100.925781 287.574219 102.554688 288.933594 104.214844 C 290.296875 105.875 291.621094 107.566406 292.898438 109.292969 C 294.179688 111.015625 295.414062 112.773438 296.609375 114.558594 C 297.800781 116.34375 298.949219 118.160156 300.054688 120 C 301.160156 121.84375 302.21875 123.710938 303.230469 125.605469 C 304.242188 127.5 305.207031 129.417969 306.125 131.359375 C 307.042969 133.304688 307.914062 135.265625 308.738281 137.25 C 309.558594 139.234375 310.332031 141.238281 311.054688 143.261719 C 311.777344 145.285156 312.453125 147.324219 313.078125 149.378906 C 313.699219 151.433594 314.273438 153.503906 314.792969 155.585938 C 315.316406 157.671875 315.785156 159.765625 316.207031 161.871094 C 316.625 163.980469 316.992188 166.09375 317.308594 168.21875 C 317.621094 170.34375 317.886719 172.476562 318.097656 174.613281 C 318.304688 176.75 318.464844 178.890625 318.570312 181.039062 C 318.675781 183.183594 318.726562 185.328125 318.726562 187.476562 Z M 318.726562 187.476562 " clip-rule="nonzero"/></clipPath><linearGradient x1="1333.32996" gradientTransform="matrix(0.0984621, 0, 0, 0.0984621, 56.227786, 56.227789)" y1="-0.0000684814" x2="1333.32996" gradientUnits="userSpaceOnUse" y2="2665.999699" id="f58dabe3b5"><stop stop-opacity="1" stop-color="rgb(100%, 59.999084%, 17.999268%)" offset="0"/><stop stop-opacity="1" stop-color="rgb(99.951172%, 59.831238%, 18.069458%)" offset="0.0078125"/><stop stop-opacity="1" stop-color="rgb(99.855042%, 59.498596%, 18.211365%)" offset="0.015625"/><stop stop-opacity="1" stop-color="rgb(99.758911%, 59.164429%, 18.353271%)" offset="0.0234375"/><stop stop-opacity="1" stop-color="rgb(99.662781%, 58.830261%, 18.495178%)" offset="0.03125"/><stop stop-opacity="1" stop-color="rgb(99.56665%, 58.49762%, 18.637085%)" offset="0.0390625"/><stop stop-opacity="1" stop-color="rgb(99.472046%, 58.163452%, 18.778992%)" offset="0.046875"/><stop stop-opacity="1" stop-color="rgb(99.375916%, 57.829285%, 18.920898%)" offset="0.0546875"/><stop stop-opacity="1" stop-color="rgb(99.279785%, 57.495117%, 19.064331%)" offset="0.0625"/><stop stop-opacity="1" stop-color="rgb(99.183655%, 57.162476%, 19.206238%)" offset="0.0703125"/><stop stop-opacity="1" stop-color="rgb(99.087524%, 56.828308%, 19.348145%)" offset="0.078125"/><stop stop-opacity="1" stop-color="rgb(98.991394%, 56.494141%, 19.490051%)" offset="0.0859375"/><stop stop-opacity="1" stop-color="rgb(98.89679%, 56.161499%, 19.631958%)" offset="0.09375"/><stop stop-opacity="1" stop-color="rgb(98.800659%, 55.827332%, 19.773865%)" offset="0.101562"/><stop stop-opacity="1" stop-color="rgb(98.704529%, 55.493164%, 19.915771%)" offset="0.109375"/><stop stop-opacity="1" stop-color="rgb(98.608398%, 55.158997%, 20.057678%)" offset="0.117187"/><stop stop-opacity="1" stop-color="rgb(98.512268%, 54.826355%, 20.199585%)" offset="0.125"/><stop stop-opacity="1" stop-color="rgb(98.417664%, 54.492188%, 20.341492%)" offset="0.132812"/><stop stop-opacity="1" stop-color="rgb(98.321533%, 54.15802%, 20.483398%)" offset="0.140625"/><stop stop-opacity="1" stop-color="rgb(98.225403%, 53.825378%, 20.625305%)" offset="0.148438"/><stop stop-opacity="1" stop-color="rgb(98.129272%, 53.491211%, 20.767212%)" offset="0.15625"/><stop stop-opacity="1" stop-color="rgb(98.033142%, 53.157043%, 20.909119%)" offset="0.164062"/><stop stop-opacity="1" stop-color="rgb(97.937012%, 52.822876%, 21.051025%)" offset="0.171875"/><stop stop-opacity="1" stop-color="rgb(97.842407%, 52.490234%, 21.194458%)" offset="0.179688"/><stop stop-opacity="1" stop-color="rgb(97.746277%, 52.156067%, 21.336365%)" offset="0.1875"/><stop stop-opacity="1" stop-color="rgb(97.650146%, 51.821899%, 21.478271%)" offset="0.195312"/><stop stop-opacity="1" stop-color="rgb(97.554016%, 51.489258%, 21.620178%)" offset="0.203125"/><stop stop-opacity="1" stop-color="rgb(97.457886%, 51.15509%, 21.762085%)" offset="0.210938"/><stop stop-opacity="1" stop-color="rgb(97.363281%, 50.820923%, 21.903992%)" offset="0.21875"/><stop stop-opacity="1" stop-color="rgb(97.259521%, 50.454712%, 22.062683%)" offset="0.222656"/><stop stop-opacity="1" stop-color="rgb(97.203064%, 50.254822%, 22.151184%)" offset="0.226562"/><stop stop-opacity="1" stop-color="rgb(97.145081%, 50.047302%, 22.241211%)" offset="0.230469"/><stop stop-opacity="1" stop-color="rgb(97.087097%, 49.839783%, 22.332764%)" offset="0.234375"/><stop stop-opacity="1" stop-color="rgb(97.029114%, 49.632263%, 22.422791%)" offset="0.238281"/><stop stop-opacity="1" stop-color="rgb(96.97113%, 49.42627%, 22.514343%)" offset="0.242188"/><stop stop-opacity="1" stop-color="rgb(96.913147%, 49.21875%, 22.60437%)" offset="0.246094"/><stop stop-opacity="1" stop-color="rgb(96.855164%, 49.012756%, 22.695923%)" offset="0.25"/><stop stop-opacity="1" stop-color="rgb(96.79718%, 48.805237%, 22.78595%)" offset="0.253906"/><stop stop-opacity="1" stop-color="rgb(96.739197%, 48.599243%, 22.877502%)" offset="0.257812"/><stop stop-opacity="1" stop-color="rgb(96.679688%, 48.391724%, 22.969055%)" offset="0.261719"/><stop stop-opacity="1" stop-color="rgb(96.621704%, 48.184204%, 23.060608%)" offset="0.265625"/><stop stop-opacity="1" stop-color="rgb(96.563721%, 47.976685%, 23.150635%)" offset="0.269531"/><stop stop-opacity="1" stop-color="rgb(96.505737%, 47.770691%, 23.242188%)" offset="0.273438"/><stop stop-opacity="1" stop-color="rgb(96.447754%, 47.563171%, 23.332214%)" offset="0.277344"/><stop stop-opacity="1" stop-color="rgb(96.389771%, 47.357178%, 23.423767%)" offset="0.28125"/><stop stop-opacity="1" stop-color="rgb(96.331787%, 47.149658%, 23.513794%)" offset="0.285156"/><stop stop-opacity="1" stop-color="rgb(96.273804%, 46.943665%, 23.605347%)" offset="0.289062"/><stop stop-opacity="1" stop-color="rgb(96.21582%, 46.736145%, 23.695374%)" offset="0.292969"/><stop stop-opacity="1" stop-color="rgb(96.157837%, 46.528625%, 23.786926%)" offset="0.296875"/><stop stop-opacity="1" stop-color="rgb(96.099854%, 46.321106%, 23.876953%)" offset="0.300781"/><stop stop-opacity="1" stop-color="rgb(96.04187%, 46.115112%, 23.968506%)" offset="0.304687"/><stop stop-opacity="1" stop-color="rgb(95.983887%, 45.907593%, 24.060059%)" offset="0.308594"/><stop stop-opacity="1" stop-color="rgb(95.925903%, 45.701599%, 24.151611%)" offset="0.3125"/><stop stop-opacity="1" stop-color="rgb(95.86792%, 45.49408%, 24.241638%)" offset="0.316406"/><stop stop-opacity="1" stop-color="rgb(95.809937%, 45.288086%, 24.333191%)" offset="0.320312"/><stop stop-opacity="1" stop-color="rgb(95.751953%, 45.080566%, 24.423218%)" offset="0.324219"/><stop stop-opacity="1" stop-color="rgb(95.69397%, 44.873047%, 24.514771%)" offset="0.328125"/><stop stop-opacity="1" stop-color="rgb(95.635986%, 44.665527%, 24.604797%)" offset="0.332031"/><stop stop-opacity="1" stop-color="rgb(95.578003%, 44.459534%, 24.69635%)" offset="0.335938"/><stop stop-opacity="1" stop-color="rgb(95.52002%, 44.252014%, 24.786377%)" offset="0.339844"/><stop stop-opacity="1" stop-color="rgb(95.462036%, 44.046021%, 24.87793%)" offset="0.34375"/><stop stop-opacity="1" stop-color="rgb(95.404053%, 43.838501%, 24.967957%)" offset="0.347656"/><stop stop-opacity="1" stop-color="rgb(95.346069%, 43.632507%, 25.059509%)" offset="0.351562"/><stop stop-opacity="1" stop-color="rgb(95.288086%, 43.424988%, 25.151062%)" offset="0.355469"/><stop stop-opacity="1" stop-color="rgb(95.230103%, 43.217468%, 25.242615%)" offset="0.359375"/><stop stop-opacity="1" stop-color="rgb(95.172119%, 43.009949%, 25.332642%)" offset="0.363281"/><stop stop-opacity="1" stop-color="rgb(95.114136%, 42.803955%, 25.424194%)" offset="0.367187"/><stop stop-opacity="1" stop-color="rgb(95.056152%, 42.596436%, 25.514221%)" offset="0.371094"/><stop stop-opacity="1" stop-color="rgb(94.998169%, 42.390442%, 25.605774%)" offset="0.375"/><stop stop-opacity="1" stop-color="rgb(94.940186%, 42.182922%, 25.695801%)" offset="0.378906"/><stop stop-opacity="1" stop-color="rgb(94.882202%, 41.976929%, 25.787354%)" offset="0.382812"/><stop stop-opacity="1" stop-color="rgb(94.824219%, 41.769409%, 25.87738%)" offset="0.386719"/><stop stop-opacity="1" stop-color="rgb(94.766235%, 41.56189%, 25.968933%)" offset="0.390625"/><stop stop-opacity="1" stop-color="rgb(94.708252%, 41.35437%, 26.05896%)" offset="0.394531"/><stop stop-opacity="1" stop-color="rgb(94.650269%, 41.148376%, 26.150513%)" offset="0.398437"/><stop stop-opacity="1" stop-color="rgb(94.592285%, 40.940857%, 26.242065%)" offset="0.402344"/><stop stop-opacity="1" stop-color="rgb(94.534302%, 40.734863%, 26.333618%)" offset="0.40625"/><stop stop-opacity="1" stop-color="rgb(94.476318%, 40.527344%, 26.423645%)" offset="0.410156"/><stop stop-opacity="1" stop-color="rgb(94.418335%, 40.32135%, 26.515198%)" offset="0.414062"/><stop stop-opacity="1" stop-color="rgb(94.360352%, 40.113831%, 26.605225%)" offset="0.417969"/><stop stop-opacity="1" stop-color="rgb(94.302368%, 39.906311%, 26.696777%)" offset="0.421875"/><stop stop-opacity="1" stop-color="rgb(94.244385%, 39.698792%, 26.786804%)" offset="0.425781"/><stop stop-opacity="1" stop-color="rgb(94.186401%, 39.492798%, 26.878357%)" offset="0.429687"/><stop stop-opacity="1" stop-color="rgb(94.128418%, 39.285278%, 26.968384%)" offset="0.433594"/><stop stop-opacity="1" stop-color="rgb(94.070435%, 39.079285%, 27.059937%)" offset="0.4375"/><stop stop-opacity="1" stop-color="rgb(94.010925%, 38.871765%, 27.151489%)" offset="0.441406"/><stop stop-opacity="1" stop-color="rgb(93.952942%, 38.665771%, 27.243042%)" offset="0.445312"/><stop stop-opacity="1" stop-color="rgb(93.894958%, 38.458252%, 27.333069%)" offset="0.449219"/><stop stop-opacity="1" stop-color="rgb(93.836975%, 38.250732%, 27.424622%)" offset="0.453125"/><stop stop-opacity="1" stop-color="rgb(93.778992%, 38.043213%, 27.514648%)" offset="0.457031"/><stop stop-opacity="1" stop-color="rgb(93.721008%, 37.837219%, 27.606201%)" offset="0.460937"/><stop stop-opacity="1" stop-color="rgb(93.663025%, 37.6297%, 27.696228%)" offset="0.464844"/><stop stop-opacity="1" stop-color="rgb(93.605042%, 37.423706%, 27.787781%)" offset="0.46875"/><stop stop-opacity="1" stop-color="rgb(93.547058%, 37.216187%, 27.877808%)" offset="0.472656"/><stop stop-opacity="1" stop-color="rgb(93.489075%, 37.008667%, 27.96936%)" offset="0.476562"/><stop stop-opacity="1" stop-color="rgb(93.431091%, 36.801147%, 28.059387%)" offset="0.480469"/><stop stop-opacity="1" stop-color="rgb(93.373108%, 36.595154%, 28.15094%)" offset="0.484375"/><stop stop-opacity="1" stop-color="rgb(93.315125%, 36.387634%, 28.242493%)" offset="0.488281"/><stop stop-opacity="1" stop-color="rgb(93.257141%, 36.181641%, 28.334045%)" offset="0.492187"/><stop stop-opacity="1" stop-color="rgb(93.199158%, 35.974121%, 28.424072%)" offset="0.496094"/><stop stop-opacity="1" stop-color="rgb(93.141174%, 35.768127%, 28.515625%)" offset="0.5"/><stop stop-opacity="1" stop-color="rgb(93.083191%, 35.560608%, 28.605652%)" offset="0.503906"/><stop stop-opacity="1" stop-color="rgb(93.025208%, 35.353088%, 28.697205%)" offset="0.507812"/><stop stop-opacity="1" stop-color="rgb(92.967224%, 35.145569%, 28.787231%)" offset="0.511719"/><stop stop-opacity="1" stop-color="rgb(92.909241%, 34.939575%, 28.878784%)" offset="0.515625"/><stop stop-opacity="1" stop-color="rgb(92.851257%, 34.732056%, 28.968811%)" offset="0.519531"/><stop stop-opacity="1" stop-color="rgb(92.793274%, 34.526062%, 29.060364%)" offset="0.523438"/><stop stop-opacity="1" stop-color="rgb(92.735291%, 34.318542%, 29.150391%)" offset="0.527344"/><stop stop-opacity="1" stop-color="rgb(92.677307%, 34.112549%, 29.241943%)" offset="0.53125"/><stop stop-opacity="1" stop-color="rgb(92.619324%, 33.905029%, 29.333496%)" offset="0.535156"/><stop stop-opacity="1" stop-color="rgb(92.56134%, 33.69751%, 29.425049%)" offset="0.539062"/><stop stop-opacity="1" stop-color="rgb(92.503357%, 33.48999%, 29.515076%)" offset="0.542969"/><stop stop-opacity="1" stop-color="rgb(92.445374%, 33.283997%, 29.606628%)" offset="0.546875"/><stop stop-opacity="1" stop-color="rgb(92.38739%, 33.076477%, 29.696655%)" offset="0.550781"/><stop stop-opacity="1" stop-color="rgb(92.329407%, 32.870483%, 29.788208%)" offset="0.554688"/><stop stop-opacity="1" stop-color="rgb(92.271423%, 32.662964%, 29.878235%)" offset="0.558594"/><stop stop-opacity="1" stop-color="rgb(92.21344%, 32.45697%, 29.969788%)" offset="0.5625"/><stop stop-opacity="1" stop-color="rgb(92.155457%, 32.249451%, 30.059814%)" offset="0.566406"/><stop stop-opacity="1" stop-color="rgb(92.097473%, 32.041931%, 30.151367%)" offset="0.570312"/><stop stop-opacity="1" stop-color="rgb(92.03949%, 31.834412%, 30.241394%)" offset="0.574219"/><stop stop-opacity="1" stop-color="rgb(91.981506%, 31.628418%, 30.332947%)" offset="0.578125"/><stop stop-opacity="1" stop-color="rgb(91.923523%, 31.420898%, 30.4245%)" offset="0.582031"/><stop stop-opacity="1" stop-color="rgb(91.86554%, 31.214905%, 30.516052%)" offset="0.585938"/><stop stop-opacity="1" stop-color="rgb(91.807556%, 31.007385%, 30.606079%)" offset="0.589844"/><stop stop-opacity="1" stop-color="rgb(91.749573%, 30.801392%, 30.697632%)" offset="0.59375"/><stop stop-opacity="1" stop-color="rgb(91.691589%, 30.593872%, 30.787659%)" offset="0.597656"/><stop stop-opacity="1" stop-color="rgb(91.633606%, 30.386353%, 30.879211%)" offset="0.601563"/><stop stop-opacity="1" stop-color="rgb(91.575623%, 30.178833%, 30.969238%)" offset="0.605469"/><stop stop-opacity="1" stop-color="rgb(91.517639%, 29.972839%, 31.060791%)" offset="0.609375"/><stop stop-opacity="1" stop-color="rgb(91.459656%, 29.76532%, 31.150818%)" offset="0.613281"/><stop stop-opacity="1" stop-color="rgb(91.401672%, 29.559326%, 31.242371%)" offset="0.617188"/><stop stop-opacity="1" stop-color="rgb(91.342163%, 29.351807%, 31.332397%)" offset="0.621094"/><stop stop-opacity="1" stop-color="rgb(91.28418%, 29.145813%, 31.42395%)" offset="0.625"/><stop stop-opacity="1" stop-color="rgb(91.226196%, 28.938293%, 31.515503%)" offset="0.628906"/><stop stop-opacity="1" stop-color="rgb(91.168213%, 28.730774%, 31.607056%)" offset="0.632812"/><stop stop-opacity="1" stop-color="rgb(91.110229%, 28.523254%, 31.697083%)" offset="0.636719"/><stop stop-opacity="1" stop-color="rgb(91.052246%, 28.317261%, 31.788635%)" offset="0.640625"/><stop stop-opacity="1" stop-color="rgb(90.994263%, 28.109741%, 31.878662%)" offset="0.644531"/><stop stop-opacity="1" stop-color="rgb(90.936279%, 27.903748%, 31.970215%)" offset="0.648438"/><stop stop-opacity="1" stop-color="rgb(90.878296%, 27.696228%, 32.060242%)" offset="0.652344"/><stop stop-opacity="1" stop-color="rgb(90.820312%, 27.490234%, 32.151794%)" offset="0.65625"/><stop stop-opacity="1" stop-color="rgb(90.762329%, 27.282715%, 32.241821%)" offset="0.660156"/><stop stop-opacity="1" stop-color="rgb(90.704346%, 27.075195%, 32.333374%)" offset="0.664062"/><stop stop-opacity="1" stop-color="rgb(90.646362%, 26.86615%, 32.424927%)" offset="0.667969"/><stop stop-opacity="1" stop-color="rgb(90.588379%, 26.65863%, 32.516479%)" offset="0.671875"/><stop stop-opacity="1" stop-color="rgb(90.527344%, 26.434326%, 32.609558%)" offset="0.675781"/><stop stop-opacity="1" stop-color="rgb(90.467834%, 26.210022%, 32.704163%)" offset="0.679688"/><stop stop-opacity="1" stop-color="rgb(90.406799%, 25.985718%, 32.797241%)" offset="0.683594"/><stop stop-opacity="1" stop-color="rgb(90.345764%, 25.761414%, 32.891846%)" offset="0.6875"/><stop stop-opacity="1" stop-color="rgb(90.284729%, 25.537109%, 32.984924%)" offset="0.691406"/><stop stop-opacity="1" stop-color="rgb(90.22522%, 25.312805%, 33.079529%)" offset="0.695312"/><stop stop-opacity="1" stop-color="rgb(90.164185%, 25.088501%, 33.172607%)" offset="0.699219"/><stop stop-opacity="1" stop-color="rgb(90.104675%, 24.864197%, 33.265686%)" offset="0.703125"/><stop stop-opacity="1" stop-color="rgb(90.04364%, 24.639893%, 33.358765%)" offset="0.707031"/><stop stop-opacity="1" stop-color="rgb(89.982605%, 24.415588%, 33.453369%)" offset="0.710938"/><stop stop-opacity="1" stop-color="rgb(89.92157%, 24.191284%, 33.546448%)" offset="0.714844"/><stop stop-opacity="1" stop-color="rgb(89.862061%, 23.96698%, 33.641052%)" offset="0.71875"/><stop stop-opacity="1" stop-color="rgb(89.801025%, 23.742676%, 33.734131%)" offset="0.722656"/><stop stop-opacity="1" stop-color="rgb(89.73999%, 23.518372%, 33.828735%)" offset="0.726563"/><stop stop-opacity="1" stop-color="rgb(89.678955%, 23.292542%, 33.921814%)" offset="0.730469"/><stop stop-opacity="1" stop-color="rgb(89.619446%, 23.068237%, 34.016418%)" offset="0.734375"/><stop stop-opacity="1" stop-color="rgb(89.558411%, 22.843933%, 34.109497%)" offset="0.738281"/><stop stop-opacity="1" stop-color="rgb(89.498901%, 22.619629%, 34.204102%)" offset="0.742188"/><stop stop-opacity="1" stop-color="rgb(89.437866%, 22.395325%, 34.29718%)" offset="0.746094"/><stop stop-opacity="1" stop-color="rgb(89.376831%, 22.171021%, 34.391785%)" offset="0.75"/><stop stop-opacity="1" stop-color="rgb(89.315796%, 21.946716%, 34.484863%)" offset="0.753906"/><stop stop-opacity="1" stop-color="rgb(89.256287%, 21.722412%, 34.579468%)" offset="0.757812"/><stop stop-opacity="1" stop-color="rgb(89.195251%, 21.498108%, 34.672546%)" offset="0.761719"/><stop stop-opacity="1" stop-color="rgb(89.135742%, 21.273804%, 34.767151%)" offset="0.765625"/><stop stop-opacity="1" stop-color="rgb(89.074707%, 21.0495%, 34.860229%)" offset="0.769531"/><stop stop-opacity="1" stop-color="rgb(89.013672%, 20.825195%, 34.954834%)" offset="0.773438"/><stop stop-opacity="1" stop-color="rgb(88.952637%, 20.600891%, 35.047913%)" offset="0.777344"/><stop stop-opacity="1" stop-color="rgb(88.893127%, 20.376587%, 35.142517%)" offset="0.78125"/><stop stop-opacity="1" stop-color="rgb(88.832092%, 20.152283%, 35.235596%)" offset="0.785156"/><stop stop-opacity="1" stop-color="rgb(88.772583%, 19.927979%, 35.3302%)" offset="0.789062"/><stop stop-opacity="1" stop-color="rgb(88.711548%, 19.703674%, 35.423279%)" offset="0.792969"/><stop stop-opacity="1" stop-color="rgb(88.650513%, 19.47937%, 35.516357%)" offset="0.796875"/><stop stop-opacity="1" stop-color="rgb(88.589478%, 19.255066%, 35.609436%)" offset="0.800781"/><stop stop-opacity="1" stop-color="rgb(88.529968%, 19.030762%, 35.704041%)" offset="0.804688"/><stop stop-opacity="1" stop-color="rgb(88.468933%, 18.806458%, 35.797119%)" offset="0.808594"/><stop stop-opacity="1" stop-color="rgb(88.409424%, 18.582153%, 35.891724%)" offset="0.8125"/><stop stop-opacity="1" stop-color="rgb(88.348389%, 18.357849%, 35.984802%)" offset="0.816406"/><stop stop-opacity="1" stop-color="rgb(88.287354%, 18.133545%, 36.079407%)" offset="0.820312"/><stop stop-opacity="1" stop-color="rgb(88.226318%, 17.909241%, 36.172485%)" offset="0.824219"/><stop stop-opacity="1" stop-color="rgb(88.166809%, 17.684937%, 36.26709%)" offset="0.828125"/><stop stop-opacity="1" stop-color="rgb(88.105774%, 17.460632%, 36.360168%)" offset="0.832031"/><stop stop-opacity="1" stop-color="rgb(88.046265%, 17.236328%, 36.454773%)" offset="0.835938"/><stop stop-opacity="1" stop-color="rgb(87.985229%, 17.012024%, 36.547852%)" offset="0.839844"/><stop stop-opacity="1" stop-color="rgb(87.924194%, 16.78772%, 36.642456%)" offset="0.84375"/><stop stop-opacity="1" stop-color="rgb(87.863159%, 16.563416%, 36.735535%)" offset="0.847656"/><stop stop-opacity="1" stop-color="rgb(87.80365%, 16.339111%, 36.830139%)" offset="0.851563"/><stop stop-opacity="1" stop-color="rgb(87.742615%, 16.114807%, 36.923218%)" offset="0.855469"/><stop stop-opacity="1" stop-color="rgb(87.683105%, 15.890503%, 37.017822%)" offset="0.859375"/><stop stop-opacity="1" stop-color="rgb(87.62207%, 15.666199%, 37.110901%)" offset="0.863281"/><stop stop-opacity="1" stop-color="rgb(87.561035%, 15.441895%, 37.205505%)" offset="0.867188"/><stop stop-opacity="1" stop-color="rgb(87.5%, 15.21759%, 37.298584%)" offset="0.871094"/><stop stop-opacity="1" stop-color="rgb(87.440491%, 14.993286%, 37.393188%)" offset="0.875"/><stop stop-opacity="1" stop-color="rgb(87.379456%, 14.767456%, 37.486267%)" offset="0.878906"/><stop stop-opacity="1" stop-color="rgb(87.319946%, 14.543152%, 37.579346%)" offset="0.882812"/><stop stop-opacity="1" stop-color="rgb(87.258911%, 14.318848%, 37.672424%)" offset="0.886719"/><stop stop-opacity="1" stop-color="rgb(87.197876%, 14.094543%, 37.767029%)" offset="0.890625"/><stop stop-opacity="1" stop-color="rgb(87.136841%, 13.870239%, 37.860107%)" offset="0.894531"/><stop stop-opacity="1" stop-color="rgb(87.077332%, 13.645935%, 37.954712%)" offset="0.898438"/><stop stop-opacity="1" stop-color="rgb(87.016296%, 13.421631%, 38.047791%)" offset="0.902344"/><stop stop-opacity="1" stop-color="rgb(86.955261%, 13.197327%, 38.142395%)" offset="0.90625"/><stop stop-opacity="1" stop-color="rgb(86.894226%, 12.973022%, 38.235474%)" offset="0.910156"/><stop stop-opacity="1" stop-color="rgb(86.834717%, 12.748718%, 38.330078%)" offset="0.914062"/><stop stop-opacity="1" stop-color="rgb(86.773682%, 12.524414%, 38.423157%)" offset="0.917969"/><stop stop-opacity="1" stop-color="rgb(86.714172%, 12.30011%, 38.517761%)" offset="0.921875"/><stop stop-opacity="1" stop-color="rgb(86.653137%, 12.075806%, 38.61084%)" offset="0.925781"/><stop stop-opacity="1" stop-color="rgb(86.592102%, 11.851501%, 38.705444%)" offset="0.929688"/><stop stop-opacity="1" stop-color="rgb(86.531067%, 11.627197%, 38.798523%)" offset="0.933594"/><stop stop-opacity="1" stop-color="rgb(86.471558%, 11.402893%, 38.893127%)" offset="0.9375"/><stop stop-opacity="1" stop-color="rgb(86.410522%, 11.178589%, 38.986206%)" offset="0.941406"/><stop stop-opacity="1" stop-color="rgb(86.351013%, 10.954285%, 39.080811%)" offset="0.945312"/><stop stop-opacity="1" stop-color="rgb(86.289978%, 10.72998%, 39.173889%)" offset="0.949219"/><stop stop-opacity="1" stop-color="rgb(86.228943%, 10.505676%, 39.268494%)" offset="0.953125"/><stop stop-opacity="1" stop-color="rgb(86.167908%, 10.281372%, 39.361572%)" offset="0.957031"/><stop stop-opacity="1" stop-color="rgb(86.108398%, 10.057068%, 39.456177%)" offset="0.960938"/><stop stop-opacity="1" stop-color="rgb(86.047363%, 9.832764%, 39.549255%)" offset="0.964844"/><stop stop-opacity="1" stop-color="rgb(85.987854%, 9.608459%, 39.64386%)" offset="0.96875"/><stop stop-opacity="1" stop-color="rgb(85.926819%, 9.384155%, 39.736938%)" offset="0.972656"/><stop stop-opacity="1" stop-color="rgb(85.865784%, 9.159851%, 39.830017%)" offset="0.976562"/><stop stop-opacity="1" stop-color="rgb(85.804749%, 8.935547%, 39.923096%)" offset="0.980469"/><stop stop-opacity="1" stop-color="rgb(85.745239%, 8.711243%, 40.0177%)" offset="0.984375"/><stop stop-opacity="1" stop-color="rgb(85.684204%, 8.486938%, 40.110779%)" offset="0.988281"/><stop stop-opacity="1" stop-color="rgb(85.624695%, 8.262634%, 40.205383%)" offset="0.992188"/><stop stop-opacity="1" stop-color="rgb(85.56366%, 8.03833%, 40.298462%)" offset="0.996094"/><stop stop-opacity="1" stop-color="rgb(85.502625%, 7.814026%, 40.393066%)" offset="1"/></linearGradient></defs><g clip-path="url(#a9219abd0e)"><g clip-path="url(#98350ac766)"><path fill="url(#f58dabe3b5)" d="M 56.226562 56.226562 L 56.226562 318.726562 L 318.726562 318.726562 L 318.726562 56.226562 Z M 56.226562 56.226562 " fill-rule="nonzero"/></g></g><path fill="#fefefe" d="M 257.78125 240.550781 L 117.273438 240.550781 C 109.691406 240.550781 103.488281 234.347656 103.488281 226.765625 L 103.488281 148.289062 C 103.488281 140.707031 109.691406 134.503906 117.273438 134.503906 L 257.679688 134.503906 C 265.359375 134.503906 271.5625 140.707031 271.5625 148.289062 L 271.5625 165.519531 L 240.351562 165.519531 C 228.242188 165.519531 218.394531 175.367188 218.394531 187.476562 C 218.394531 199.6875 228.242188 209.535156 240.351562 209.535156 L 271.5625 209.535156 L 271.5625 226.765625 C 271.5625 234.347656 265.359375 240.550781 257.78125 240.550781 Z M 241.335938 196.242188 C 236.511719 196.242188 232.574219 192.300781 232.574219 187.476562 C 232.574219 182.75 236.511719 178.8125 241.335938 178.8125 C 246.0625 178.8125 250 182.75 250 187.476562 C 250 192.300781 246.0625 196.242188 241.335938 196.242188 Z M 241.335938 182.75 C 238.679688 182.75 236.511719 184.917969 236.511719 187.476562 C 236.511719 190.136719 238.679688 192.300781 241.335938 192.300781 C 243.898438 192.300781 246.0625 190.136719 246.0625 187.476562 C 246.0625 184.917969 243.898438 182.75 241.335938 182.75 Z M 271.5625 169.460938 L 271.5625 205.59375 L 240.351562 205.59375 C 230.40625 205.59375 222.332031 197.519531 222.332031 187.476562 C 222.332031 177.53125 230.40625 169.460938 240.351562 169.460938 Z M 162.863281 222.136719 C 143.761719 222.136719 128.203125 206.578125 128.203125 187.476562 C 128.203125 168.375 143.761719 152.820312 162.863281 152.820312 C 181.964844 152.820312 197.519531 168.375 197.519531 187.476562 C 197.519531 206.578125 181.964844 222.136719 162.863281 222.136719 Z M 162.863281 156.757812 C 145.925781 156.757812 132.140625 170.542969 132.140625 187.476562 C 132.140625 204.414062 145.925781 218.199219 162.863281 218.199219 C 179.796875 218.199219 193.582031 204.414062 193.582031 187.476562 C 193.582031 170.542969 179.796875 156.757812 162.863281 156.757812 Z M 160.894531 207.957031 C 155.574219 206.972656 151.539062 202.445312 151.539062 196.832031 C 151.539062 195.75 152.425781 194.863281 153.507812 194.863281 C 154.691406 194.863281 155.476562 195.75 155.476562 196.832031 C 155.476562 200.277344 157.839844 203.035156 160.894531 203.921875 C 160.894531 199.882812 160.992188 194.765625 160.992188 189.347656 C 155.675781 188.460938 151.539062 183.734375 151.539062 178.222656 C 151.539062 172.609375 155.675781 167.882812 160.992188 166.996094 C 160.992188 165.519531 160.992188 164.140625 160.992188 162.863281 C 160.992188 161.777344 161.777344 160.894531 162.863281 160.894531 C 164.042969 160.894531 164.929688 161.777344 164.929688 162.863281 C 164.929688 164.140625 164.929688 165.519531 164.929688 167.097656 C 170.246094 168.082031 174.183594 172.609375 174.183594 178.222656 C 174.183594 179.304688 173.300781 180.191406 172.214844 180.191406 C 171.132812 180.191406 170.246094 179.304688 170.246094 178.222656 C 170.246094 174.875 167.980469 172.019531 164.929688 171.132812 C 165.027344 175.664062 165.027344 180.683594 164.929688 185.707031 C 170.246094 186.691406 174.183594 191.316406 174.183594 196.832031 C 174.183594 202.445312 170.148438 207.070312 164.832031 208.054688 C 164.734375 210.519531 164.734375 212.09375 164.734375 212.191406 C 164.734375 213.273438 163.847656 214.0625 162.765625 214.0625 C 161.679688 214.0625 160.792969 213.175781 160.792969 212.09375 Z M 164.832031 204.019531 C 167.980469 203.132812 170.246094 200.277344 170.246094 196.832031 C 170.246094 193.484375 167.980469 190.628906 164.929688 189.742188 C 164.929688 195.058594 164.832031 200.082031 164.832031 204.019531 Z M 160.992188 171.035156 C 157.839844 171.921875 155.476562 174.777344 155.476562 178.222656 C 155.476562 181.570312 157.839844 184.523438 160.992188 185.3125 C 161.089844 180.386719 161.089844 175.464844 160.992188 171.035156 Z M 160.992188 171.035156 " fill-opacity="1" fill-rule="evenodd"/></svg>